<svg width="1805" height="165" viewBox="0 0 1805 165" fill="none" xmlns="http://www.w3.org/2000/svg">
<g opacity="0.51">
<path d="M61.1029 108.513H63.8029C63.8562 108.966 64.0629 109.379 64.4229 109.753C64.7962 110.113 65.2829 110.399 65.8829 110.613C66.4829 110.813 67.1562 110.913 67.9029 110.913C68.5829 110.913 69.1429 110.839 69.5829 110.693C70.0229 110.546 70.3495 110.339 70.5629 110.073C70.7762 109.806 70.8829 109.486 70.8829 109.113C70.8829 108.753 70.7495 108.479 70.4829 108.293C70.2162 108.093 69.7962 107.933 69.2229 107.813C68.6495 107.679 67.8962 107.546 66.9629 107.413C66.2295 107.306 65.5362 107.159 64.8829 106.973C64.2295 106.773 63.6495 106.519 63.1429 106.213C62.6495 105.906 62.2562 105.533 61.9629 105.093C61.6829 104.639 61.5429 104.106 61.5429 103.493C61.5429 102.733 61.7562 102.066 62.1829 101.493C62.6229 100.919 63.2695 100.473 64.1229 100.153C64.9762 99.8326 66.0229 99.6726 67.2629 99.6726C69.1295 99.6726 70.5629 100.073 71.5629 100.873C72.5762 101.659 73.0695 102.746 73.0429 104.133H70.4429C70.3895 103.346 70.0562 102.779 69.4429 102.433C68.8429 102.086 68.0829 101.913 67.1629 101.913C66.3095 101.913 65.6029 102.039 65.0429 102.293C64.4962 102.546 64.2229 102.979 64.2229 103.593C64.2229 103.833 64.2895 104.046 64.4229 104.233C64.5562 104.406 64.7829 104.559 65.1029 104.693C65.4229 104.826 65.8562 104.953 66.4029 105.073C66.9495 105.193 67.6295 105.313 68.4429 105.433C69.2029 105.539 69.8895 105.686 70.5029 105.873C71.1295 106.046 71.6629 106.279 72.1029 106.573C72.5562 106.853 72.9029 107.213 73.1429 107.653C73.3829 108.093 73.5029 108.633 73.5029 109.273C73.5029 110.059 73.2962 110.746 72.8829 111.333C72.4829 111.906 71.8562 112.353 71.0029 112.673C70.1629 112.993 69.0695 113.153 67.7229 113.153C66.7629 113.153 65.9162 113.053 65.1829 112.853C64.4495 112.639 63.8162 112.359 63.2829 112.013C62.7495 111.666 62.3162 111.286 61.9829 110.873C61.6495 110.459 61.4095 110.046 61.2629 109.633C61.1295 109.219 61.0762 108.846 61.1029 108.513ZM86.0096 99.9326H99.6496V102.153H86.0096V99.9326ZM91.5096 101.873H94.1696V112.873H91.5096V101.873ZM124.763 107.153V99.9326H127.423V107.433C127.423 108.286 127.296 109.033 127.043 109.673C126.803 110.313 126.456 110.853 126.003 111.293C125.55 111.733 125.016 112.093 124.403 112.373C123.803 112.639 123.143 112.833 122.423 112.953C121.716 113.073 120.97 113.133 120.183 113.133C119.37 113.133 118.596 113.073 117.863 112.953C117.13 112.833 116.456 112.639 115.843 112.373C115.243 112.093 114.723 111.733 114.283 111.293C113.843 110.853 113.496 110.313 113.243 109.673C113.003 109.033 112.883 108.286 112.883 107.433V99.9326H115.543V107.153C115.543 108.166 115.743 108.939 116.143 109.473C116.543 109.993 117.09 110.353 117.783 110.553C118.49 110.739 119.29 110.833 120.183 110.833C121.05 110.833 121.823 110.739 122.503 110.553C123.196 110.353 123.743 109.993 124.143 109.473C124.556 108.939 124.763 108.166 124.763 107.153ZM149.2 99.9326C150.654 99.9326 151.867 100.106 152.84 100.453C153.814 100.799 154.587 101.273 155.16 101.873C155.747 102.459 156.16 103.139 156.4 103.913C156.654 104.686 156.78 105.499 156.78 106.353C156.78 107.206 156.64 108.026 156.36 108.813C156.094 109.599 155.66 110.299 155.06 110.913C154.474 111.513 153.694 111.993 152.72 112.353C151.76 112.699 150.587 112.873 149.2 112.873H141.8V99.9326H149.2ZM144.46 110.593H149.14C150.1 110.593 150.894 110.479 151.52 110.253C152.16 110.013 152.667 109.693 153.04 109.293C153.414 108.893 153.68 108.439 153.84 107.933C154 107.426 154.08 106.899 154.08 106.353C154.08 105.806 154 105.286 153.84 104.793C153.68 104.299 153.414 103.859 153.04 103.473C152.667 103.086 152.16 102.779 151.52 102.553C150.894 102.326 150.1 102.213 149.14 102.213H144.46V110.593ZM171.058 99.9326H173.718V112.873H171.058V99.9326ZM196.163 113.133C194.443 113.133 192.97 112.866 191.743 112.333C190.53 111.786 189.596 111.013 188.943 110.013C188.303 109.013 187.983 107.813 187.983 106.413C187.983 104.999 188.303 103.793 188.943 102.793C189.596 101.793 190.53 101.026 191.743 100.493C192.97 99.9459 194.443 99.6726 196.163 99.6726C197.896 99.6726 199.37 99.9459 200.583 100.493C201.796 101.026 202.723 101.793 203.363 102.793C204.016 103.793 204.343 104.999 204.343 106.413C204.343 107.813 204.016 109.013 203.363 110.013C202.723 111.013 201.796 111.786 200.583 112.333C199.37 112.866 197.896 113.133 196.163 113.133ZM196.163 110.833C197.23 110.833 198.163 110.673 198.963 110.353C199.776 110.033 200.41 109.546 200.863 108.893C201.33 108.239 201.563 107.413 201.563 106.413C201.563 105.413 201.33 104.586 200.863 103.933C200.41 103.279 199.776 102.793 198.963 102.473C198.163 102.139 197.23 101.973 196.163 101.973C195.11 101.973 194.17 102.139 193.343 102.473C192.516 102.793 191.87 103.279 191.403 103.933C190.936 104.586 190.703 105.413 190.703 106.413C190.703 107.413 190.936 108.239 191.403 108.893C191.87 109.546 192.516 110.033 193.343 110.353C194.17 110.673 195.11 110.833 196.163 110.833ZM69.4029 137.133C68.2029 137.133 67.1162 136.993 66.1429 136.713C65.1829 136.433 64.3495 136.013 63.6429 135.453C62.9495 134.893 62.4162 134.199 62.0429 133.373C61.6695 132.546 61.4829 131.593 61.4829 130.513C61.4829 129.419 61.6762 128.453 62.0629 127.613C62.4629 126.759 63.0229 126.039 63.7429 125.453C64.4762 124.866 65.3429 124.426 66.3429 124.133C67.3562 123.826 68.4762 123.673 69.7029 123.673C71.1562 123.673 72.4095 123.879 73.4629 124.293C74.5162 124.693 75.3429 125.259 75.9429 125.993C76.5562 126.726 76.9029 127.599 76.9829 128.613H74.4229C74.2495 128.079 73.9629 127.619 73.5629 127.233C73.1762 126.833 72.6629 126.526 72.0229 126.313C71.3829 126.086 70.6095 125.973 69.7029 125.973C68.5429 125.973 67.5495 126.159 66.7229 126.533C65.9095 126.906 65.2895 127.433 64.8629 128.113C64.4362 128.793 64.2229 129.593 64.2229 130.513C64.2229 131.406 64.4095 132.179 64.7829 132.833C65.1562 133.473 65.7295 133.966 66.5029 134.313C67.2895 134.659 68.2895 134.833 69.5029 134.833C70.4362 134.833 71.2562 134.713 71.9629 134.473C72.6829 134.219 73.2829 133.886 73.7629 133.473C74.2429 133.046 74.5829 132.573 74.7829 132.053L75.8229 131.673C75.6495 133.393 74.9962 134.733 73.8629 135.693C72.7429 136.653 71.2562 137.133 69.4029 137.133ZM75.1429 136.873C75.1429 136.459 75.1695 135.986 75.2229 135.453C75.2762 134.906 75.3429 134.359 75.4229 133.813C75.5029 133.253 75.5762 132.739 75.6429 132.273H69.7229V130.573H77.4429V136.873H75.1429ZM95.3441 136.873V123.933H104.124C105.124 123.933 105.991 124.073 106.724 124.353C107.471 124.619 108.051 125.046 108.464 125.633C108.877 126.206 109.084 126.946 109.084 127.853C109.084 128.466 108.977 128.986 108.764 129.413C108.551 129.839 108.251 130.186 107.864 130.453C107.491 130.719 107.057 130.926 106.564 131.073C106.071 131.206 105.544 131.293 104.984 131.333L104.704 131.173C105.637 131.186 106.404 131.266 107.004 131.413C107.604 131.546 108.051 131.799 108.344 132.173C108.651 132.533 108.804 133.073 108.804 133.793V136.873H106.144V133.973C106.144 133.479 106.057 133.099 105.884 132.833C105.711 132.553 105.397 132.359 104.944 132.253C104.504 132.146 103.864 132.093 103.024 132.093H98.0041V136.873H95.3441ZM98.0041 130.013H104.124C104.871 130.013 105.437 129.833 105.824 129.473C106.224 129.113 106.424 128.626 106.424 128.013C106.424 127.426 106.224 126.979 105.824 126.673C105.437 126.366 104.871 126.213 104.124 126.213H98.0041V130.013ZM129.628 131.473V134.653H139.608V136.873H126.968V123.933H139.588V126.153H129.628V129.373H137.788V131.473H129.628ZM160.099 131.473V134.653H170.079V136.873H157.439V123.933H170.059V126.153H160.099V129.373H168.259V131.473H160.099ZM201.03 134.233L200.19 134.573V123.933H202.85V136.873H200.19L189.73 126.653L190.57 126.313V136.873H187.91V123.933H190.57L201.03 134.233Z" fill="#030211"/>
<path d="M25.8043 93.771L27.283 111.189L34.6299 95.3272L30.062 112.201L42.391 99.8081L32.3275 114.102L48.1515 106.673L33.8062 116.663L51.2166 115.094L34.3197 119.575L51.2166 124.056L33.8062 122.488L48.1515 132.477L32.3275 125.049L42.391 139.343L30.062 126.95L34.6299 143.823L27.283 127.961L25.8043 145.38L24.3256 127.961L16.9787 143.823L21.5466 126.95L9.21762 139.343L19.2811 125.049L3.45712 132.477L17.8024 122.488L0.392025 124.056L17.2889 119.575L0.392025 115.094L17.8024 116.663L3.45712 106.673L19.2811 114.102L9.21762 99.8081L21.5466 112.201L16.9787 95.3272L24.3256 111.189L25.8043 93.771Z" fill="#030211"/>
<path d="M353.481 95.5112H357.387V134.075H352.737L344.739 104.191V134.075H340.833V95.5112H345.793L353.481 124.341V95.5112ZM365.072 95.5112H371.396C374.661 95.5112 376.294 97.1439 376.294 100.409V129.177C376.294 132.443 374.661 134.075 371.396 134.075H365.072C361.807 134.075 360.174 132.443 360.174 129.177V100.409C360.174 97.1439 361.807 95.5112 365.072 95.5112ZM372.078 128.495V101.091C372.078 100.265 371.954 99.7479 371.706 99.5412C371.458 99.2932 370.941 99.1692 370.156 99.1692H366.312C365.527 99.1692 365.01 99.2932 364.762 99.5412C364.514 99.7479 364.39 100.265 364.39 101.091V128.495C364.39 129.322 364.514 129.859 364.762 130.107C365.01 130.314 365.527 130.417 366.312 130.417H370.156C370.941 130.417 371.458 130.314 371.706 130.107C371.954 129.859 372.078 129.322 372.078 128.495ZM383.322 117.955V134.075H379.106V95.5112H390.328C393.593 95.5112 395.226 97.1439 395.226 100.409V113.057C395.226 115.992 393.944 117.604 391.382 117.893L397.21 134.075H392.622L386.98 117.955H383.322ZM383.322 99.1692V114.297H389.088C389.914 114.297 390.431 114.194 390.638 113.987C390.886 113.739 391.01 113.202 391.01 112.375V101.091C391.01 100.265 390.886 99.7479 390.638 99.5412C390.431 99.2932 389.914 99.1692 389.088 99.1692H383.322ZM411.486 95.5112V99.1692H405.286V134.075H401.07V99.1692H394.87V95.5112H411.486ZM416.094 95.5112H422.418C425.683 95.5112 427.316 97.1439 427.316 100.409V129.177C427.316 132.443 425.683 134.075 422.418 134.075H416.094C412.828 134.075 411.196 132.443 411.196 129.177V100.409C411.196 97.1439 412.828 95.5112 416.094 95.5112ZM423.1 128.495V101.091C423.1 100.265 422.976 99.7479 422.728 99.5412C422.48 99.2932 421.963 99.1692 421.178 99.1692H417.334C416.548 99.1692 416.032 99.2932 415.784 99.5412C415.536 99.7479 415.412 100.265 415.412 101.091V128.495C415.412 129.322 415.536 129.859 415.784 130.107C416.032 130.314 416.548 130.417 417.334 130.417H421.178C421.963 130.417 422.48 130.314 422.728 130.107C422.976 129.859 423.1 129.322 423.1 128.495Z" fill="#030211"/>
<path d="M625.785 108.227V112.084C625.785 112.918 625.876 113.435 626.059 113.637C626.306 113.923 626.68 114.067 627.182 114.067H627.689V114.428H622.016V114.067H622.514C623.074 114.067 623.474 113.884 623.715 113.52C623.845 113.318 623.91 112.839 623.91 112.084V103.53C623.91 102.696 623.822 102.179 623.646 101.977C623.393 101.69 623.015 101.547 622.514 101.547H622.016V101.186H626.869C628.054 101.186 628.988 101.309 629.672 101.557C630.355 101.798 630.932 102.208 631.4 102.787C631.869 103.367 632.104 104.054 632.104 104.848C632.104 105.929 631.745 106.808 631.029 107.485C630.32 108.162 629.314 108.5 628.012 108.5C627.693 108.5 627.348 108.477 626.977 108.432C626.605 108.386 626.208 108.318 625.785 108.227ZM625.785 107.67C626.13 107.735 626.436 107.784 626.703 107.817C626.97 107.849 627.198 107.865 627.387 107.865C628.064 107.865 628.646 107.605 629.135 107.084C629.63 106.557 629.877 105.877 629.877 105.043C629.877 104.47 629.76 103.94 629.525 103.451C629.291 102.957 628.959 102.589 628.529 102.348C628.1 102.101 627.611 101.977 627.064 101.977C626.732 101.977 626.306 102.039 625.785 102.162V107.67ZM651.431 100.883C653.15 100.883 654.637 101.537 655.894 102.846C657.157 104.148 657.788 105.776 657.788 107.729C657.788 109.74 657.154 111.41 655.884 112.739C654.614 114.067 653.078 114.731 651.275 114.731C649.452 114.731 647.918 114.083 646.675 112.787C645.438 111.492 644.82 109.815 644.82 107.758C644.82 105.655 645.536 103.94 646.968 102.612C648.211 101.459 649.699 100.883 651.431 100.883ZM651.245 101.596C650.06 101.596 649.11 102.035 648.394 102.914C647.502 104.008 647.056 105.61 647.056 107.719C647.056 109.88 647.518 111.544 648.443 112.709C649.152 113.595 650.09 114.037 651.255 114.037C652.499 114.037 653.524 113.552 654.331 112.582C655.145 111.612 655.552 110.082 655.552 107.992C655.552 105.727 655.106 104.037 654.214 102.924C653.498 102.039 652.508 101.596 651.245 101.596ZM676.041 114.067V114.428H670.368V114.067H670.836C671.383 114.067 671.78 113.907 672.028 113.588C672.184 113.38 672.262 112.878 672.262 112.084V103.53C672.262 102.859 672.22 102.416 672.135 102.201C672.07 102.039 671.937 101.899 671.735 101.781C671.448 101.625 671.149 101.547 670.836 101.547H670.368V101.186H676.041V101.547H675.563C675.023 101.547 674.629 101.707 674.381 102.026C674.218 102.234 674.137 102.735 674.137 103.53V112.084C674.137 112.755 674.179 113.198 674.264 113.412C674.329 113.575 674.466 113.715 674.674 113.832C674.954 113.989 675.25 114.067 675.563 114.067H676.041ZM687.566 101.186H691.16L699.255 111.117V103.481C699.255 102.667 699.164 102.159 698.982 101.957C698.741 101.684 698.36 101.547 697.839 101.547H697.38V101.186H701.99V101.547H701.521C700.961 101.547 700.564 101.716 700.33 102.055C700.186 102.263 700.115 102.739 700.115 103.481V114.643H699.763L691.033 103.979V112.133C691.033 112.947 691.121 113.455 691.296 113.656C691.544 113.93 691.925 114.067 692.439 114.067H692.908V114.428H688.298V114.067H688.757C689.324 114.067 689.724 113.897 689.959 113.559C690.102 113.351 690.173 112.875 690.173 112.133V102.924C689.789 102.475 689.496 102.179 689.295 102.035C689.099 101.892 688.81 101.759 688.425 101.635C688.237 101.576 687.95 101.547 687.566 101.547V101.186ZM725.155 101.186L725.302 104.291H724.93C724.859 103.744 724.761 103.354 724.637 103.119C724.436 102.742 724.165 102.465 723.827 102.289C723.495 102.107 723.055 102.016 722.509 102.016H720.643V112.133C720.643 112.947 720.731 113.455 720.907 113.656C721.154 113.93 721.535 114.067 722.05 114.067H722.509V114.428H716.893V114.067H717.362C717.922 114.067 718.319 113.897 718.554 113.559C718.697 113.351 718.768 112.875 718.768 112.133V102.016H717.177C716.558 102.016 716.119 102.061 715.858 102.153C715.52 102.276 715.23 102.514 714.989 102.865C714.748 103.217 714.605 103.692 714.559 104.291H714.188L714.345 101.186H725.155ZM746.279 100.883V105.463H745.918C745.801 104.584 745.589 103.884 745.283 103.364C744.984 102.843 744.554 102.429 743.994 102.123C743.434 101.817 742.855 101.664 742.256 101.664C741.579 101.664 741.019 101.873 740.576 102.289C740.133 102.699 739.912 103.168 739.912 103.696C739.912 104.099 740.052 104.467 740.332 104.799C740.736 105.287 741.696 105.938 743.213 106.752C744.45 107.416 745.293 107.927 745.742 108.285C746.198 108.637 746.546 109.054 746.787 109.535C747.035 110.017 747.158 110.522 747.158 111.049C747.158 112.052 746.768 112.918 745.986 113.647C745.212 114.369 744.212 114.731 742.988 114.731C742.604 114.731 742.243 114.701 741.904 114.643C741.702 114.61 741.283 114.493 740.645 114.291C740.013 114.083 739.613 113.979 739.443 113.979C739.281 113.979 739.15 114.028 739.053 114.125C738.962 114.223 738.893 114.425 738.848 114.731H738.486V110.19H738.848C739.017 111.14 739.245 111.853 739.531 112.328C739.818 112.797 740.254 113.188 740.84 113.5C741.432 113.813 742.08 113.969 742.783 113.969C743.597 113.969 744.238 113.754 744.707 113.324C745.182 112.895 745.42 112.387 745.42 111.801C745.42 111.476 745.329 111.147 745.146 110.815C744.971 110.483 744.694 110.173 744.316 109.887C744.062 109.692 743.369 109.278 742.236 108.647C741.104 108.009 740.296 107.501 739.814 107.123C739.339 106.746 738.978 106.329 738.73 105.873C738.483 105.418 738.359 104.916 738.359 104.369C738.359 103.419 738.724 102.602 739.453 101.918C740.182 101.228 741.11 100.883 742.236 100.883C742.939 100.883 743.685 101.056 744.473 101.401C744.837 101.563 745.094 101.645 745.244 101.645C745.413 101.645 745.55 101.596 745.654 101.498C745.765 101.394 745.853 101.189 745.918 100.883H746.279ZM628.998 123.883C630.717 123.883 632.204 124.537 633.461 125.846C634.724 127.148 635.355 128.776 635.355 130.729C635.355 132.74 634.721 134.41 633.451 135.739C632.182 137.067 630.645 137.731 628.842 137.731C627.019 137.731 625.486 137.083 624.242 135.787C623.005 134.492 622.387 132.815 622.387 130.758C622.387 128.655 623.103 126.94 624.535 125.612C625.779 124.459 627.266 123.883 628.998 123.883ZM628.812 124.596C627.628 124.596 626.677 125.035 625.961 125.914C625.069 127.008 624.623 128.61 624.623 130.719C624.623 132.88 625.085 134.544 626.01 135.709C626.719 136.595 627.657 137.037 628.822 137.037C630.066 137.037 631.091 136.552 631.898 135.582C632.712 134.612 633.119 133.082 633.119 130.992C633.119 128.727 632.673 127.037 631.781 125.924C631.065 125.039 630.076 124.596 628.812 124.596ZM647.173 124.186H650.767L658.862 134.117V126.481C658.862 125.667 658.771 125.159 658.589 124.957C658.348 124.684 657.967 124.547 657.446 124.547H656.987V124.186H661.597V124.547H661.128C660.568 124.547 660.171 124.716 659.937 125.055C659.793 125.263 659.722 125.739 659.722 126.481V137.643H659.37L650.64 126.979V135.133C650.64 135.947 650.728 136.455 650.904 136.656C651.151 136.93 651.532 137.067 652.046 137.067H652.515V137.428H647.905V137.067H648.364C648.931 137.067 649.331 136.897 649.566 136.559C649.709 136.351 649.78 135.875 649.78 135.133V125.924C649.396 125.475 649.103 125.179 648.902 125.035C648.706 124.892 648.417 124.759 648.032 124.635C647.844 124.576 647.557 124.547 647.173 124.547V124.186ZM677.37 124.908V130.143H680.28C681.035 130.143 681.539 130.029 681.793 129.801C682.132 129.502 682.321 128.974 682.36 128.219H682.721V132.828H682.36C682.269 132.184 682.177 131.77 682.086 131.588C681.969 131.36 681.777 131.181 681.51 131.051C681.243 130.921 680.833 130.856 680.28 130.856H677.37V135.221C677.37 135.807 677.396 136.165 677.448 136.295C677.5 136.419 677.591 136.52 677.721 136.598C677.851 136.67 678.099 136.705 678.463 136.705H680.709C681.458 136.705 682.002 136.653 682.34 136.549C682.679 136.445 683.004 136.24 683.317 135.934C683.72 135.53 684.134 134.921 684.557 134.108H684.948L683.805 137.428H673.6V137.067H674.069C674.381 137.067 674.677 136.992 674.957 136.842C675.166 136.738 675.306 136.582 675.377 136.373C675.455 136.165 675.495 135.739 675.495 135.094V126.49C675.495 125.651 675.41 125.133 675.241 124.938C675.006 124.677 674.616 124.547 674.069 124.547H673.6V124.186H683.805L683.952 127.086H683.571C683.434 126.39 683.281 125.911 683.112 125.651C682.949 125.39 682.705 125.192 682.379 125.055C682.119 124.957 681.66 124.908 681.002 124.908H677.37Z" fill="#030211"/>
<path d="M569.124 109.193L587.107 96.5028L605.09 109.193L607.088 131.111L587.107 140.34L567.126 131.111L569.124 109.193Z" stroke="#030211"/>
<path d="M572.488 111.136L587.107 100.819L601.727 111.136L603.351 128.955L587.107 136.457L570.863 128.955L572.488 111.136Z" stroke="#030211"/>
<path d="M575.802 113.047L587.108 105.069L598.413 113.047L599.67 126.827L587.108 132.629L574.546 126.827L575.802 113.047Z" stroke="#030211"/>
<path d="M579.477 115.17L587.108 109.786L594.738 115.17L595.585 124.47L587.108 128.386L578.63 124.47L579.477 115.17Z" stroke="#030211"/>
<rect x="690.288" y="124.323" width="57.5341" height="2.17102" fill="#030211"/>
<rect x="690.288" y="129.389" width="57.5341" height="2.17102" fill="#030211"/>
<rect x="690.288" y="134.576" width="57.5341" height="2.17102" fill="#030211"/>
<path d="M881.523 108.087C881.523 106.433 881.986 105.047 882.91 103.927C883.835 102.807 885.046 102.247 886.543 102.247C888.053 102.247 889.264 102.813 890.176 103.946C891.1 105.066 891.562 106.446 891.562 108.087C891.562 109.715 891.1 111.095 890.176 112.228C889.264 113.347 888.053 113.907 886.543 113.907C885.046 113.907 883.835 113.347 882.91 112.228C881.986 111.108 881.523 109.728 881.523 108.087ZM882.578 108.067C882.578 109.343 882.93 110.476 883.633 111.466C884.349 112.442 885.319 112.931 886.543 112.931C887.767 112.931 888.73 112.449 889.434 111.485C890.15 110.509 890.508 109.369 890.508 108.067C890.508 106.752 890.15 105.619 889.434 104.669C888.717 103.705 887.754 103.224 886.543 103.224C885.293 103.224 884.316 103.718 883.613 104.708C882.923 105.685 882.578 106.804 882.578 108.067ZM904.171 102.579H908.546V103.497H906.554V109.005C906.554 110.19 906.678 111.036 906.925 111.544C907.368 112.468 908.24 112.931 909.542 112.931C910.896 112.931 911.782 112.521 912.198 111.7C912.459 111.231 912.589 110.398 912.589 109.2V103.497H910.597V102.579H914.972V103.497H913.566V109.2C913.566 110.737 913.331 111.83 912.862 112.481C912.602 112.846 912.185 113.178 911.612 113.478C911.04 113.764 910.356 113.907 909.562 113.907C908.064 113.907 906.958 113.399 906.241 112.384C905.799 111.746 905.577 110.619 905.577 109.005V103.497H904.171V102.579ZM927.893 102.579H937.268L937.6 107.188L936.662 107.306L936.389 103.497H933.069V112.657H935.432V113.575H929.729V112.657H932.092V103.497H928.772L928.498 107.306L927.561 107.188L927.893 102.579ZM950.58 108.087C950.58 106.433 951.042 105.047 951.966 103.927C952.891 102.807 954.102 102.247 955.599 102.247C957.11 102.247 958.321 102.813 959.232 103.946C960.157 105.066 960.619 106.446 960.619 108.087C960.619 109.715 960.157 111.095 959.232 112.228C958.321 113.347 957.11 113.907 955.599 113.907C954.102 113.907 952.891 113.347 951.966 112.228C951.042 111.108 950.58 109.728 950.58 108.087ZM951.634 108.067C951.634 109.343 951.986 110.476 952.689 111.466C953.405 112.442 954.375 112.931 955.599 112.931C956.823 112.931 957.787 112.449 958.49 111.485C959.206 110.509 959.564 109.369 959.564 108.067C959.564 106.752 959.206 105.619 958.49 104.669C957.774 103.705 956.81 103.224 955.599 103.224C954.349 103.224 953.373 103.718 952.67 104.708C951.979 105.685 951.634 106.804 951.634 108.067ZM974.165 102.579H983.325L983.423 106.095H982.544L982.309 103.497H976.723V107.306H979.887V105.88H980.786V109.63H979.887V108.224H976.723V112.657H979.262V113.575H974.165V112.657H975.747V103.497H974.165V102.579ZM996.949 102.579H1006.32L1006.66 107.188L1005.72 107.306L1005.45 103.497H1002.12V112.657H1004.49V113.575H998.785V112.657H1001.15V103.497H997.828L997.555 107.306L996.617 107.188L996.949 102.579ZM1019.56 102.579H1023.46V103.497H1022V107.442H1027.31V103.497H1025.85V102.579H1029.77V103.497H1028.29V112.657H1029.77V113.575H1025.85V112.657H1027.31V108.36H1022V112.657H1023.46V113.575H1019.56V112.657H1021.02V103.497H1019.56V102.579ZM1042.93 102.579H1052.21L1052.28 106.173H1051.39L1051.19 103.497H1045.56V107.306H1048.73V105.88H1049.63V109.63H1048.73V108.224H1045.56V112.657H1051.39L1051.48 109.981H1052.38V113.575H1042.93V112.657H1044.59V103.497H1042.93V102.579ZM889.707 128.364H890.586C890.469 128.872 890.41 129.341 890.41 129.771C890.41 130.369 890.469 131.144 890.586 132.095L889.707 132.251C889.603 131.483 889.401 130.871 889.102 130.415C888.581 129.621 887.754 129.224 886.621 129.224C885.684 129.224 884.954 129.465 884.434 129.946C883.926 130.428 883.672 130.955 883.672 131.528C883.672 131.945 883.77 132.297 883.965 132.583C884.173 132.869 884.46 133.084 884.824 133.228C885.202 133.358 885.508 133.449 885.742 133.501C885.977 133.54 886.276 133.579 886.641 133.618C887.461 133.709 888.06 133.8 888.438 133.892C888.828 133.97 889.18 134.113 889.492 134.321C890.299 134.868 890.703 135.623 890.703 136.587C890.703 137.642 890.299 138.462 889.492 139.048C888.685 139.621 887.754 139.907 886.699 139.907C885.632 139.907 884.74 139.608 884.023 139.009C883.971 138.957 883.919 138.931 883.867 138.931C883.802 138.931 883.737 138.983 883.672 139.087C883.62 139.243 883.561 139.536 883.496 139.966H882.617C882.734 139.406 882.793 138.826 882.793 138.228C882.793 137.941 882.734 137.251 882.617 136.157H883.496C883.652 136.938 883.874 137.518 884.16 137.896C884.681 138.586 885.482 138.931 886.562 138.931C887.643 138.931 888.424 138.703 888.906 138.247C889.401 137.791 889.648 137.264 889.648 136.665C889.648 136.34 889.583 136.06 889.453 135.825C889.323 135.578 889.167 135.389 888.984 135.259C888.815 135.116 888.587 134.998 888.301 134.907C888.027 134.816 887.799 134.757 887.617 134.731C887.435 134.705 887.207 134.679 886.934 134.653C886.491 134.614 886.133 134.575 885.859 134.536C885.599 134.497 885.234 134.406 884.766 134.263C884.31 134.119 883.945 133.95 883.672 133.755C883.398 133.56 883.151 133.28 882.93 132.915C882.721 132.537 882.617 132.101 882.617 131.606C882.617 130.695 882.988 129.907 883.73 129.243C884.486 128.579 885.41 128.247 886.504 128.247C887.441 128.247 888.249 128.514 888.926 129.048C889.173 129.23 889.323 129.321 889.375 129.321C889.453 129.321 889.505 129.289 889.531 129.224C889.557 129.159 889.603 128.957 889.668 128.618C889.694 128.514 889.707 128.429 889.707 128.364ZM905.909 128.579H910.109L914.23 138.657H915.226V139.575H911.222V138.657H913.214L912.101 135.942H907.003L905.909 138.657H907.902V139.575H903.898V138.657H904.933L908.702 129.497H905.909V128.579ZM911.769 135.083L909.562 129.731L907.355 135.083H911.769ZM927.268 128.579H930.608L935.745 138.755H936.096V129.497H933.909V128.579H938.264V129.497H936.995V139.829H935.256L930.022 129.497H929.69V138.657H931.897V139.575H927.268V138.657H928.791V129.497H927.268V128.579ZM950.404 128.579H955.287C956.263 128.579 957.051 128.67 957.65 128.853C958.249 129.035 958.796 129.432 959.291 130.044C960.098 131.047 960.502 132.323 960.502 133.872C960.502 135.89 959.961 137.414 958.88 138.442C958.086 139.198 956.862 139.575 955.209 139.575H950.404V138.657H951.947V129.497H950.404V128.579ZM955.306 129.497H952.923V138.657H955.209C956.537 138.657 957.513 138.351 958.138 137.739C959.011 136.867 959.447 135.597 959.447 133.931C959.447 132.668 959.141 131.613 958.529 130.767C958.151 130.233 957.728 129.888 957.259 129.731C956.791 129.575 956.14 129.497 955.306 129.497ZM997.379 128.579H1002.71C1003.97 128.579 1004.91 128.853 1005.52 129.399C1006.14 129.946 1006.44 130.617 1006.44 131.411C1006.44 132.492 1005.93 133.299 1004.9 133.833C1006.38 134.276 1007.12 135.187 1007.12 136.567C1007.12 137.101 1006.99 137.59 1006.73 138.032C1006.49 138.475 1006.15 138.807 1005.74 139.028C1005.32 139.25 1004.9 139.399 1004.49 139.478C1004.07 139.543 1003.42 139.575 1002.54 139.575H997.379V138.657H999V129.497H997.379V128.579ZM1002.67 129.497H999.977V133.403H1002.57C1003.17 133.403 1003.68 133.332 1004.1 133.188C1004.51 133.032 1004.81 132.837 1004.98 132.603C1005.15 132.368 1005.26 132.153 1005.33 131.958C1005.39 131.763 1005.43 131.567 1005.43 131.372C1005.43 130.942 1005.31 130.584 1005.07 130.298C1004.85 130.011 1004.55 129.823 1004.18 129.731C1003.8 129.627 1003.51 129.562 1003.3 129.536C1003.1 129.51 1002.89 129.497 1002.67 129.497ZM1002.42 134.321H999.977V138.657H1002.5C1002.82 138.657 1003.08 138.657 1003.26 138.657C1003.44 138.644 1003.69 138.618 1004.02 138.579C1004.36 138.54 1004.62 138.481 1004.82 138.403C1005.03 138.312 1005.24 138.195 1005.46 138.052C1005.69 137.896 1005.85 137.694 1005.95 137.446C1006.06 137.199 1006.11 136.906 1006.11 136.567C1006.11 135.799 1005.78 135.233 1005.11 134.868C1004.45 134.504 1003.55 134.321 1002.42 134.321ZM1020.36 134.087C1020.36 132.433 1020.82 131.047 1021.75 129.927C1022.67 128.807 1023.88 128.247 1025.38 128.247C1026.89 128.247 1028.1 128.813 1029.01 129.946C1029.94 131.066 1030.4 132.446 1030.4 134.087C1030.4 135.715 1029.94 137.095 1029.01 138.228C1028.1 139.347 1026.89 139.907 1025.38 139.907C1023.88 139.907 1022.67 139.347 1021.75 138.228C1020.82 137.108 1020.36 135.728 1020.36 134.087ZM1021.41 134.067C1021.41 135.343 1021.76 136.476 1022.47 137.466C1023.18 138.442 1024.15 138.931 1025.38 138.931C1026.6 138.931 1027.57 138.449 1028.27 137.485C1028.98 136.509 1029.34 135.369 1029.34 134.067C1029.34 132.752 1028.98 131.619 1028.27 130.669C1027.55 129.705 1026.59 129.224 1025.38 129.224C1024.13 129.224 1023.15 129.718 1022.45 130.708C1021.76 131.685 1021.41 132.804 1021.41 134.067ZM1043.55 128.579H1047.34V129.497H1045.74L1048.42 133.071L1051.15 129.497H1049.67V128.579H1053.24V129.497H1052.24L1048.96 133.794L1052.6 138.657H1053.61V139.575H1049.67V138.657H1051.42L1048.42 134.517L1045.27 138.657H1047.34V139.575H1043.18V138.657H1044.18L1047.87 133.794L1044.59 129.497H1043.55V128.579Z" fill="#030211"/>
<rect x="973.909" y="128.788" width="11.0043" height="9.03674" stroke="#030211"/>
<rect x="975.431" y="130.331" width="7.97269" height="5.96338" fill="#030211"/>
<path d="M1191.77 133.075H1201.81C1203.6 133.075 1205.11 132.849 1206.33 132.395C1207.56 131.915 1208.55 131.302 1209.29 130.555C1210.04 129.809 1210.57 128.969 1210.89 128.035C1211.24 127.075 1211.41 126.115 1211.41 125.155C1211.41 123.635 1211.08 122.422 1210.41 121.515C1209.77 120.609 1209 119.915 1208.09 119.435C1207.19 118.955 1206.25 118.635 1205.29 118.475C1204.33 118.315 1203.56 118.222 1202.97 118.195V118.035C1203.91 118.035 1204.79 117.862 1205.61 117.515C1206.44 117.142 1207.16 116.675 1207.77 116.115C1208.41 115.529 1208.92 114.862 1209.29 114.115C1209.67 113.342 1209.85 112.529 1209.85 111.675C1209.85 110.929 1209.69 110.169 1209.37 109.395C1209.05 108.622 1208.56 107.915 1207.89 107.275C1207.25 106.635 1206.41 106.115 1205.37 105.715C1204.36 105.289 1203.16 105.075 1201.77 105.075H1191.77V133.075ZM1195.41 131.315V119.075H1199.81C1201.12 119.075 1202.25 119.249 1203.21 119.595C1204.17 119.942 1204.96 120.409 1205.57 120.995C1206.21 121.582 1206.68 122.262 1206.97 123.035C1207.29 123.809 1207.45 124.622 1207.45 125.475C1207.45 126.409 1207.28 127.235 1206.93 127.955C1206.61 128.675 1206.17 129.289 1205.61 129.795C1205.05 130.302 1204.39 130.689 1203.61 130.955C1202.87 131.195 1202.07 131.315 1201.21 131.315H1195.41ZM1195.41 117.315V106.835H1200.29C1201.33 106.835 1202.21 106.982 1202.93 107.275C1203.68 107.569 1204.28 107.955 1204.73 108.435C1205.21 108.915 1205.56 109.462 1205.77 110.075C1205.99 110.689 1206.09 111.302 1206.09 111.915C1206.09 112.689 1205.93 113.409 1205.61 114.075C1205.32 114.742 1204.89 115.315 1204.33 115.795C1203.8 116.275 1203.17 116.649 1202.45 116.915C1201.76 117.182 1201.01 117.315 1200.21 117.315H1195.41ZM1240.82 105.075V133.075H1244.46V120.715H1246.22C1246.96 120.715 1247.58 120.782 1248.06 120.915C1248.56 121.049 1249.02 121.275 1249.42 121.595C1249.82 121.915 1250.19 122.329 1250.54 122.835C1250.88 123.342 1251.3 123.969 1251.78 124.715L1254.94 129.395C1255.34 130.009 1255.72 130.569 1256.1 131.075C1256.5 131.582 1256.92 132.022 1257.38 132.395C1257.83 132.742 1258.34 133.022 1258.9 133.235C1259.48 133.449 1260.18 133.555 1260.98 133.555C1261.56 133.555 1262.04 133.529 1262.42 133.475C1262.79 133.422 1263.16 133.289 1263.54 133.075V131.595C1263.4 131.622 1263.27 131.649 1263.14 131.675C1263 131.675 1262.87 131.675 1262.74 131.675C1262.18 131.675 1261.68 131.595 1261.26 131.435C1260.83 131.275 1260.43 131.049 1260.06 130.755C1259.68 130.435 1259.32 130.062 1258.98 129.635C1258.63 129.182 1258.27 128.675 1257.9 128.115C1256.78 126.489 1255.91 125.195 1255.3 124.235C1254.68 123.249 1254.19 122.489 1253.82 121.955C1253.47 121.422 1253.18 121.035 1252.94 120.795C1252.72 120.555 1252.46 120.355 1252.14 120.195L1251.74 119.995V119.835C1253.02 119.755 1254.11 119.475 1255.02 118.995C1255.95 118.515 1256.71 117.915 1257.3 117.195C1257.88 116.475 1258.31 115.702 1258.58 114.875C1258.84 114.022 1258.98 113.195 1258.98 112.395C1258.98 111.675 1258.83 110.889 1258.54 110.035C1258.27 109.182 1257.79 108.395 1257.1 107.675C1256.43 106.929 1255.51 106.315 1254.34 105.835C1253.16 105.329 1251.68 105.075 1249.9 105.075H1240.82ZM1244.46 106.835H1248.5C1249.51 106.835 1250.42 106.982 1251.22 107.275C1252.04 107.569 1252.75 107.982 1253.34 108.515C1253.92 109.022 1254.36 109.635 1254.66 110.355C1254.98 111.075 1255.14 111.862 1255.14 112.715C1255.14 113.435 1254.99 114.169 1254.7 114.915C1254.43 115.635 1254.02 116.302 1253.46 116.915C1252.9 117.502 1252.2 117.982 1251.38 118.355C1250.58 118.729 1249.64 118.915 1248.58 118.915H1244.46V106.835ZM1307.69 124.835L1311.53 133.075H1315.41L1302.37 105.075H1300.37L1288.53 133.075H1290.37L1293.89 124.835H1307.69ZM1306.85 123.035H1294.65L1300.41 109.555H1300.57L1306.85 123.035ZM1366.59 105.075V126.475H1366.43L1344.23 104.595H1344.03V133.075H1345.87V111.675H1346.03L1368.23 133.555H1368.43V105.075H1366.59ZM1401.01 133.075V105.075H1410.21C1412.42 105.075 1414.45 105.435 1416.29 106.155C1418.13 106.849 1419.7 107.822 1421.01 109.075C1422.34 110.302 1423.37 111.769 1424.09 113.475C1424.84 115.182 1425.21 117.022 1425.21 118.995C1425.21 121.049 1424.82 122.942 1424.05 124.675C1423.3 126.382 1422.26 127.862 1420.93 129.115C1419.62 130.369 1418.09 131.342 1416.33 132.035C1414.57 132.729 1412.69 133.075 1410.69 133.075H1401.01ZM1404.65 131.315H1409.05C1411.24 131.315 1413.09 130.955 1414.61 130.235C1416.16 129.489 1417.42 128.529 1418.41 127.355C1419.4 126.182 1420.12 124.875 1420.57 123.435C1421.02 121.969 1421.25 120.515 1421.25 119.075C1421.25 117.475 1420.98 115.942 1420.45 114.475C1419.92 112.982 1419.13 111.675 1418.09 110.555C1417.08 109.409 1415.81 108.502 1414.29 107.835C1412.77 107.169 1411.02 106.835 1409.05 106.835H1404.65V131.315Z" fill="#030211"/>
<ellipse cx="1681.71" cy="119.575" rx="123.029" ry="26.3126" fill="#030211"/>
<path d="M1617.32 112.832V114.238H1611.56V118.703H1616.24V120.109H1611.56V126.075H1609.84V112.832H1617.32ZM1636.15 126.208C1634.92 126.208 1633.8 125.923 1632.79 125.353C1631.77 124.771 1630.97 123.966 1630.37 122.94C1629.79 121.902 1629.5 120.736 1629.5 119.444C1629.5 118.152 1629.79 116.993 1630.37 115.967C1630.97 114.929 1631.77 114.124 1632.79 113.554C1633.8 112.972 1634.92 112.68 1636.15 112.68C1637.39 112.68 1638.52 112.972 1639.53 113.554C1640.54 114.124 1641.34 114.922 1641.92 115.948C1642.51 116.974 1642.8 118.14 1642.8 119.444C1642.8 120.749 1642.51 121.914 1641.92 122.94C1641.34 123.966 1640.54 124.771 1639.53 125.353C1638.52 125.923 1637.39 126.208 1636.15 126.208ZM1636.15 124.707C1637.07 124.707 1637.9 124.492 1638.64 124.061C1639.38 123.631 1639.97 123.016 1640.39 122.218C1640.82 121.42 1641.03 120.496 1641.03 119.444C1641.03 118.38 1640.82 117.456 1640.39 116.67C1639.97 115.872 1639.39 115.258 1638.66 114.827C1637.92 114.397 1637.09 114.181 1636.15 114.181C1635.21 114.181 1634.38 114.397 1633.64 114.827C1632.91 115.258 1632.32 115.872 1631.89 116.67C1631.47 117.456 1631.27 118.38 1631.27 119.444C1631.27 120.496 1631.47 121.42 1631.89 122.218C1632.32 123.016 1632.91 123.631 1633.64 124.061C1634.39 124.492 1635.22 124.707 1636.15 124.707ZM1662.79 126.075L1659.63 120.66H1657.54V126.075H1655.82V112.832H1660.09C1661.09 112.832 1661.93 113.003 1662.62 113.345C1663.31 113.687 1663.83 114.15 1664.18 114.732C1664.52 115.315 1664.69 115.98 1664.69 116.727C1664.69 117.639 1664.42 118.444 1663.89 119.14C1663.37 119.837 1662.59 120.299 1661.53 120.527L1664.86 126.075H1662.79ZM1657.54 119.273H1660.09C1661.03 119.273 1661.73 119.045 1662.2 118.589C1662.67 118.121 1662.9 117.5 1662.9 116.727C1662.9 115.942 1662.67 115.334 1662.2 114.903C1661.74 114.473 1661.04 114.257 1660.09 114.257H1657.54V119.273ZM1686.26 112.832V114.238H1682.65V126.075H1680.92V114.238H1677.29V112.832H1686.26ZM1700.82 112.832V121.211C1700.82 122.389 1701.1 123.263 1701.67 123.833C1702.25 124.403 1703.06 124.688 1704.08 124.688C1705.1 124.688 1705.89 124.403 1706.46 123.833C1707.04 123.263 1707.33 122.389 1707.33 121.211V112.832H1709.06V121.192C1709.06 122.294 1708.84 123.225 1708.4 123.985C1707.95 124.733 1707.35 125.29 1706.59 125.657C1705.84 126.025 1705 126.208 1704.06 126.208C1703.13 126.208 1702.28 126.025 1701.52 125.657C1700.77 125.29 1700.18 124.733 1699.73 123.985C1699.3 123.225 1699.09 122.294 1699.09 121.192V112.832H1700.82ZM1733.09 126.075H1731.36L1724.41 115.53V126.075H1722.68V112.813H1724.41L1731.36 123.339V112.813H1733.09V126.075ZM1748.5 114.238V118.665H1753.33V120.09H1748.5V124.65H1753.9V126.075H1746.78V112.813H1753.9V114.238H1748.5Z" fill="white"/>
</g>
<line x1="1507.32" y1="0.5" x2="307.326" y2="0.5" stroke="white" stroke-dasharray="2 2"/>
</svg>
