<svg width="562" height="199" viewBox="0 0 562 199" fill="none" xmlns="http://www.w3.org/2000/svg">
<g filter="url(#filter0_b_5_4113)">
<rect width="562" height="199" rx="29" fill="white" fill-opacity="0.85"/>
<rect x="60" y="48" width="144" height="24" rx="12" fill="#FFCC4A"/>
<path d="M84.512 63.632C84.5973 63.632 84.672 63.6667 84.736 63.736L85.352 64.4C84.8827 64.944 84.312 65.368 83.64 65.672C82.9733 65.976 82.1653 66.128 81.216 66.128C80.3947 66.128 79.648 65.9867 78.976 65.704C78.304 65.416 77.7307 65.016 77.256 64.504C76.7813 63.9867 76.4133 63.368 76.152 62.648C75.8907 61.928 75.76 61.136 75.76 60.272C75.76 59.408 75.896 58.616 76.168 57.896C76.44 57.176 76.8213 56.5573 77.312 56.04C77.808 55.5227 78.4 55.1227 79.088 54.84C79.776 54.552 80.536 54.408 81.368 54.408C82.184 54.408 82.904 54.5387 83.528 54.8C84.152 55.0613 84.7013 55.416 85.176 55.864L84.664 56.576C84.632 56.6293 84.5893 56.6747 84.536 56.712C84.488 56.744 84.4213 56.76 84.336 56.76C84.24 56.76 84.1227 56.7093 83.984 56.608C83.8453 56.5013 83.664 56.384 83.44 56.256C83.216 56.128 82.936 56.0133 82.6 55.912C82.264 55.8053 81.8507 55.752 81.36 55.752C80.768 55.752 80.2267 55.856 79.736 56.064C79.2453 56.2667 78.8213 56.5627 78.464 56.952C78.112 57.3413 77.8373 57.816 77.64 58.376C77.4427 58.936 77.344 59.568 77.344 60.272C77.344 60.9867 77.4453 61.624 77.648 62.184C77.856 62.744 78.136 63.2187 78.488 63.608C78.8453 63.992 79.264 64.2853 79.744 64.488C80.2293 64.6907 80.752 64.792 81.312 64.792C81.6533 64.792 81.96 64.7733 82.232 64.736C82.5093 64.6933 82.7627 64.6293 82.992 64.544C83.2267 64.4587 83.4427 64.352 83.64 64.224C83.8427 64.0907 84.0427 63.9333 84.24 63.752C84.3307 63.672 84.4213 63.632 84.512 63.632ZM99.8448 60.272C99.8448 61.1307 99.7088 61.92 99.4368 62.64C99.1648 63.3547 98.7808 63.9707 98.2847 64.488C97.7888 65.0053 97.1914 65.408 96.4928 65.696C95.7994 65.9787 95.0314 66.12 94.1887 66.12C93.3461 66.12 92.5781 65.9787 91.8847 65.696C91.1914 65.408 90.5967 65.0053 90.1007 64.488C89.6047 63.9707 89.2207 63.3547 88.9487 62.64C88.6767 61.92 88.5407 61.1307 88.5407 60.272C88.5407 59.4133 88.6767 58.6267 88.9487 57.912C89.2207 57.192 89.6047 56.5733 90.1007 56.056C90.5967 55.5333 91.1914 55.128 91.8847 54.84C92.5781 54.552 93.3461 54.408 94.1887 54.408C95.0314 54.408 95.7994 54.552 96.4928 54.84C97.1914 55.128 97.7888 55.5333 98.2847 56.056C98.7808 56.5733 99.1648 57.192 99.4368 57.912C99.7088 58.6267 99.8448 59.4133 99.8448 60.272ZM98.2528 60.272C98.2528 59.568 98.1568 58.936 97.9648 58.376C97.7728 57.816 97.5008 57.344 97.1488 56.96C96.7968 56.5707 96.3701 56.272 95.8687 56.064C95.3674 55.856 94.8074 55.752 94.1887 55.752C93.5754 55.752 93.0181 55.856 92.5167 56.064C92.0154 56.272 91.5861 56.5707 91.2287 56.96C90.8767 57.344 90.6047 57.816 90.4127 58.376C90.2207 58.936 90.1247 59.568 90.1247 60.272C90.1247 60.976 90.2207 61.608 90.4127 62.168C90.6047 62.7227 90.8767 63.1947 91.2287 63.584C91.5861 63.968 92.0154 64.264 92.5167 64.472C93.0181 64.6747 93.5754 64.776 94.1887 64.776C94.8074 64.776 95.3674 64.6747 95.8687 64.472C96.3701 64.264 96.7968 63.968 97.1488 63.584C97.5008 63.1947 97.7728 62.7227 97.9648 62.168C98.1568 61.608 98.2528 60.976 98.2528 60.272ZM113.673 54.536V66H112.897C112.775 66 112.671 65.9787 112.585 65.936C112.505 65.8933 112.425 65.8213 112.345 65.72L105.713 57.08C105.724 57.2133 105.732 57.344 105.737 57.472C105.743 57.6 105.745 57.72 105.745 57.832V66H104.385V54.536H105.185C105.255 54.536 105.313 54.5413 105.361 54.552C105.409 54.5573 105.452 54.5707 105.489 54.592C105.527 54.608 105.564 54.6347 105.601 54.672C105.639 54.704 105.679 54.7467 105.721 54.8L112.353 63.432C112.343 63.2933 112.332 63.16 112.321 63.032C112.316 62.8987 112.313 62.7733 112.313 62.656V54.536H113.673ZM126.676 55.84H122.964V66H121.42V55.84H117.7V54.536H126.676V55.84ZM135.66 61.744L133.86 57.08C133.807 56.9413 133.751 56.7813 133.692 56.6C133.633 56.4133 133.577 56.216 133.524 56.008C133.412 56.44 133.297 56.8 133.18 57.088L131.38 61.744H135.66ZM138.892 66H137.692C137.553 66 137.441 65.9653 137.356 65.896C137.271 65.8267 137.207 65.7387 137.164 65.632L136.092 62.864H130.948L129.876 65.632C129.844 65.728 129.783 65.8133 129.692 65.888C129.601 65.9627 129.489 66 129.356 66H128.156L132.74 54.536H134.308L138.892 66ZM150.471 63.632C150.557 63.632 150.631 63.6667 150.695 63.736L151.311 64.4C150.842 64.944 150.271 65.368 149.599 65.672C148.933 65.976 148.125 66.128 147.175 66.128C146.354 66.128 145.607 65.9867 144.935 65.704C144.263 65.416 143.69 65.016 143.215 64.504C142.741 63.9867 142.373 63.368 142.111 62.648C141.85 61.928 141.719 61.136 141.719 60.272C141.719 59.408 141.855 58.616 142.127 57.896C142.399 57.176 142.781 56.5573 143.271 56.04C143.767 55.5227 144.359 55.1227 145.047 54.84C145.735 54.552 146.495 54.408 147.327 54.408C148.143 54.408 148.863 54.5387 149.487 54.8C150.111 55.0613 150.661 55.416 151.135 55.864L150.623 56.576C150.591 56.6293 150.549 56.6747 150.495 56.712C150.447 56.744 150.381 56.76 150.295 56.76C150.199 56.76 150.082 56.7093 149.943 56.608C149.805 56.5013 149.623 56.384 149.399 56.256C149.175 56.128 148.895 56.0133 148.559 55.912C148.223 55.8053 147.81 55.752 147.319 55.752C146.727 55.752 146.186 55.856 145.695 56.064C145.205 56.2667 144.781 56.5627 144.423 56.952C144.071 57.3413 143.797 57.816 143.599 58.376C143.402 58.936 143.303 59.568 143.303 60.272C143.303 60.9867 143.405 61.624 143.607 62.184C143.815 62.744 144.095 63.2187 144.447 63.608C144.805 63.992 145.223 64.2853 145.703 64.488C146.189 64.6907 146.711 64.792 147.271 64.792C147.613 64.792 147.919 64.7733 148.191 64.736C148.469 64.6933 148.722 64.6293 148.951 64.544C149.186 64.4587 149.402 64.352 149.599 64.224C149.802 64.0907 150.002 63.9333 150.199 63.752C150.29 63.672 150.381 63.632 150.471 63.632ZM163.183 55.84H159.471V66H157.927V55.84H154.207V54.536H163.183V55.84ZM171.628 64.768C172.103 64.768 172.527 64.688 172.9 64.528C173.273 64.368 173.588 64.144 173.844 63.856C174.105 63.568 174.303 63.224 174.436 62.824C174.575 62.424 174.644 61.984 174.644 61.504V54.536H176.188V61.504C176.188 62.1653 176.081 62.7787 175.868 63.344C175.66 63.9093 175.359 64.4 174.964 64.816C174.575 65.2267 174.097 65.5493 173.532 65.784C172.967 66.0187 172.332 66.136 171.628 66.136C170.924 66.136 170.289 66.0187 169.724 65.784C169.159 65.5493 168.679 65.2267 168.284 64.816C167.889 64.4 167.585 63.9093 167.372 63.344C167.164 62.7787 167.06 62.1653 167.06 61.504V54.536H168.604V61.496C168.604 61.976 168.671 62.416 168.804 62.816C168.943 63.216 169.14 63.56 169.396 63.848C169.657 64.136 169.975 64.3627 170.348 64.528C170.727 64.688 171.153 64.768 171.628 64.768ZM187.154 56.328C187.106 56.408 187.052 56.4693 186.994 56.512C186.94 56.5493 186.874 56.568 186.794 56.568C186.703 56.568 186.596 56.5227 186.474 56.432C186.351 56.3413 186.196 56.2427 186.01 56.136C185.828 56.024 185.607 55.9227 185.346 55.832C185.09 55.7413 184.778 55.696 184.41 55.696C184.063 55.696 183.756 55.744 183.49 55.84C183.228 55.9307 183.007 56.056 182.826 56.216C182.65 56.376 182.516 56.5653 182.426 56.784C182.335 56.9973 182.29 57.2293 182.29 57.48C182.29 57.8 182.367 58.0667 182.522 58.28C182.682 58.488 182.89 58.6667 183.146 58.816C183.407 58.9653 183.7 59.096 184.026 59.208C184.356 59.3147 184.692 59.4267 185.034 59.544C185.38 59.6613 185.716 59.7947 186.042 59.944C186.372 60.088 186.666 60.272 186.922 60.496C187.183 60.72 187.391 60.9947 187.546 61.32C187.706 61.6453 187.786 62.0453 187.786 62.52C187.786 63.0213 187.7 63.4933 187.53 63.936C187.359 64.3733 187.108 64.7547 186.778 65.08C186.452 65.4053 186.05 65.6613 185.57 65.848C185.095 66.0347 184.554 66.128 183.946 66.128C183.199 66.128 182.522 65.9947 181.914 65.728C181.306 65.456 180.786 65.0907 180.354 64.632L180.802 63.896C180.844 63.8373 180.895 63.7893 180.954 63.752C181.018 63.7093 181.087 63.688 181.162 63.688C181.231 63.688 181.308 63.7173 181.394 63.776C181.484 63.8293 181.586 63.8987 181.698 63.984C181.81 64.0693 181.938 64.1627 182.082 64.264C182.226 64.3653 182.388 64.4587 182.57 64.544C182.756 64.6293 182.967 64.7013 183.202 64.76C183.436 64.8133 183.7 64.84 183.994 64.84C184.362 64.84 184.69 64.7893 184.978 64.688C185.266 64.5867 185.508 64.4453 185.706 64.264C185.908 64.0773 186.063 63.856 186.17 63.6C186.276 63.344 186.33 63.0587 186.33 62.744C186.33 62.3973 186.25 62.1147 186.09 61.896C185.935 61.672 185.73 61.4853 185.474 61.336C185.218 61.1867 184.924 61.0613 184.594 60.96C184.263 60.8533 183.927 60.7467 183.586 60.64C183.244 60.528 182.908 60.4 182.578 60.256C182.247 60.112 181.954 59.9253 181.698 59.696C181.442 59.4667 181.234 59.1813 181.074 58.84C180.919 58.4933 180.842 58.0667 180.842 57.56C180.842 57.1547 180.919 56.7627 181.074 56.384C181.234 56.0053 181.463 55.6693 181.762 55.376C182.066 55.0827 182.436 54.848 182.874 54.672C183.316 54.496 183.823 54.408 184.394 54.408C185.034 54.408 185.615 54.5093 186.138 54.712C186.666 54.9147 187.13 55.208 187.53 55.592L187.154 56.328Z" fill="#181818"/>
<path d="M63.85 140V105H85.4V111.2H70.25V118.65H81.95V124.85H70.25V140H63.85ZM99.4617 140.5C96.4451 140.5 93.9284 139.9 91.9117 138.7C89.9117 137.483 88.4117 135.883 87.4117 133.9C86.4117 131.9 85.9117 129.717 85.9117 127.35C85.9117 125.067 86.3784 122.958 87.3117 121.025C88.2617 119.092 89.6451 117.542 91.4617 116.375C93.2784 115.192 95.4951 114.6 98.1117 114.6C100.512 114.6 102.512 115.092 104.112 116.075C105.712 117.058 106.912 118.375 107.712 120.025C108.512 121.658 108.912 123.467 108.912 125.45C108.912 126 108.878 126.558 108.812 127.125C108.745 127.675 108.645 128.25 108.512 128.85H92.3617C92.5951 130.4 93.0784 131.658 93.8117 132.625C94.5617 133.575 95.4701 134.275 96.5367 134.725C97.6201 135.175 98.7784 135.4 100.012 135.4C101.462 135.4 102.812 135.217 104.062 134.85C105.312 134.467 106.462 133.967 107.512 133.35L107.812 138.6C106.862 139.1 105.678 139.542 104.262 139.925C102.845 140.308 101.245 140.5 99.4617 140.5ZM92.5117 124.65H102.612C102.612 123.9 102.47 123.15 102.187 122.4C101.903 121.633 101.428 120.992 100.762 120.475C100.112 119.958 99.2284 119.7 98.1117 119.7C96.5117 119.7 95.2534 120.167 94.3367 121.1C93.4201 122.033 92.8117 123.217 92.5117 124.65ZM125.194 140.5C122.177 140.5 119.661 139.9 117.644 138.7C115.644 137.483 114.144 135.883 113.144 133.9C112.144 131.9 111.644 129.717 111.644 127.35C111.644 125.067 112.111 122.958 113.044 121.025C113.994 119.092 115.377 117.542 117.194 116.375C119.011 115.192 121.227 114.6 123.844 114.6C126.244 114.6 128.244 115.092 129.844 116.075C131.444 117.058 132.644 118.375 133.444 120.025C134.244 121.658 134.644 123.467 134.644 125.45C134.644 126 134.611 126.558 134.544 127.125C134.477 127.675 134.377 128.25 134.244 128.85H118.094C118.327 130.4 118.811 131.658 119.544 132.625C120.294 133.575 121.202 134.275 122.269 134.725C123.352 135.175 124.511 135.4 125.744 135.4C127.194 135.4 128.544 135.217 129.794 134.85C131.044 134.467 132.194 133.967 133.244 133.35L133.544 138.6C132.594 139.1 131.411 139.542 129.994 139.925C128.577 140.308 126.977 140.5 125.194 140.5ZM118.244 124.65H128.344C128.344 123.9 128.202 123.15 127.919 122.4C127.636 121.633 127.161 120.992 126.494 120.475C125.844 119.958 124.961 119.7 123.844 119.7C122.244 119.7 120.986 120.167 120.069 121.1C119.152 122.033 118.544 123.217 118.244 124.65ZM145.277 140.5C143.793 140.5 142.577 140.208 141.627 139.625C140.693 139.025 140.002 138.233 139.552 137.25C139.102 136.25 138.877 135.15 138.877 133.95V102.5H145.077V131.4C145.077 132.733 145.152 133.683 145.302 134.25C145.468 134.8 145.768 135.133 146.202 135.25C146.635 135.35 147.26 135.4 148.077 135.4L147.527 140.5H145.277ZM164.192 140V105H185.742V111.2H170.592V118.65H182.292V124.85H170.592V140H164.192ZM187.705 140V115H193.505L193.655 117.65C194.288 116.95 195.18 116.25 196.33 115.55C197.48 114.85 198.738 114.5 200.105 114.5C200.505 114.5 200.871 114.533 201.205 114.6L200.755 120.7C200.388 120.6 200.021 120.533 199.655 120.5C199.305 120.467 198.955 120.45 198.605 120.45C197.555 120.45 196.596 120.692 195.73 121.175C194.863 121.658 194.255 122.25 193.905 122.95V140H187.705ZM215.819 140.5C212.802 140.5 210.286 139.9 208.269 138.7C206.269 137.483 204.769 135.883 203.769 133.9C202.769 131.9 202.269 129.717 202.269 127.35C202.269 125.067 202.736 122.958 203.669 121.025C204.619 119.092 206.002 117.542 207.819 116.375C209.636 115.192 211.852 114.6 214.469 114.6C216.869 114.6 218.869 115.092 220.469 116.075C222.069 117.058 223.269 118.375 224.069 120.025C224.869 121.658 225.269 123.467 225.269 125.45C225.269 126 225.236 126.558 225.169 127.125C225.102 127.675 225.002 128.25 224.869 128.85H208.719C208.952 130.4 209.436 131.658 210.169 132.625C210.919 133.575 211.827 134.275 212.894 134.725C213.977 135.175 215.136 135.4 216.369 135.4C217.819 135.4 219.169 135.217 220.419 134.85C221.669 134.467 222.819 133.967 223.869 133.35L224.169 138.6C223.219 139.1 222.036 139.542 220.619 139.925C219.202 140.308 217.602 140.5 215.819 140.5ZM208.869 124.65H218.969C218.969 123.9 218.827 123.15 218.544 122.4C218.261 121.633 217.786 120.992 217.119 120.475C216.469 119.958 215.586 119.7 214.469 119.7C212.869 119.7 211.611 120.167 210.694 121.1C209.777 122.033 209.169 123.217 208.869 124.65ZM241.552 140.5C238.535 140.5 236.018 139.9 234.002 138.7C232.002 137.483 230.502 135.883 229.502 133.9C228.502 131.9 228.002 129.717 228.002 127.35C228.002 125.067 228.468 122.958 229.402 121.025C230.352 119.092 231.735 117.542 233.552 116.375C235.368 115.192 237.585 114.6 240.202 114.6C242.602 114.6 244.602 115.092 246.202 116.075C247.802 117.058 249.002 118.375 249.802 120.025C250.602 121.658 251.002 123.467 251.002 125.45C251.002 126 250.968 126.558 250.902 127.125C250.835 127.675 250.735 128.25 250.602 128.85H234.452C234.685 130.4 235.168 131.658 235.902 132.625C236.652 133.575 237.56 134.275 238.627 134.725C239.71 135.175 240.868 135.4 242.102 135.4C243.552 135.4 244.902 135.217 246.152 134.85C247.402 134.467 248.552 133.967 249.602 133.35L249.902 138.6C248.952 139.1 247.768 139.542 246.352 139.925C244.935 140.308 243.335 140.5 241.552 140.5ZM234.602 124.65H244.702C244.702 123.9 244.56 123.15 244.277 122.4C243.993 121.633 243.518 120.992 242.852 120.475C242.202 119.958 241.318 119.7 240.202 119.7C238.602 119.7 237.343 120.167 236.427 121.1C235.51 122.033 234.902 123.217 234.602 124.65ZM274.214 140V111.2H264.314V105H290.514V111.2H280.614V140H274.214ZM301.838 140.5C299.121 140.5 296.805 139.908 294.888 138.725C292.971 137.542 291.505 135.967 290.488 134C289.488 132.033 288.988 129.883 288.988 127.55C288.988 125.2 289.488 123.033 290.488 121.05C291.505 119.067 292.971 117.483 294.888 116.3C296.805 115.1 299.121 114.5 301.838 114.5C304.555 114.5 306.871 115.1 308.788 116.3C310.705 117.483 312.163 119.067 313.163 121.05C314.18 123.033 314.688 125.2 314.688 127.55C314.688 129.883 314.18 132.033 313.163 134C312.163 135.967 310.705 137.542 308.788 138.725C306.871 139.908 304.555 140.5 301.838 140.5ZM301.838 135.4C303.921 135.4 305.521 134.675 306.638 133.225C307.771 131.758 308.338 129.867 308.338 127.55C308.338 125.2 307.771 123.292 306.638 121.825C305.521 120.342 303.921 119.6 301.838 119.6C299.771 119.6 298.171 120.342 297.038 121.825C295.905 123.292 295.338 125.2 295.338 127.55C295.338 129.867 295.905 131.758 297.038 133.225C298.171 134.675 299.771 135.4 301.838 135.4ZM331.184 140V105H343.984C346.401 105 348.509 105.383 350.309 106.15C352.126 106.917 353.534 108.083 354.534 109.65C355.534 111.217 356.034 113.2 356.034 115.6C356.034 118.167 355.484 120.208 354.384 121.725C353.301 123.225 351.867 124.417 350.084 125.3L357.984 140H350.834L344.084 127C344.034 127 343.992 127 343.959 127C343.926 127 343.884 127 343.834 127H337.584V140H331.184ZM337.584 121.65H342.284C344.917 121.65 346.751 121.117 347.784 120.05C348.817 118.967 349.334 117.6 349.334 115.95C349.334 114.2 348.826 112.833 347.809 111.85C346.792 110.85 345.034 110.35 342.534 110.35H337.584V121.65ZM372.655 140.5C369.638 140.5 367.122 139.9 365.105 138.7C363.105 137.483 361.605 135.883 360.605 133.9C359.605 131.9 359.105 129.717 359.105 127.35C359.105 125.067 359.572 122.958 360.505 121.025C361.455 119.092 362.838 117.542 364.655 116.375C366.472 115.192 368.688 114.6 371.305 114.6C373.705 114.6 375.705 115.092 377.305 116.075C378.905 117.058 380.105 118.375 380.905 120.025C381.705 121.658 382.105 123.467 382.105 125.45C382.105 126 382.072 126.558 382.005 127.125C381.938 127.675 381.838 128.25 381.705 128.85H365.555C365.788 130.4 366.272 131.658 367.005 132.625C367.755 133.575 368.663 134.275 369.73 134.725C370.813 135.175 371.972 135.4 373.205 135.4C374.655 135.4 376.005 135.217 377.255 134.85C378.505 134.467 379.655 133.967 380.705 133.35L381.005 138.6C380.055 139.1 378.872 139.542 377.455 139.925C376.038 140.308 374.438 140.5 372.655 140.5ZM365.705 124.65H375.805C375.805 123.9 375.663 123.15 375.38 122.4C375.097 121.633 374.622 120.992 373.955 120.475C373.305 119.958 372.422 119.7 371.305 119.7C369.705 119.7 368.447 120.167 367.53 121.1C366.613 122.033 366.005 123.217 365.705 124.65ZM391.738 140.5C390.404 140.5 389.188 140.208 388.088 139.625C386.988 139.025 386.113 138.167 385.463 137.05C384.813 135.933 384.488 134.583 384.488 133C384.488 131.583 384.813 130.375 385.463 129.375C386.129 128.358 386.996 127.517 388.063 126.85C389.146 126.167 390.313 125.633 391.563 125.25C392.829 124.85 394.071 124.558 395.288 124.375C396.521 124.192 397.604 124.083 398.538 124.05C398.471 122.617 398.104 121.575 397.438 120.925C396.771 120.275 395.638 119.95 394.038 119.95C392.921 119.95 391.829 120.108 390.763 120.425C389.713 120.725 388.521 121.2 387.188 121.85L386.638 116.8C388.138 116.067 389.638 115.517 391.138 115.15C392.654 114.783 394.188 114.6 395.738 114.6C397.604 114.6 399.213 114.933 400.563 115.6C401.913 116.267 402.954 117.342 403.688 118.825C404.421 120.292 404.788 122.233 404.788 124.65V131.4C404.788 132.65 404.846 133.558 404.963 134.125C405.079 134.675 405.296 135.025 405.613 135.175C405.929 135.325 406.388 135.4 406.988 135.4H407.788L407.238 140.5H404.988C404.054 140.5 403.221 140.375 402.488 140.125C401.771 139.892 401.154 139.558 400.638 139.125C400.121 138.692 399.704 138.183 399.388 137.6C398.571 138.517 397.463 139.233 396.062 139.75C394.679 140.25 393.238 140.5 391.738 140.5ZM394.338 135.75C394.888 135.75 395.571 135.608 396.388 135.325C397.204 135.025 397.938 134.567 398.588 133.95V128.25C397.421 128.3 396.254 128.492 395.088 128.825C393.921 129.158 392.946 129.65 392.163 130.3C391.379 130.95 390.988 131.767 390.988 132.75C390.988 133.767 391.254 134.525 391.788 135.025C392.321 135.508 393.171 135.75 394.338 135.75ZM422.84 140.5C419.973 140.5 417.565 139.917 415.615 138.75C413.682 137.567 412.215 136 411.215 134.05C410.232 132.083 409.74 129.917 409.74 127.55C409.74 125.167 410.232 122.992 411.215 121.025C412.198 119.042 413.673 117.458 415.64 116.275C417.607 115.092 420.073 114.5 423.04 114.5C424.44 114.5 425.707 114.658 426.84 114.975C427.973 115.275 428.94 115.65 429.74 116.1L429.24 121.1C428.473 120.7 427.607 120.367 426.64 120.1C425.69 119.833 424.69 119.7 423.64 119.7C421.24 119.7 419.382 120.425 418.065 121.875C416.748 123.325 416.09 125.217 416.09 127.55C416.09 129.767 416.765 131.633 418.115 133.15C419.465 134.65 421.29 135.4 423.59 135.4C424.573 135.4 425.54 135.258 426.49 134.975C427.457 134.675 428.39 134.267 429.29 133.75L429.84 139C428.973 139.45 427.923 139.808 426.69 140.075C425.473 140.358 424.19 140.5 422.84 140.5ZM433.944 140V102.5H440.144V118.65L438.744 117.55C439.794 116.817 440.935 116.142 442.169 115.525C443.402 114.908 444.877 114.6 446.594 114.6C448.794 114.6 450.585 115.092 451.969 116.075C453.352 117.042 454.369 118.392 455.019 120.125C455.669 121.842 455.994 123.833 455.994 126.1V140H449.794V126.55C449.794 124.217 449.419 122.492 448.669 121.375C447.919 120.258 446.694 119.7 444.994 119.7C443.544 119.7 442.352 120.042 441.419 120.725C440.502 121.392 439.694 122.3 438.994 123.45L440.144 120.1V140H433.944ZM487.813 140.7C484.53 140.7 481.813 140.05 479.663 138.75C477.53 137.45 475.938 135.625 474.888 133.275C473.838 130.925 473.313 128.167 473.313 125V105H479.713V123.35C479.713 125.017 479.822 126.542 480.038 127.925C480.255 129.292 480.647 130.475 481.213 131.475C481.797 132.458 482.622 133.217 483.688 133.75C484.755 134.283 486.13 134.55 487.813 134.55C489.497 134.55 490.872 134.283 491.938 133.75C493.005 133.217 493.822 132.458 494.388 131.475C494.972 130.475 495.372 129.292 495.588 127.925C495.805 126.542 495.913 125.017 495.913 123.35V105H502.313V125C502.313 128.167 501.788 130.925 500.738 133.275C499.688 135.625 498.088 137.45 495.938 138.75C493.805 140.05 491.097 140.7 487.813 140.7ZM515.068 140.5C513.418 140.5 511.927 140.342 510.593 140.025C509.277 139.708 507.952 139.25 506.618 138.65L507.168 133.35C508.452 134.1 509.71 134.708 510.943 135.175C512.193 135.625 513.502 135.85 514.868 135.85C516.102 135.85 517.043 135.65 517.693 135.25C518.343 134.85 518.668 134.217 518.668 133.35C518.668 132.7 518.493 132.167 518.143 131.75C517.81 131.333 517.302 130.958 516.618 130.625C515.935 130.292 515.085 129.933 514.068 129.55C512.535 128.983 511.227 128.367 510.143 127.7C509.077 127.033 508.26 126.233 507.693 125.3C507.143 124.35 506.868 123.183 506.868 121.8C506.868 120.367 507.243 119.1 507.993 118C508.743 116.9 509.81 116.042 511.193 115.425C512.577 114.808 514.218 114.5 516.118 114.5C517.702 114.5 519.118 114.675 520.368 115.025C521.635 115.375 522.802 115.85 523.868 116.45L523.318 121.75C522.202 120.967 521.077 120.325 519.943 119.825C518.81 119.308 517.568 119.05 516.218 119.05C515.152 119.05 514.327 119.267 513.743 119.7C513.16 120.133 512.868 120.75 512.868 121.55C512.868 122.517 513.277 123.242 514.093 123.725C514.91 124.208 516.218 124.8 518.018 125.5C519.185 125.95 520.193 126.417 521.043 126.9C521.91 127.383 522.627 127.917 523.193 128.5C523.76 129.083 524.177 129.75 524.443 130.5C524.727 131.233 524.868 132.083 524.868 133.05C524.868 134.633 524.485 135.983 523.718 137.1C522.968 138.2 521.86 139.042 520.393 139.625C518.943 140.208 517.168 140.5 515.068 140.5Z" fill="#181818"/>
</g>
<defs>
<filter id="filter0_b_5_4113" x="-11" y="-11" width="584" height="221" filterUnits="userSpaceOnUse" color-interpolation-filters="sRGB">
<feFlood flood-opacity="0" result="BackgroundImageFix"/>
<feGaussianBlur in="BackgroundImageFix" stdDeviation="5.5"/>
<feComposite in2="SourceAlpha" operator="in" result="effect1_backgroundBlur_5_4113"/>
<feBlend mode="normal" in="SourceGraphic" in2="effect1_backgroundBlur_5_4113" result="shape"/>
</filter>
</defs>
</svg>
