<svg width="127" height="26" viewBox="0 0 127 26" fill="none" xmlns="http://www.w3.org/2000/svg">
<rect width="127" height="26" rx="13" fill="#FFCC4A"/>
<path d="M19.848 13.48C20.2907 13.48 20.68 13.4213 21.016 13.304C21.3573 13.1867 21.6427 13.024 21.872 12.816C22.1067 12.6027 22.2827 12.3493 22.4 12.056C22.5173 11.7627 22.576 11.44 22.576 11.088C22.576 10.3573 22.3493 9.78667 21.896 9.376C21.448 8.96533 20.7653 8.76 19.848 8.76H18.008V13.48H19.848ZM19.848 7.536C20.5733 7.536 21.2027 7.62133 21.736 7.792C22.2747 7.95733 22.72 8.19467 23.072 8.504C23.424 8.81333 23.6853 9.18667 23.856 9.624C24.032 10.0613 24.12 10.5493 24.12 11.088C24.12 11.6213 24.0267 12.1093 23.84 12.552C23.6533 12.9947 23.3787 13.376 23.016 13.696C22.6587 14.016 22.2133 14.2667 21.68 14.448C21.152 14.624 20.5413 14.712 19.848 14.712H18.008V19H16.464V7.536H19.848ZM31.5694 13.088C32.0174 13.088 32.412 13.0347 32.7534 12.928C33.1 12.816 33.388 12.6613 33.6174 12.464C33.852 12.2613 34.028 12.0213 34.1454 11.744C34.2627 11.4667 34.3214 11.16 34.3214 10.824C34.3214 10.1413 34.0974 9.62667 33.6494 9.28C33.2014 8.93333 32.5294 8.76 31.6334 8.76H29.9374V13.088H31.5694ZM36.8654 19H35.4894C35.2067 19 34.9987 18.8907 34.8654 18.672L31.8894 14.576C31.7987 14.448 31.7 14.3573 31.5934 14.304C31.492 14.2453 31.332 14.216 31.1134 14.216H29.9374V19H28.3934V7.536H31.6334C32.3587 7.536 32.9854 7.61067 33.5134 7.76C34.0414 7.904 34.476 8.11467 34.8174 8.392C35.164 8.66933 35.42 9.00533 35.5854 9.4C35.7507 9.78933 35.8334 10.2267 35.8334 10.712C35.8334 11.1173 35.7694 11.496 35.6414 11.848C35.5134 12.2 35.3267 12.5173 35.0814 12.8C34.8414 13.0773 34.5454 13.3147 34.1934 13.512C33.8467 13.7093 33.452 13.8587 33.0094 13.96C33.2067 14.072 33.3774 14.2347 33.5214 14.448L36.8654 19ZM51.2273 13.272C51.2273 14.1307 51.0913 14.92 50.8193 15.64C50.5473 16.3547 50.1632 16.9707 49.6672 17.488C49.1713 18.0053 48.5739 18.408 47.8752 18.696C47.1819 18.9787 46.4139 19.12 45.5712 19.12C44.7286 19.12 43.9606 18.9787 43.2672 18.696C42.5739 18.408 41.9792 18.0053 41.4832 17.488C40.9872 16.9707 40.6032 16.3547 40.3312 15.64C40.0592 14.92 39.9232 14.1307 39.9232 13.272C39.9232 12.4133 40.0592 11.6267 40.3312 10.912C40.6032 10.192 40.9872 9.57333 41.4832 9.056C41.9792 8.53333 42.5739 8.128 43.2672 7.84C43.9606 7.552 44.7286 7.408 45.5712 7.408C46.4139 7.408 47.1819 7.552 47.8752 7.84C48.5739 8.128 49.1713 8.53333 49.6672 9.056C50.1632 9.57333 50.5473 10.192 50.8193 10.912C51.0913 11.6267 51.2273 12.4133 51.2273 13.272ZM49.6353 13.272C49.6353 12.568 49.5393 11.936 49.3472 11.376C49.1552 10.816 48.8832 10.344 48.5312 9.96C48.1793 9.57067 47.7526 9.272 47.2512 9.064C46.7499 8.856 46.1899 8.752 45.5712 8.752C44.9579 8.752 44.4006 8.856 43.8992 9.064C43.3979 9.272 42.9686 9.57067 42.6112 9.96C42.2592 10.344 41.9872 10.816 41.7952 11.376C41.6032 11.936 41.5072 12.568 41.5072 13.272C41.5072 13.976 41.6032 14.608 41.7952 15.168C41.9872 15.7227 42.2592 16.1947 42.6112 16.584C42.9686 16.968 43.3979 17.264 43.8992 17.472C44.4006 17.6747 44.9579 17.776 45.5712 17.776C46.1899 17.776 46.7499 17.6747 47.2512 17.472C47.7526 17.264 48.1793 16.968 48.5312 16.584C48.8832 16.1947 49.1552 15.7227 49.3472 15.168C49.5393 14.608 49.6353 13.976 49.6353 13.272ZM63.8157 16.632C63.9011 16.632 63.9757 16.6667 64.0397 16.736L64.6557 17.4C64.1864 17.944 63.6157 18.368 62.9437 18.672C62.2771 18.976 61.4691 19.128 60.5197 19.128C59.6984 19.128 58.9517 18.9867 58.2797 18.704C57.6077 18.416 57.0344 18.016 56.5597 17.504C56.0851 16.9867 55.7171 16.368 55.4557 15.648C55.1944 14.928 55.0637 14.136 55.0637 13.272C55.0637 12.408 55.1997 11.616 55.4717 10.896C55.7437 10.176 56.1251 9.55733 56.6157 9.04C57.1117 8.52267 57.7037 8.12267 58.3917 7.84C59.0797 7.552 59.8397 7.408 60.6717 7.408C61.4877 7.408 62.2077 7.53867 62.8317 7.8C63.4557 8.06133 64.0051 8.416 64.4797 8.864L63.9677 9.576C63.9357 9.62933 63.8931 9.67467 63.8397 9.712C63.7917 9.744 63.7251 9.76 63.6397 9.76C63.5437 9.76 63.4264 9.70933 63.2877 9.608C63.1491 9.50133 62.9677 9.384 62.7437 9.256C62.5197 9.128 62.2397 9.01333 61.9037 8.912C61.5677 8.80533 61.1544 8.752 60.6637 8.752C60.0717 8.752 59.5304 8.856 59.0397 9.064C58.5491 9.26667 58.1251 9.56267 57.7677 9.952C57.4157 10.3413 57.1411 10.816 56.9437 11.376C56.7464 11.936 56.6477 12.568 56.6477 13.272C56.6477 13.9867 56.7491 14.624 56.9517 15.184C57.1597 15.744 57.4397 16.2187 57.7917 16.608C58.1491 16.992 58.5677 17.2853 59.0477 17.488C59.5331 17.6907 60.0557 17.792 60.6157 17.792C60.9571 17.792 61.2637 17.7733 61.5357 17.736C61.8131 17.6933 62.0664 17.6293 62.2957 17.544C62.5304 17.4587 62.7464 17.352 62.9437 17.224C63.1464 17.0907 63.3464 16.9333 63.5437 16.752C63.6344 16.672 63.7251 16.632 63.8157 16.632ZM76.6045 16.632C76.6898 16.632 76.7645 16.6667 76.8285 16.736L77.4445 17.4C76.9752 17.944 76.4045 18.368 75.7325 18.672C75.0658 18.976 74.2578 19.128 73.3085 19.128C72.4872 19.128 71.7405 18.9867 71.0685 18.704C70.3965 18.416 69.8232 18.016 69.3485 17.504C68.8738 16.9867 68.5058 16.368 68.2445 15.648C67.9832 14.928 67.8525 14.136 67.8525 13.272C67.8525 12.408 67.9885 11.616 68.2605 10.896C68.5325 10.176 68.9138 9.55733 69.4045 9.04C69.9005 8.52267 70.4925 8.12267 71.1805 7.84C71.8685 7.552 72.6285 7.408 73.4605 7.408C74.2765 7.408 74.9965 7.53867 75.6205 7.8C76.2445 8.06133 76.7938 8.416 77.2685 8.864L76.7565 9.576C76.7245 9.62933 76.6818 9.67467 76.6285 9.712C76.5805 9.744 76.5138 9.76 76.4285 9.76C76.3325 9.76 76.2152 9.70933 76.0765 9.608C75.9378 9.50133 75.7565 9.384 75.5325 9.256C75.3085 9.128 75.0285 9.01333 74.6925 8.912C74.3565 8.80533 73.9432 8.752 73.4525 8.752C72.8605 8.752 72.3192 8.856 71.8285 9.064C71.3378 9.26667 70.9138 9.56267 70.5565 9.952C70.2045 10.3413 69.9298 10.816 69.7325 11.376C69.5352 11.936 69.4365 12.568 69.4365 13.272C69.4365 13.9867 69.5378 14.624 69.7405 15.184C69.9485 15.744 70.2285 16.2187 70.5805 16.608C70.9378 16.992 71.3565 17.2853 71.8365 17.488C72.3218 17.6907 72.8445 17.792 73.4045 17.792C73.7458 17.792 74.0525 17.7733 74.3245 17.736C74.6018 17.6933 74.8552 17.6293 75.0845 17.544C75.3192 17.4587 75.5352 17.352 75.7325 17.224C75.9352 17.0907 76.1352 16.9333 76.3325 16.752C76.4232 16.672 76.5138 16.632 76.6045 16.632ZM88.636 17.736L88.628 19H81.564V7.536H88.628V8.8H83.116V12.608H87.58V13.824H83.116V17.736H88.636ZM98.9824 9.328C98.9344 9.408 98.881 9.46933 98.8224 9.512C98.769 9.54933 98.7024 9.568 98.6224 9.568C98.5317 9.568 98.425 9.52267 98.3024 9.432C98.1797 9.34133 98.025 9.24267 97.8384 9.136C97.657 9.024 97.4357 8.92267 97.1744 8.832C96.9184 8.74133 96.6064 8.696 96.2384 8.696C95.8917 8.696 95.585 8.744 95.3184 8.84C95.057 8.93067 94.8357 9.056 94.6544 9.216C94.4784 9.376 94.345 9.56533 94.2544 9.784C94.1637 9.99733 94.1184 10.2293 94.1184 10.48C94.1184 10.8 94.1957 11.0667 94.3504 11.28C94.5104 11.488 94.7184 11.6667 94.9744 11.816C95.2357 11.9653 95.529 12.096 95.8544 12.208C96.185 12.3147 96.521 12.4267 96.8624 12.544C97.209 12.6613 97.545 12.7947 97.8704 12.944C98.201 13.088 98.4944 13.272 98.7504 13.496C99.0117 13.72 99.2197 13.9947 99.3744 14.32C99.5344 14.6453 99.6144 15.0453 99.6144 15.52C99.6144 16.0213 99.529 16.4933 99.3584 16.936C99.1877 17.3733 98.937 17.7547 98.6064 18.08C98.281 18.4053 97.8784 18.6613 97.3984 18.848C96.9237 19.0347 96.3824 19.128 95.7744 19.128C95.0277 19.128 94.3504 18.9947 93.7424 18.728C93.1344 18.456 92.6144 18.0907 92.1824 17.632L92.6304 16.896C92.673 16.8373 92.7237 16.7893 92.7824 16.752C92.8464 16.7093 92.9157 16.688 92.9904 16.688C93.0597 16.688 93.137 16.7173 93.2224 16.776C93.313 16.8293 93.4144 16.8987 93.5264 16.984C93.6384 17.0693 93.7664 17.1627 93.9104 17.264C94.0544 17.3653 94.217 17.4587 94.3984 17.544C94.585 17.6293 94.7957 17.7013 95.0304 17.76C95.265 17.8133 95.529 17.84 95.8224 17.84C96.1904 17.84 96.5184 17.7893 96.8064 17.688C97.0944 17.5867 97.337 17.4453 97.5344 17.264C97.737 17.0773 97.8917 16.856 97.9984 16.6C98.105 16.344 98.1584 16.0587 98.1584 15.744C98.1584 15.3973 98.0784 15.1147 97.9184 14.896C97.7637 14.672 97.5584 14.4853 97.3024 14.336C97.0464 14.1867 96.753 14.0613 96.4224 13.96C96.0917 13.8533 95.7557 13.7467 95.4144 13.64C95.073 13.528 94.737 13.4 94.4064 13.256C94.0757 13.112 93.7824 12.9253 93.5264 12.696C93.2704 12.4667 93.0624 12.1813 92.9024 11.84C92.7477 11.4933 92.6704 11.0667 92.6704 10.56C92.6704 10.1547 92.7477 9.76267 92.9024 9.384C93.0624 9.00533 93.2917 8.66933 93.5904 8.376C93.8944 8.08267 94.265 7.848 94.7024 7.672C95.145 7.496 95.6517 7.408 96.2224 7.408C96.8624 7.408 97.4437 7.50933 97.9664 7.712C98.4944 7.91467 98.9584 8.208 99.3584 8.592L98.9824 9.328ZM109.99 9.328C109.942 9.408 109.889 9.46933 109.83 9.512C109.777 9.54933 109.71 9.568 109.63 9.568C109.539 9.568 109.433 9.52267 109.31 9.432C109.187 9.34133 109.033 9.24267 108.846 9.136C108.665 9.024 108.443 8.92267 108.182 8.832C107.926 8.74133 107.614 8.696 107.246 8.696C106.899 8.696 106.593 8.744 106.326 8.84C106.065 8.93067 105.843 9.056 105.662 9.216C105.486 9.376 105.353 9.56533 105.262 9.784C105.171 9.99733 105.126 10.2293 105.126 10.48C105.126 10.8 105.203 11.0667 105.358 11.28C105.518 11.488 105.726 11.6667 105.982 11.816C106.243 11.9653 106.537 12.096 106.862 12.208C107.193 12.3147 107.529 12.4267 107.87 12.544C108.217 12.6613 108.553 12.7947 108.878 12.944C109.209 13.088 109.502 13.272 109.758 13.496C110.019 13.72 110.227 13.9947 110.382 14.32C110.542 14.6453 110.622 15.0453 110.622 15.52C110.622 16.0213 110.537 16.4933 110.366 16.936C110.195 17.3733 109.945 17.7547 109.614 18.08C109.289 18.4053 108.886 18.6613 108.406 18.848C107.931 19.0347 107.39 19.128 106.782 19.128C106.035 19.128 105.358 18.9947 104.75 18.728C104.142 18.456 103.622 18.0907 103.19 17.632L103.638 16.896C103.681 16.8373 103.731 16.7893 103.79 16.752C103.854 16.7093 103.923 16.688 103.998 16.688C104.067 16.688 104.145 16.7173 104.23 16.776C104.321 16.8293 104.422 16.8987 104.534 16.984C104.646 17.0693 104.774 17.1627 104.918 17.264C105.062 17.3653 105.225 17.4587 105.406 17.544C105.593 17.6293 105.803 17.7013 106.038 17.76C106.273 17.8133 106.537 17.84 106.83 17.84C107.198 17.84 107.526 17.7893 107.814 17.688C108.102 17.5867 108.345 17.4453 108.542 17.264C108.745 17.0773 108.899 16.856 109.006 16.6C109.113 16.344 109.166 16.0587 109.166 15.744C109.166 15.3973 109.086 15.1147 108.926 14.896C108.771 14.672 108.566 14.4853 108.31 14.336C108.054 14.1867 107.761 14.0613 107.43 13.96C107.099 13.8533 106.763 13.7467 106.422 13.64C106.081 13.528 105.745 13.4 105.414 13.256C105.083 13.112 104.79 12.9253 104.534 12.696C104.278 12.4667 104.07 12.1813 103.91 11.84C103.755 11.4933 103.678 11.0667 103.678 10.56C103.678 10.1547 103.755 9.76267 103.91 9.384C104.07 9.00533 104.299 8.66933 104.598 8.376C104.902 8.08267 105.273 7.848 105.71 7.672C106.153 7.496 106.659 7.408 107.23 7.408C107.87 7.408 108.451 7.50933 108.974 7.712C109.502 7.91467 109.966 8.208 110.366 8.592L109.99 9.328Z" fill="#181818"/>
</svg>
