<svg width="1200" height="252" viewBox="0 0 1200 252" fill="none" xmlns="http://www.w3.org/2000/svg">
<path d="M0 20C0 8.9543 8.95431 0 20 0H1180C1191.05 0 1200 8.95431 1200 20V232C1200 243.046 1191.05 252 1180 252H20C8.95429 252 0 243.046 0 232V20Z" fill="#181818"/>
<mask id="mask0_5_3724" style="mask-type:alpha" maskUnits="userSpaceOnUse" x="0" y="0" width="1200" height="252">
<path d="M0 20C0 8.9543 8.95431 0 20 0H1180C1191.05 0 1200 8.95431 1200 20V232C1200 243.046 1191.05 252 1180 252H20C8.95429 252 0 243.046 0 232V20Z" fill="#181818"/>
</mask>
<g mask="url(#mask0_5_3724)">
<g opacity="0.51">
<path d="M1196.95 3.01997C1196.95 3.0053 1196.95 2.99362 1196.95 2.97895C1196.92 1.46594 1196.88 -0.0529089 1196.85 -1.56591C1196.84 -1.9982 1196.46 -2.36064 1196.02 -2.35073C1194.51 -2.31604 1192.99 -2.28121 1191.48 -2.24652C1191.47 -2.24625 1191.45 -2.243 1191.44 -2.23974C1191.02 -2.20687 1190.68 -1.84547 1190.69 -1.42487C1190.73 0.0881348 1190.76 1.60697 1190.8 3.11997C1190.81 3.55226 1191.19 3.91471 1191.62 3.90479C1193.13 3.8701 1194.65 3.83529 1196.17 3.8006C1196.4 3.79524 1196.58 3.70346 1196.7 3.57199C1196.71 3.56303 1196.72 3.55706 1196.73 3.5481C1196.73 3.54212 1196.74 3.53315 1196.75 3.52718C1196.87 3.40753 1196.94 3.23625 1196.95 3.01997ZM1192.39 2.27984C1192.37 1.29843 1192.34 0.322875 1192.32 -0.658533C1192.57 -0.664292 1192.83 -0.670185 1193.08 -0.675944C1193.81 -0.692552 1194.54 -0.709304 1195.26 -0.725912C1195.28 -0.00153938 1195.29 0.72869 1195.31 1.45306C1195.32 1.70426 1195.32 1.96128 1195.33 2.21248C1194.35 2.23498 1193.37 2.25747 1192.39 2.27984Z" fill="url(#paint0_linear_5_3724)"/>
<path d="M1174.23 3.50068C1174.2 1.98767 1174.16 0.468828 1174.13 -1.04418C1174.12 -1.47646 1173.74 -1.83891 1173.31 -1.82899C1171.79 -1.79431 1170.27 -1.75948 1168.76 -1.72479C1168.33 -1.71488 1167.97 -1.33543 1167.98 -0.903141C1168.01 0.609863 1168.05 2.12871 1168.08 3.64171C1168.09 4.074 1168.47 4.43644 1168.9 4.42653C1170.42 4.39184 1171.93 4.35702 1173.45 4.32233C1173.68 4.31697 1173.86 4.2252 1173.99 4.09373C1173.99 4.08477 1174 4.0788 1174.01 4.06983C1174.01 4.06386 1174.02 4.05489 1174.03 4.04892C1174.16 3.92031 1174.24 3.74019 1174.23 3.50068ZM1169.67 2.80159C1169.65 1.82018 1169.63 0.844612 1169.6 -0.136795C1170.59 -0.159297 1171.56 -0.181673 1172.54 -0.204174C1172.57 0.777234 1172.59 1.75281 1172.61 2.73422C1171.63 2.75672 1170.65 2.77922 1169.67 2.80159Z" fill="url(#paint1_linear_5_3724)"/>
<path d="M1197.47 25.6975C1197.43 24.1845 1197.4 22.6656 1197.36 21.1526C1197.35 20.7203 1196.98 20.3579 1196.54 20.3678C1195.03 20.4025 1193.51 20.4373 1192 20.472C1191.57 20.4819 1191.2 20.8614 1191.21 21.2936C1191.25 22.8066 1191.28 24.3255 1191.32 25.8385C1191.33 26.2708 1191.71 26.6332 1192.14 26.6233C1193.65 26.5886 1195.17 26.5538 1196.68 26.5191C1196.92 26.5137 1197.1 26.422 1197.22 26.2905C1197.23 26.2815 1197.24 26.2756 1197.24 26.2666C1197.25 26.2606 1197.26 26.2517 1197.26 26.2457C1197.39 26.1171 1197.47 25.937 1197.47 25.6975ZM1192.91 24.9984C1192.89 24.0169 1192.86 23.0414 1192.84 22.06C1193.82 22.0375 1194.8 22.0151 1195.78 21.9926C1195.8 22.974 1195.82 23.9496 1195.85 24.931C1194.87 24.9535 1193.88 24.976 1192.91 24.9984Z" fill="url(#paint2_linear_5_3724)"/>
<path d="M1151.51 4.02109C1151.48 2.50809 1151.44 0.989255 1151.41 -0.523749C1151.4 -0.926827 1151.07 -1.26127 1150.68 -1.30202C1150.65 -1.3042 1150.62 -1.30937 1150.59 -1.30857C1149.07 -1.27388 1147.55 -1.23906 1146.04 -1.20437C1145.61 -1.19446 1145.25 -0.815009 1145.26 -0.382723C1145.29 1.13028 1145.33 2.64914 1145.36 4.16214C1145.36 4.19719 1145.37 4.22627 1145.37 4.25833C1145.43 4.64567 1145.78 4.9562 1146.18 4.94696C1147.7 4.91227 1149.21 4.87744 1150.73 4.84275C1150.96 4.83739 1151.14 4.74561 1151.27 4.61415C1151.27 4.60519 1151.28 4.59922 1151.29 4.59026C1151.29 4.58428 1151.3 4.57532 1151.31 4.56934C1151.43 4.43788 1151.51 4.25775 1151.51 4.02109ZM1146.95 3.32499C1146.94 3.09133 1146.94 2.85765 1146.93 2.62398C1146.92 1.87624 1146.9 1.1285 1146.88 0.386604C1147.63 0.36946 1148.38 0.352317 1149.12 0.335307C1149.35 0.329949 1149.59 0.324601 1149.82 0.319244C1149.84 1.30065 1149.86 2.27621 1149.89 3.25762C1148.91 3.27713 1147.93 3.29964 1146.95 3.32499Z" fill="url(#paint3_linear_5_3724)"/>
<path d="M1174.75 26.218C1174.72 24.7049 1174.68 23.1861 1174.65 21.6731C1174.64 21.2408 1174.26 20.8784 1173.83 20.8883C1172.31 20.923 1170.79 20.9578 1169.28 20.9925C1168.85 21.0024 1168.49 21.3818 1168.5 21.8141C1168.53 23.3271 1168.57 24.846 1168.6 26.359C1168.61 26.7913 1168.99 27.1537 1169.42 27.1438C1170.94 27.1091 1172.45 27.0743 1173.97 27.0396C1174.2 27.0342 1174.38 26.9425 1174.51 26.811C1174.51 26.802 1174.52 26.7961 1174.53 26.7871C1174.53 26.7811 1174.54 26.7722 1174.55 26.7662C1174.68 26.6376 1174.76 26.4575 1174.75 26.218ZM1170.19 25.5218C1170.17 24.5404 1170.14 23.5649 1170.12 22.5835C1171.1 22.561 1172.08 22.5386 1173.06 22.5161C1173.08 23.4975 1173.1 24.4731 1173.13 25.4545C1172.15 25.474 1171.17 25.4965 1170.19 25.5218Z" fill="url(#paint4_linear_5_3724)"/>
<path d="M1197.99 48.4152C1197.95 46.9022 1197.92 45.3834 1197.88 43.8704C1197.87 43.4381 1197.49 43.0757 1197.06 43.0856C1195.55 43.1203 1194.03 43.1551 1192.52 43.1897C1192.09 43.1997 1191.72 43.5791 1191.73 44.0114C1191.77 45.5244 1191.8 47.0433 1191.84 48.5563C1191.85 48.9886 1192.23 49.351 1192.66 49.3411C1194.17 49.3064 1195.69 49.2716 1197.2 49.2369C1197.44 49.2315 1197.62 49.1398 1197.74 49.0083C1197.75 48.9993 1197.76 48.9934 1197.76 48.9844C1197.77 48.9784 1197.78 48.9695 1197.78 48.9635C1197.91 48.8349 1197.99 48.6547 1197.99 48.4152ZM1193.43 47.7191C1193.4 46.7377 1193.38 45.7621 1193.36 44.7807C1194.34 44.7582 1195.31 44.7359 1196.3 44.7134C1196.32 45.6948 1196.34 46.6703 1196.36 47.6517C1195.38 47.6713 1194.4 47.6938 1193.43 47.7191Z" fill="url(#paint5_linear_5_3724)"/>
<path d="M1152.03 26.7397C1152 25.2267 1151.96 23.7078 1151.93 22.1948C1151.92 21.7626 1151.54 21.4001 1151.11 21.41C1149.59 21.4447 1148.08 21.4795 1146.56 21.5142C1146.13 21.5241 1145.77 21.9036 1145.78 22.3359C1145.81 23.8489 1145.85 25.3677 1145.88 26.8807C1145.89 27.313 1146.27 27.6755 1146.7 27.6655C1148.22 27.6309 1149.74 27.596 1151.25 27.5613C1151.48 27.556 1151.66 27.4642 1151.79 27.3327C1151.8 27.3238 1151.8 27.3178 1151.81 27.3088C1151.82 27.3029 1151.82 27.2939 1151.83 27.2879C1151.96 27.1593 1152.04 26.9792 1152.03 26.7397ZM1147.47 26.0436C1147.45 25.0622 1147.43 24.0866 1147.4 23.1052C1148.38 23.0827 1149.36 23.0603 1150.34 23.0378C1150.36 24.0192 1150.39 24.9948 1150.41 25.9762C1149.43 25.9957 1148.45 26.0182 1147.47 26.0436Z" fill="url(#paint6_linear_5_3724)"/>
<path d="M1175.27 48.9365C1175.24 47.4235 1175.2 45.9046 1175.17 44.3916C1175.16 43.9593 1174.78 43.5969 1174.35 43.6068C1172.83 43.6415 1171.32 43.6763 1169.8 43.711C1169.37 43.7209 1169.01 44.1004 1169.02 44.5326C1169.05 46.0456 1169.09 47.5645 1169.12 49.0775C1169.13 49.5098 1169.51 49.8722 1169.94 49.8623C1171.46 49.8276 1172.98 49.7928 1174.49 49.7581C1174.72 49.7528 1174.9 49.661 1175.03 49.5295C1175.04 49.5206 1175.04 49.5146 1175.05 49.5056C1175.06 49.4996 1175.06 49.4907 1175.07 49.4847C1175.2 49.3561 1175.28 49.176 1175.27 48.9365ZM1170.71 48.2403C1170.69 47.2589 1170.67 46.2834 1170.64 45.302C1171.62 45.2795 1172.6 45.2571 1173.58 45.2346C1173.6 46.216 1173.63 47.1916 1173.65 48.173C1172.67 48.1925 1171.69 48.215 1170.71 48.2403Z" fill="url(#paint7_linear_5_3724)"/>
<path d="M1198.51 71.134C1198.48 69.621 1198.44 68.1021 1198.41 66.5891C1198.4 66.1568 1198.02 65.7944 1197.58 65.8043C1196.07 65.839 1194.55 65.8738 1193.04 65.9085C1192.61 65.9184 1192.24 66.2979 1192.25 66.7302C1192.29 68.2432 1192.32 69.762 1192.36 71.275C1192.37 71.7073 1192.75 72.0698 1193.18 72.0598C1194.69 72.0252 1196.21 71.9903 1197.72 71.9556C1197.96 71.9503 1198.14 71.8585 1198.26 71.727C1198.27 71.7181 1198.28 71.7121 1198.29 71.7031C1198.29 71.6971 1198.3 71.6882 1198.31 71.6822C1198.43 71.5536 1198.52 71.3735 1198.51 71.134ZM1193.95 70.4379C1193.92 69.4565 1193.9 68.4809 1193.88 67.4995C1194.86 67.477 1195.84 67.4546 1196.82 67.4321C1196.84 68.4135 1196.86 69.3891 1196.88 70.3705C1195.91 70.39 1194.92 70.4125 1193.95 70.4379Z" fill="url(#paint8_linear_5_3724)"/>
<path d="M1129.31 27.2604C1129.28 25.7474 1129.24 24.2285 1129.21 22.7155C1129.2 22.3124 1128.87 21.978 1128.48 21.9372C1128.45 21.9351 1128.42 21.9299 1128.39 21.9307C1126.87 21.9654 1125.36 22.0002 1123.84 22.0349C1123.41 22.0448 1123.05 22.4243 1123.06 22.8565C1123.09 24.3696 1123.13 25.8884 1123.16 27.4014C1123.16 27.4364 1123.17 27.4655 1123.17 27.4976C1123.23 27.8849 1123.58 28.1955 1123.98 28.1862C1125.5 28.1515 1127.01 28.1167 1128.53 28.082C1128.76 28.0767 1128.94 27.9849 1129.07 27.8534C1129.07 27.8445 1129.08 27.8385 1129.09 27.8295C1129.09 27.8235 1129.1 27.8146 1129.11 27.8086C1129.23 27.6771 1129.32 27.497 1129.31 27.2604ZM1124.75 26.5642C1124.74 26.3306 1124.74 26.0969 1124.73 25.8633C1124.72 25.1155 1124.7 24.3678 1124.68 23.6259C1125.43 23.6087 1126.18 23.5916 1126.92 23.5746C1127.15 23.5692 1127.39 23.5639 1127.62 23.5585C1127.64 24.5399 1127.67 25.5155 1127.69 26.4969C1126.71 26.5164 1125.73 26.5389 1124.75 26.5642Z" fill="url(#paint9_linear_5_3724)"/>
<path d="M1152.55 49.457C1152.52 47.944 1152.48 46.4251 1152.45 44.9121C1152.44 44.4798 1152.06 44.1174 1151.63 44.1273C1150.11 44.162 1148.59 44.1968 1147.08 44.2315C1146.65 44.2414 1146.29 44.6209 1146.3 45.0532C1146.33 46.5662 1146.37 48.085 1146.4 49.598C1146.41 50.0303 1146.79 50.3927 1147.22 50.3828C1148.74 50.3481 1150.25 50.3133 1151.77 50.2786C1152 50.2733 1152.18 50.1815 1152.31 50.05C1152.31 50.0411 1152.32 50.0351 1152.33 50.0261C1152.33 50.0202 1152.34 50.0112 1152.35 50.0052C1152.48 49.8766 1152.56 49.6965 1152.55 49.457ZM1147.99 48.7609C1147.97 47.7795 1147.94 46.8039 1147.92 45.8225C1148.9 45.8 1149.88 45.7776 1150.86 45.7551C1150.88 46.7365 1150.91 47.7121 1150.93 48.6935C1149.95 48.713 1148.97 48.7355 1147.99 48.7609Z" fill="url(#paint10_linear_5_3724)"/>
<path d="M1175.79 71.6547C1175.76 70.1417 1175.72 68.6229 1175.69 67.1099C1175.68 66.6776 1175.3 66.3152 1174.87 66.3251C1173.35 66.3598 1171.84 66.3946 1170.32 66.4293C1169.89 66.4392 1169.53 66.8186 1169.54 67.2509C1169.57 68.7639 1169.61 70.2828 1169.64 71.7958C1169.65 72.2281 1170.03 72.5905 1170.46 72.5806C1171.98 72.5459 1173.5 72.5111 1175.01 72.4764C1175.24 72.471 1175.42 72.3793 1175.55 72.2478C1175.55 72.2388 1175.56 72.2329 1175.57 72.2239C1175.57 72.2179 1175.58 72.209 1175.59 72.203C1175.72 72.0744 1175.8 71.8942 1175.79 71.6547ZM1171.23 70.9586C1171.21 69.9772 1171.18 69.0017 1171.16 68.0202C1172.14 67.9977 1173.12 67.9754 1174.1 67.9529C1174.12 68.9343 1174.15 69.9099 1174.17 70.8913C1173.19 70.9108 1172.21 70.9333 1171.23 70.9586Z" fill="url(#paint11_linear_5_3724)"/>
<path d="M1199.03 93.8525C1199 92.3395 1198.96 90.8206 1198.93 89.3076C1198.92 88.8753 1198.54 88.5129 1198.11 88.5228C1196.59 88.5575 1195.07 88.5923 1193.56 88.627C1193.13 88.6369 1192.77 89.0164 1192.78 89.4487C1192.81 90.9617 1192.85 92.4805 1192.88 93.9935C1192.89 94.4258 1193.27 94.7882 1193.7 94.7783C1195.21 94.7436 1196.73 94.7088 1198.25 94.6741C1198.48 94.6688 1198.66 94.577 1198.78 94.4455C1198.79 94.4366 1198.8 94.4306 1198.81 94.4216C1198.81 94.4157 1198.82 94.4067 1198.83 94.4007C1198.96 94.2721 1199.04 94.092 1199.03 93.8525ZM1194.47 93.1564C1194.45 92.175 1194.42 91.1994 1194.4 90.218C1195.38 90.1955 1196.36 90.1731 1197.34 90.1506C1197.36 91.132 1197.38 92.1076 1197.41 93.089C1196.43 93.1085 1195.45 93.1339 1194.47 93.1564Z" fill="url(#paint12_linear_5_3724)"/>
<path d="M1129.84 49.9792C1129.8 48.4662 1129.77 46.9473 1129.73 45.4343C1129.72 45.0021 1129.34 44.6396 1128.91 44.6495C1127.4 44.6842 1125.88 44.719 1124.37 44.7537C1123.93 44.7636 1123.57 45.1431 1123.58 45.5754C1123.62 47.0884 1123.65 48.6072 1123.68 50.1202C1123.69 50.5525 1124.07 50.915 1124.51 50.905C1126.02 50.8704 1127.54 50.8355 1129.05 50.8009C1129.28 50.7955 1129.46 50.7037 1129.59 50.5723C1129.6 50.5633 1129.6 50.5573 1129.61 50.5483C1129.62 50.5424 1129.63 50.5334 1129.63 50.5274C1129.76 50.4018 1129.84 50.2187 1129.84 49.9792ZM1125.27 49.2831C1125.25 48.3017 1125.23 47.3261 1125.21 46.3447C1126.19 46.3222 1127.16 46.2998 1128.14 46.2773C1128.17 47.2587 1128.19 48.2343 1128.21 49.2157C1127.23 49.2352 1126.25 49.2577 1125.27 49.2831Z" fill="url(#paint13_linear_5_3724)"/>
<path d="M1153.07 72.176C1153.04 70.663 1153 69.1441 1152.97 67.6311C1152.96 67.1988 1152.58 66.8364 1152.15 66.8463C1150.64 66.881 1149.12 66.9158 1147.6 66.9505C1147.17 66.9604 1146.81 67.3399 1146.82 67.7722C1146.85 69.2852 1146.89 70.804 1146.92 72.317C1146.93 72.7493 1147.31 73.1117 1147.74 73.1018C1149.26 73.0671 1150.78 73.0323 1152.29 72.9976C1152.52 72.9923 1152.7 72.9005 1152.83 72.769C1152.84 72.7601 1152.84 72.7541 1152.85 72.7451C1152.86 72.7392 1152.86 72.7302 1152.87 72.7242C1153 72.5986 1153.08 72.4155 1153.07 72.176ZM1148.51 71.4799C1148.49 70.4984 1148.47 69.5229 1148.44 68.5415C1149.43 68.519 1150.4 68.4966 1151.38 68.4741C1151.4 69.4555 1151.43 70.4311 1151.45 71.4125C1150.47 71.432 1149.49 71.4545 1148.51 71.4799Z" fill="url(#paint14_linear_5_3724)"/>
<path d="M1176.31 94.3735C1176.28 92.8605 1176.24 91.3416 1176.21 89.8286C1176.2 89.3963 1175.82 89.0339 1175.39 89.0438C1173.88 89.0785 1172.36 89.1133 1170.84 89.148C1170.41 89.1579 1170.05 89.5374 1170.06 89.9697C1170.09 91.4827 1170.13 93.0015 1170.16 94.5145C1170.17 94.9468 1170.55 95.3093 1170.98 95.2993C1172.5 95.2647 1174.02 95.2298 1175.53 95.1951C1175.76 95.1898 1175.94 95.098 1176.07 94.9665C1176.08 94.9576 1176.08 94.9516 1176.09 94.9426C1176.1 94.9367 1176.1 94.9277 1176.11 94.9217C1176.24 94.7961 1176.32 94.613 1176.31 94.3735ZM1171.75 93.6774C1171.73 92.696 1171.71 91.7204 1171.68 90.739C1172.67 90.7165 1173.64 90.6941 1174.62 90.6716C1174.64 91.653 1174.67 92.6286 1174.69 93.61C1173.71 93.6295 1172.73 93.652 1171.75 93.6774Z" fill="url(#paint15_linear_5_3724)"/>
<path d="M1199.55 116.571C1199.52 115.058 1199.48 113.54 1199.45 112.027C1199.44 111.594 1199.06 111.232 1198.63 111.242C1197.11 111.276 1195.59 111.311 1194.08 111.346C1193.65 111.356 1193.29 111.735 1193.3 112.168C1193.33 113.681 1193.37 115.2 1193.4 116.713C1193.41 117.145 1193.79 117.507 1194.22 117.497C1195.74 117.463 1197.25 117.428 1198.77 117.393C1199 117.388 1199.18 117.296 1199.31 117.165C1199.31 117.156 1199.32 117.15 1199.33 117.141C1199.33 117.135 1199.34 117.126 1199.35 117.12C1199.47 116.994 1199.56 116.811 1199.55 116.571ZM1194.99 115.875C1194.97 114.894 1194.94 113.918 1194.92 112.937C1195.9 112.914 1196.88 112.892 1197.86 112.87C1197.88 113.851 1197.91 114.827 1197.93 115.808C1196.95 115.828 1195.97 115.853 1194.99 115.875Z" fill="url(#paint16_linear_5_3724)"/>
<path d="M1107.12 50.4994C1107.08 48.9864 1107.05 47.4675 1107.01 45.9545C1107 45.5514 1106.68 45.217 1106.29 45.1763C1106.26 45.1741 1106.23 45.1689 1106.19 45.1697C1104.68 45.2044 1103.16 45.2392 1101.65 45.2739C1101.21 45.2838 1100.85 45.6633 1100.86 46.0956C1100.9 47.6086 1100.93 49.1274 1100.97 50.6404C1100.97 50.6755 1100.97 50.7045 1100.98 50.7366C1101.04 51.1239 1101.38 51.4345 1101.79 51.4252C1103.3 51.3905 1104.82 51.3557 1106.33 51.321C1106.57 51.3157 1106.75 51.2239 1106.87 51.0924C1106.88 51.0835 1106.89 51.0775 1106.89 51.0685C1106.9 51.0626 1106.91 51.0536 1106.91 51.0476C1107.04 50.9191 1107.12 50.736 1107.12 50.4994ZM1102.55 49.8033C1102.55 49.5696 1102.54 49.3359 1102.54 49.1023C1102.52 48.3545 1102.5 47.6068 1102.49 46.8649C1103.23 46.8477 1103.98 46.8306 1104.72 46.8136C1104.96 46.8082 1105.19 46.8029 1105.43 46.7975C1105.45 47.7789 1105.47 48.7545 1105.49 49.7359C1104.51 49.7584 1103.53 49.7779 1102.55 49.8033Z" fill="url(#paint17_linear_5_3724)"/>
<path d="M1130.35 72.6965C1130.32 71.1835 1130.28 69.6646 1130.25 68.1516C1130.24 67.7193 1129.86 67.3569 1129.43 67.3668C1127.91 67.4015 1126.4 67.4363 1124.88 67.471C1124.45 67.4809 1124.09 67.8604 1124.1 68.2927C1124.13 69.8057 1124.17 71.3245 1124.2 72.8375C1124.21 73.2698 1124.59 73.6322 1125.02 73.6223C1126.54 73.5876 1128.06 73.5528 1129.57 73.5181C1129.8 73.5128 1129.98 73.421 1130.11 73.2895C1130.12 73.2806 1130.12 73.2746 1130.13 73.2656C1130.14 73.2597 1130.14 73.2507 1130.15 73.2447C1130.28 73.1191 1130.36 72.936 1130.35 72.6965ZM1125.79 72.0004C1125.77 71.019 1125.75 70.0434 1125.72 69.062C1126.7 69.0395 1127.68 69.0171 1128.66 68.9946C1128.68 69.976 1128.71 70.9516 1128.73 71.933C1127.75 71.9555 1126.77 71.975 1125.79 72.0004Z" fill="url(#paint18_linear_5_3724)"/>
<path d="M1153.59 94.894C1153.56 93.381 1153.52 91.8621 1153.49 90.3491C1153.48 89.9169 1153.1 89.5544 1152.67 89.5643C1151.15 89.599 1149.64 89.6338 1148.12 89.6685C1147.69 89.6784 1147.33 90.0579 1147.34 90.4902C1147.37 92.0032 1147.41 93.522 1147.44 95.035C1147.45 95.4673 1147.83 95.8298 1148.26 95.8199C1149.78 95.7852 1151.3 95.7503 1152.81 95.7156C1153.04 95.7103 1153.22 95.6185 1153.35 95.4871C1153.36 95.4781 1153.36 95.4721 1153.37 95.4632C1153.38 95.4572 1153.38 95.4482 1153.39 95.4422C1153.52 95.3166 1153.6 95.1335 1153.59 94.894ZM1149.03 94.1979C1149.01 93.2165 1148.99 92.2409 1148.96 91.2595C1149.94 91.237 1150.92 91.2146 1151.9 91.1921C1151.92 92.1735 1151.95 93.1491 1151.97 94.1305C1150.99 94.153 1150.01 94.1725 1149.03 94.1979Z" fill="url(#paint19_linear_5_3724)"/>
<path d="M1176.83 117.092C1176.8 115.579 1176.76 114.06 1176.73 112.547C1176.72 112.115 1176.34 111.752 1175.91 111.762C1174.4 111.797 1172.88 111.832 1171.36 111.867C1170.93 111.876 1170.57 112.256 1170.58 112.688C1170.61 114.201 1170.65 115.72 1170.68 117.233C1170.69 117.665 1171.07 118.028 1171.5 118.018C1173.02 117.983 1174.54 117.948 1176.05 117.914C1176.28 117.908 1176.46 117.816 1176.59 117.685C1176.6 117.676 1176.6 117.67 1176.61 117.661C1176.62 117.655 1176.62 117.646 1176.63 117.64C1176.76 117.515 1176.84 117.331 1176.83 117.092ZM1172.27 116.396C1172.25 115.414 1172.23 114.439 1172.2 113.457C1173.18 113.435 1174.16 113.413 1175.14 113.39C1175.16 114.372 1175.19 115.347 1175.21 116.328C1174.23 116.351 1173.25 116.373 1172.27 116.396Z" fill="url(#paint20_linear_5_3724)"/>
<path d="M1200.07 139.289C1200.04 137.776 1200 136.257 1199.97 134.744C1199.96 134.312 1199.58 133.949 1199.15 133.959C1197.63 133.994 1196.11 134.029 1194.6 134.063C1194.17 134.073 1193.81 134.453 1193.82 134.885C1193.85 136.398 1193.89 137.917 1193.92 139.43C1193.93 139.862 1194.31 140.225 1194.74 140.215C1196.26 140.18 1197.77 140.145 1199.29 140.11C1199.52 140.105 1199.7 140.013 1199.83 139.882C1199.83 139.873 1199.84 139.867 1199.85 139.858C1199.85 139.852 1199.86 139.843 1199.87 139.837C1199.99 139.711 1200.08 139.528 1200.07 139.289ZM1195.51 138.593C1195.49 137.611 1195.46 136.636 1195.44 135.654C1196.42 135.632 1197.4 135.609 1198.38 135.587C1198.4 136.568 1198.42 137.544 1198.45 138.525C1197.47 138.548 1196.49 138.57 1195.51 138.593Z" fill="url(#paint21_linear_5_3724)"/>
<path d="M1107.8 72.8742C1107.77 71.3612 1107.73 69.8424 1107.7 68.3294C1107.69 67.8971 1107.31 67.5346 1106.87 67.5445C1105.36 67.5792 1103.84 67.614 1102.33 67.6487C1101.9 67.6586 1101.54 68.0381 1101.55 68.4704C1101.58 69.9834 1101.61 71.5022 1101.65 73.0152C1101.66 73.4475 1102.04 73.81 1102.47 73.8001C1103.98 73.7654 1105.5 73.7305 1107.02 73.6959C1107.25 73.6905 1107.43 73.5987 1107.55 73.4673C1107.56 73.4583 1107.57 73.4523 1107.58 73.4434C1107.58 73.4374 1107.59 73.4284 1107.6 73.4224C1107.72 73.2968 1107.81 73.1137 1107.8 72.8742ZM1103.24 72.1781C1103.22 71.1967 1103.19 70.2211 1103.17 69.2397C1104.15 69.2172 1105.13 69.1949 1106.11 69.1724C1106.13 70.1538 1106.15 71.1293 1106.18 72.1107C1105.19 72.1332 1104.22 72.1527 1103.24 72.1781Z" fill="url(#paint22_linear_5_3724)"/>
<path d="M1130.87 95.415C1130.84 93.902 1130.81 92.3831 1130.77 90.8701C1130.76 90.4378 1130.38 90.0754 1129.95 90.0853C1128.44 90.12 1126.92 90.1548 1125.4 90.1895C1124.97 90.1994 1124.61 90.5789 1124.62 91.0112C1124.65 92.5242 1124.69 94.043 1124.72 95.556C1124.73 95.9883 1125.11 96.3507 1125.55 96.3408C1127.06 96.3061 1128.58 96.2713 1130.09 96.2366C1130.32 96.2313 1130.5 96.1395 1130.63 96.008C1130.64 95.9991 1130.64 95.9931 1130.65 95.9841C1130.66 95.9781 1130.67 95.9692 1130.67 95.9632C1130.8 95.8376 1130.88 95.6545 1130.87 95.415ZM1126.31 94.7189C1126.29 93.7375 1126.27 92.7619 1126.24 91.7805C1127.23 91.758 1128.2 91.7356 1129.18 91.7131C1129.21 92.6945 1129.23 93.6701 1129.25 94.6515C1128.27 94.674 1127.29 94.6935 1126.31 94.7189Z" fill="url(#paint23_linear_5_3724)"/>
<path d="M1154.12 117.612C1154.08 116.099 1154.05 114.581 1154.01 113.068C1154 112.635 1153.62 112.273 1153.19 112.283C1151.68 112.318 1150.16 112.352 1148.64 112.387C1148.21 112.397 1147.85 112.776 1147.86 113.209C1147.89 114.722 1147.93 116.241 1147.96 117.754C1147.97 118.186 1148.35 118.548 1148.79 118.538C1150.3 118.504 1151.82 118.469 1153.33 118.434C1153.56 118.429 1153.74 118.337 1153.87 118.206C1153.88 118.197 1153.88 118.191 1153.89 118.182C1153.9 118.176 1153.91 118.167 1153.91 118.161C1154.04 118.035 1154.12 117.852 1154.12 117.612ZM1149.55 116.916C1149.53 115.935 1149.51 114.959 1149.48 113.978C1150.47 113.955 1151.44 113.933 1152.42 113.911C1152.45 114.892 1152.47 115.868 1152.49 116.849C1151.51 116.872 1150.53 116.891 1149.55 116.916Z" fill="url(#paint24_linear_5_3724)"/>
<path d="M1177.36 139.81C1177.32 138.297 1177.29 136.779 1177.25 135.266C1177.24 134.833 1176.86 134.471 1176.43 134.481C1174.92 134.516 1173.4 134.55 1171.88 134.585C1171.45 134.595 1171.09 134.974 1171.1 135.407C1171.13 136.92 1171.17 138.439 1171.2 139.952C1171.21 140.384 1171.59 140.746 1172.03 140.736C1173.54 140.702 1175.06 140.667 1176.57 140.632C1176.8 140.627 1176.98 140.535 1177.11 140.404C1177.12 140.395 1177.12 140.389 1177.13 140.38C1177.14 140.374 1177.15 140.365 1177.15 140.359C1177.28 140.233 1177.36 140.05 1177.36 139.81ZM1172.79 139.114C1172.77 138.133 1172.75 137.157 1172.72 136.176C1173.71 136.153 1174.68 136.131 1175.66 136.109C1175.69 137.09 1175.71 138.066 1175.73 139.047C1174.75 139.07 1173.77 139.092 1172.79 139.114Z" fill="url(#paint25_linear_5_3724)"/>
<path d="M1200.59 162.008C1200.56 160.495 1200.52 158.976 1200.49 157.463C1200.48 157.031 1200.1 156.668 1199.67 156.678C1198.15 156.713 1196.64 156.748 1195.12 156.783C1194.69 156.792 1194.33 157.172 1194.34 157.604C1194.37 159.117 1194.41 160.636 1194.44 162.149C1194.45 162.581 1194.83 162.944 1195.26 162.934C1196.78 162.899 1198.3 162.864 1199.81 162.83C1200.04 162.824 1200.22 162.733 1200.35 162.601C1200.36 162.592 1200.36 162.586 1200.37 162.577C1200.38 162.571 1200.38 162.562 1200.39 162.556C1200.52 162.431 1200.6 162.248 1200.59 162.008ZM1196.03 161.312C1196.01 160.33 1195.99 159.355 1195.96 158.374C1196.94 158.351 1197.92 158.329 1198.9 158.306C1198.92 159.288 1198.95 160.263 1198.97 161.245C1197.99 161.267 1197.01 161.289 1196.03 161.312Z" fill="url(#paint26_linear_5_3724)"/>
<path d="M1084.92 73.7418C1084.88 72.2288 1084.85 70.71 1084.81 69.1969C1084.8 68.7939 1084.48 68.4594 1084.09 68.4187C1084.05 68.4165 1084.03 68.4113 1083.99 68.4121C1082.48 68.4468 1080.96 68.4817 1079.45 68.5163C1079.01 68.5263 1078.65 68.9057 1078.66 69.338C1078.7 70.851 1078.73 72.3698 1078.76 73.8828C1078.77 73.9179 1078.77 73.947 1078.78 73.979C1078.83 74.3664 1079.18 74.6769 1079.59 74.6677C1081.1 74.633 1082.62 74.5982 1084.13 74.5635C1084.37 74.5581 1084.54 74.4663 1084.67 74.3349C1084.68 74.3259 1084.68 74.3199 1084.69 74.311C1084.7 74.305 1084.71 74.296 1084.71 74.29C1084.84 74.1586 1084.92 73.9755 1084.92 73.7418ZM1080.36 73.0427C1080.35 72.809 1080.35 72.5754 1080.34 72.3417C1080.32 71.594 1080.31 70.8462 1080.29 70.1043C1081.04 70.0872 1081.78 70.07 1082.53 70.053C1082.76 70.0477 1082.99 70.0423 1083.23 70.037C1083.25 71.0184 1083.27 71.9939 1083.29 72.9753C1082.31 72.9978 1081.33 73.0173 1080.36 73.0427Z" fill="url(#paint27_linear_5_3724)"/>
<path d="M1108.16 95.9387C1108.12 94.4257 1108.09 92.9068 1108.05 91.3938C1108.04 90.9615 1107.66 90.5991 1107.23 90.609C1105.72 90.6437 1104.2 90.6785 1102.69 90.7132C1102.25 90.7231 1101.89 91.1026 1101.9 91.5349C1101.94 93.0479 1101.97 94.5667 1102 96.0797C1102.01 96.512 1102.39 96.8744 1102.83 96.8645C1104.34 96.8298 1105.86 96.795 1107.37 96.7603C1107.6 96.755 1107.78 96.6632 1107.91 96.5317C1107.92 96.5228 1107.92 96.5168 1107.93 96.5078C1107.94 96.5018 1107.95 96.4929 1107.95 96.4869C1108.08 96.3583 1108.16 96.1752 1108.16 95.9387ZM1103.6 95.2396C1103.57 94.2581 1103.55 93.2826 1103.53 92.3012C1104.51 92.2787 1105.49 92.2563 1106.47 92.2338C1106.49 93.2152 1106.51 94.1908 1106.53 95.1722C1105.55 95.1947 1104.57 95.2142 1103.6 95.2396Z" fill="url(#paint28_linear_5_3724)"/>
<path d="M1131.39 118.136C1131.36 116.623 1131.32 115.105 1131.29 113.592C1131.28 113.159 1130.9 112.797 1130.47 112.807C1128.95 112.841 1127.43 112.876 1125.92 112.911C1125.49 112.921 1125.13 113.3 1125.14 113.733C1125.17 115.246 1125.21 116.764 1125.24 118.277C1125.25 118.71 1125.63 119.072 1126.06 119.062C1127.58 119.028 1129.09 118.993 1130.61 118.958C1130.84 118.953 1131.02 118.861 1131.15 118.73C1131.15 118.721 1131.16 118.715 1131.17 118.706C1131.17 118.7 1131.18 118.691 1131.19 118.685C1131.32 118.556 1131.4 118.373 1131.39 118.136ZM1126.83 117.437C1126.81 116.456 1126.79 115.48 1126.76 114.499C1127.75 114.476 1128.72 114.454 1129.7 114.432C1129.73 115.413 1129.75 116.389 1129.77 117.37C1128.79 117.392 1127.81 117.412 1126.83 117.437Z" fill="url(#paint29_linear_5_3724)"/>
<path d="M1154.63 140.334C1154.6 138.821 1154.56 137.302 1154.53 135.789C1154.52 135.357 1154.14 134.995 1153.71 135.004C1152.19 135.039 1150.68 135.074 1149.16 135.109C1148.73 135.119 1148.37 135.498 1148.38 135.93C1148.41 137.443 1148.45 138.962 1148.48 140.475C1148.49 140.907 1148.87 141.27 1149.3 141.26C1150.82 141.225 1152.33 141.191 1153.85 141.156C1154.08 141.15 1154.26 141.059 1154.39 140.927C1154.39 140.918 1154.4 140.912 1154.41 140.903C1154.41 140.897 1154.42 140.888 1154.43 140.882C1154.56 140.754 1154.64 140.571 1154.63 140.334ZM1150.07 139.635C1150.05 138.654 1150.03 137.678 1150.01 136.697C1150.99 136.674 1151.96 136.652 1152.94 136.629C1152.97 137.611 1152.99 138.586 1153.01 139.568C1152.03 139.59 1151.05 139.613 1150.07 139.635Z" fill="url(#paint30_linear_5_3724)"/>
<path d="M1177.87 162.531C1177.84 161.018 1177.8 159.499 1177.77 157.986C1177.76 157.554 1177.38 157.191 1176.95 157.201C1175.43 157.236 1173.91 157.271 1172.4 157.305C1171.97 157.315 1171.61 157.695 1171.62 158.127C1171.65 159.64 1171.69 161.159 1171.72 162.672C1171.73 163.104 1172.11 163.466 1172.54 163.457C1174.05 163.422 1175.57 163.387 1177.09 163.352C1177.32 163.347 1177.5 163.255 1177.62 163.124C1177.63 163.115 1177.64 163.109 1177.65 163.1C1177.65 163.094 1177.66 163.085 1177.67 163.079C1177.8 162.95 1177.88 162.767 1177.87 162.531ZM1173.31 161.832C1173.29 160.85 1173.27 159.875 1173.24 158.893C1174.22 158.871 1175.2 158.848 1176.18 158.826C1176.2 159.807 1176.23 160.783 1176.25 161.764C1175.27 161.787 1174.29 161.809 1173.31 161.832Z" fill="url(#paint31_linear_5_3724)"/>
<path d="M1201.11 184.728C1201.07 183.215 1201.04 181.696 1201.01 180.183C1201 179.751 1200.62 179.389 1200.18 179.399C1198.67 179.433 1197.15 179.468 1195.64 179.503C1195.21 179.513 1194.84 179.892 1194.85 180.324C1194.89 181.837 1194.92 183.356 1194.96 184.869C1194.97 185.302 1195.35 185.664 1195.78 185.654C1197.29 185.619 1198.81 185.585 1200.32 185.55C1200.56 185.545 1200.74 185.453 1200.86 185.321C1200.87 185.312 1200.88 185.306 1200.89 185.297C1200.89 185.291 1200.9 185.282 1200.91 185.276C1201.03 185.148 1201.12 184.965 1201.11 184.728ZM1196.55 184.029C1196.53 183.048 1196.5 182.072 1196.48 181.091C1197.46 181.068 1198.44 181.046 1199.42 181.023C1199.44 182.005 1199.46 182.98 1199.49 183.962C1198.51 183.984 1197.53 184.007 1196.55 184.029Z" fill="url(#paint32_linear_5_3724)"/>
<path d="M1085.44 96.4609C1085.4 94.9479 1085.37 93.429 1085.33 91.916C1085.32 91.4837 1084.94 91.1213 1084.51 91.1312C1083 91.1659 1081.48 91.2007 1079.97 91.2354C1079.53 91.2453 1079.17 91.6248 1079.18 92.0571C1079.22 93.5701 1079.25 95.0889 1079.29 96.6019C1079.3 97.0342 1079.68 97.3966 1080.11 97.3867C1081.62 97.352 1083.14 97.3172 1084.65 97.2825C1084.89 97.2772 1085.07 97.1854 1085.19 97.0539C1085.2 97.045 1085.21 97.039 1085.21 97.03C1085.22 97.0241 1085.23 97.0151 1085.23 97.0091C1085.36 96.8805 1085.45 96.6974 1085.44 96.4609ZM1080.88 95.7618C1080.85 94.7804 1080.83 93.8048 1080.81 92.8234C1081.79 92.8009 1082.77 92.7785 1083.75 92.756C1083.77 93.7374 1083.79 94.713 1083.82 95.6944C1082.83 95.7169 1081.86 95.7364 1080.88 95.7618Z" fill="url(#paint33_linear_5_3724)"/>
<path d="M1108.68 118.658C1108.64 117.145 1108.61 115.626 1108.57 114.113C1108.56 113.681 1108.18 113.318 1107.75 113.328C1106.24 113.363 1104.72 113.398 1103.21 113.432C1102.77 113.442 1102.41 113.822 1102.42 114.254C1102.45 115.767 1102.49 117.286 1102.52 118.799C1102.53 119.231 1102.91 119.593 1103.35 119.584C1104.86 119.549 1106.38 119.514 1107.89 119.479C1108.12 119.474 1108.3 119.382 1108.43 119.251C1108.44 119.242 1108.44 119.236 1108.45 119.227C1108.46 119.221 1108.47 119.212 1108.47 119.206C1108.6 119.077 1108.68 118.894 1108.68 118.658ZM1104.12 117.959C1104.09 116.977 1104.07 116.002 1104.05 115.02C1105.03 114.998 1106 114.975 1106.99 114.953C1107.01 115.934 1107.03 116.91 1107.05 117.891C1106.07 117.914 1105.09 117.933 1104.12 117.959Z" fill="url(#paint34_linear_5_3724)"/>
<path d="M1131.91 140.855C1131.88 139.342 1131.84 137.823 1131.81 136.31C1131.8 135.878 1131.42 135.516 1130.99 135.526C1129.48 135.56 1127.96 135.595 1126.44 135.63C1126.01 135.64 1125.65 136.019 1125.66 136.451C1125.69 137.964 1125.73 139.483 1125.76 140.996C1125.77 141.428 1126.15 141.791 1126.58 141.781C1128.1 141.746 1129.62 141.712 1131.13 141.677C1131.36 141.671 1131.54 141.58 1131.67 141.448C1131.68 141.439 1131.68 141.433 1131.69 141.424C1131.7 141.418 1131.7 141.409 1131.71 141.403C1131.84 141.275 1131.92 141.092 1131.91 140.855ZM1127.35 140.156C1127.33 139.175 1127.31 138.199 1127.29 137.218C1128.27 137.195 1129.24 137.173 1130.22 137.15C1130.25 138.132 1130.27 139.107 1130.29 140.089C1129.31 140.111 1128.33 140.131 1127.35 140.156Z" fill="url(#paint35_linear_5_3724)"/>
<path d="M1155.15 163.053C1155.12 161.54 1155.08 160.021 1155.05 158.508C1155.04 158.076 1154.66 157.713 1154.23 157.723C1152.72 157.758 1151.2 157.793 1149.68 157.827C1149.25 157.837 1148.89 158.217 1148.9 158.649C1148.93 160.162 1148.97 161.681 1149 163.194C1149.01 163.626 1149.39 163.989 1149.82 163.979C1151.34 163.944 1152.86 163.909 1154.37 163.875C1154.6 163.869 1154.78 163.777 1154.91 163.646C1154.92 163.637 1154.92 163.631 1154.93 163.622C1154.94 163.616 1154.94 163.607 1154.95 163.601C1155.08 163.473 1155.16 163.289 1155.15 163.053ZM1150.59 162.354C1150.57 161.372 1150.55 160.397 1150.53 159.415C1151.51 159.393 1152.48 159.371 1153.46 159.348C1153.49 160.329 1153.51 161.305 1153.53 162.286C1152.55 162.309 1151.58 162.331 1150.59 162.354Z" fill="url(#paint36_linear_5_3724)"/>
<path d="M1178.39 185.25C1178.36 183.737 1178.32 182.219 1178.29 180.706C1178.28 180.273 1177.9 179.911 1177.47 179.921C1175.95 179.955 1174.43 179.99 1172.92 180.025C1172.49 180.035 1172.13 180.414 1172.14 180.847C1172.17 182.36 1172.21 183.878 1172.24 185.391C1172.25 185.824 1172.63 186.186 1173.06 186.176C1174.58 186.142 1176.09 186.107 1177.61 186.072C1177.84 186.067 1178.02 185.975 1178.15 185.843C1178.15 185.835 1178.16 185.829 1178.17 185.82C1178.17 185.814 1178.18 185.805 1178.19 185.799C1178.32 185.67 1178.4 185.487 1178.39 185.25ZM1173.83 184.551C1173.81 183.57 1173.79 182.594 1173.76 181.613C1174.75 181.59 1175.72 181.568 1176.7 181.546C1176.73 182.527 1176.75 183.503 1176.77 184.484C1175.79 184.506 1174.81 184.529 1173.83 184.551Z" fill="url(#paint37_linear_5_3724)"/>
<path d="M1201.63 207.447C1201.6 205.934 1201.56 204.415 1201.53 202.902C1201.52 202.47 1201.14 202.108 1200.7 202.118C1199.19 202.152 1197.67 202.187 1196.16 202.222C1195.73 202.232 1195.37 202.611 1195.38 203.043C1195.41 204.556 1195.44 206.075 1195.48 207.588C1195.49 208.021 1195.87 208.383 1196.3 208.373C1197.81 208.338 1199.33 208.304 1200.85 208.269C1201.08 208.264 1201.26 208.172 1201.38 208.04C1201.39 208.031 1201.4 208.025 1201.41 208.016C1201.41 208.01 1201.42 208.001 1201.43 207.995C1201.56 207.867 1201.64 207.684 1201.63 207.447ZM1197.07 206.748C1197.05 205.767 1197.03 204.791 1197 203.81C1197.98 203.787 1198.96 203.765 1199.94 203.742C1199.96 204.724 1199.99 205.699 1200.01 206.681C1199.03 206.703 1198.05 206.726 1197.07 206.748Z" fill="url(#paint38_linear_5_3724)"/>
<path d="M1062.72 96.9811C1062.68 95.4681 1062.65 93.9492 1062.61 92.4362C1062.6 92.0331 1062.28 91.6987 1061.89 91.6579C1061.86 91.6558 1061.83 91.6506 1061.79 91.6514C1060.28 91.6861 1058.76 91.7209 1057.25 91.7556C1056.81 91.7655 1056.45 92.145 1056.46 92.5772C1056.5 94.0902 1056.53 95.6091 1056.57 97.1221C1056.57 97.1572 1056.57 97.1862 1056.58 97.2183C1056.64 97.6056 1056.98 97.9162 1057.39 97.9069C1058.9 97.8722 1060.42 97.8374 1061.93 97.8027C1062.17 97.7974 1062.34 97.7056 1062.47 97.5741C1062.48 97.5652 1062.48 97.5592 1062.49 97.5502C1062.5 97.5442 1062.51 97.5353 1062.51 97.5293C1062.64 97.3978 1062.72 97.2147 1062.72 96.9811ZM1058.16 96.282C1058.15 96.0483 1058.15 95.8146 1058.14 95.581C1058.12 94.8332 1058.11 94.0855 1058.09 93.3436C1058.84 93.3264 1059.58 93.3093 1060.33 93.2923C1060.56 93.2869 1060.79 93.2816 1061.03 93.2762C1061.05 94.2576 1061.07 95.2332 1061.1 96.2146C1060.11 96.2371 1059.14 96.2566 1058.16 96.282Z" fill="url(#paint39_linear_5_3724)"/>
<path d="M1085.96 119.178C1085.92 117.665 1085.89 116.146 1085.85 114.633C1085.84 114.201 1085.46 113.839 1085.03 113.848C1083.52 113.883 1082 113.918 1080.49 113.953C1080.05 113.963 1079.69 114.342 1079.7 114.774C1079.74 116.287 1079.77 117.806 1079.81 119.319C1079.82 119.751 1080.19 120.114 1080.63 120.104C1082.14 120.069 1083.66 120.035 1085.17 120C1085.41 119.994 1085.58 119.903 1085.71 119.771C1085.72 119.762 1085.72 119.756 1085.73 119.747C1085.74 119.741 1085.75 119.732 1085.75 119.726C1085.88 119.598 1085.97 119.415 1085.96 119.178ZM1081.4 118.479C1081.37 117.498 1081.35 116.522 1081.33 115.541C1082.31 115.518 1083.29 115.496 1084.27 115.473C1084.29 116.455 1084.31 117.43 1084.33 118.412C1083.35 118.434 1082.38 118.454 1081.4 118.479Z" fill="url(#paint40_linear_5_3724)"/>
<path d="M1109.2 141.375C1109.16 139.862 1109.13 138.344 1109.09 136.831C1109.08 136.398 1108.7 136.036 1108.27 136.046C1106.76 136.08 1105.24 136.115 1103.73 136.15C1103.29 136.16 1102.93 136.539 1102.94 136.972C1102.98 138.485 1103.01 140.003 1103.05 141.516C1103.06 141.949 1103.44 142.311 1103.87 142.301C1105.38 142.267 1106.9 142.232 1108.41 142.197C1108.65 142.192 1108.83 142.1 1108.95 141.968C1108.96 141.96 1108.96 141.954 1108.97 141.945C1108.98 141.939 1108.99 141.93 1108.99 141.924C1109.12 141.795 1109.21 141.612 1109.2 141.375ZM1104.64 140.676C1104.61 139.695 1104.59 138.719 1104.57 137.738C1105.55 137.715 1106.53 137.693 1107.51 137.671C1107.53 138.652 1107.55 139.628 1107.58 140.609C1106.59 140.631 1105.62 140.651 1104.64 140.676Z" fill="url(#paint41_linear_5_3724)"/>
<path d="M1132.44 163.573C1132.4 162.06 1132.37 160.542 1132.33 159.029C1132.32 158.596 1131.94 158.234 1131.51 158.244C1130 158.278 1128.48 158.313 1126.96 158.348C1126.53 158.358 1126.17 158.737 1126.18 159.17C1126.21 160.683 1126.25 162.201 1126.28 163.714C1126.29 164.147 1126.67 164.509 1127.11 164.499C1128.62 164.465 1130.14 164.43 1131.65 164.395C1131.88 164.39 1132.06 164.298 1132.19 164.166C1132.2 164.158 1132.2 164.152 1132.21 164.143C1132.22 164.137 1132.23 164.128 1132.23 164.122C1132.36 163.993 1132.44 163.81 1132.44 163.573ZM1127.88 162.874C1127.85 161.893 1127.83 160.917 1127.81 159.936C1128.79 159.913 1129.76 159.891 1130.75 159.869C1130.77 160.85 1130.79 161.826 1130.81 162.807C1129.83 162.829 1128.86 162.852 1127.88 162.874Z" fill="url(#paint42_linear_5_3724)"/>
<path d="M1155.67 185.77C1155.64 184.257 1155.6 182.738 1155.57 181.225C1155.56 180.793 1155.18 180.431 1154.75 180.441C1153.23 180.475 1151.72 180.51 1150.2 180.545C1149.77 180.555 1149.41 180.934 1149.42 181.366C1149.45 182.879 1149.49 184.398 1149.52 185.911C1149.53 186.344 1149.91 186.706 1150.34 186.696C1151.86 186.661 1153.38 186.627 1154.89 186.592C1155.12 186.587 1155.3 186.495 1155.43 186.363C1155.44 186.354 1155.44 186.348 1155.45 186.339C1155.46 186.333 1155.46 186.324 1155.47 186.318C1155.6 186.19 1155.68 186.007 1155.67 185.77ZM1151.11 185.071C1151.09 184.09 1151.07 183.114 1151.05 182.133C1152.03 182.11 1153 182.088 1153.98 182.065C1154.01 183.047 1154.03 184.022 1154.05 185.004C1153.07 185.026 1152.09 185.049 1151.11 185.071Z" fill="url(#paint43_linear_5_3724)"/>
<path d="M1178.91 207.968C1178.88 206.455 1178.84 204.936 1178.81 203.423C1178.8 202.991 1178.42 202.628 1177.99 202.638C1176.47 202.673 1174.95 202.708 1173.44 202.742C1173.01 202.752 1172.65 203.132 1172.66 203.564C1172.69 205.077 1172.73 206.596 1172.76 208.109C1172.77 208.541 1173.15 208.903 1173.58 208.894C1175.1 208.859 1176.61 208.824 1178.13 208.789C1178.36 208.784 1178.54 208.692 1178.67 208.561C1178.67 208.552 1178.68 208.546 1178.69 208.537C1178.69 208.531 1178.7 208.522 1178.71 208.516C1178.84 208.387 1178.92 208.204 1178.91 207.968ZM1174.35 207.269C1174.33 206.287 1174.31 205.312 1174.28 204.33C1175.27 204.308 1176.24 204.285 1177.22 204.263C1177.25 205.244 1177.27 206.22 1177.29 207.201C1176.31 207.224 1175.33 207.246 1174.35 207.269Z" fill="url(#paint44_linear_5_3724)"/>
<path d="M1063.24 119.7C1063.2 118.187 1063.17 116.668 1063.13 115.155C1063.12 114.723 1062.74 114.361 1062.31 114.37C1060.8 114.405 1059.28 114.44 1057.77 114.475C1057.34 114.485 1056.97 114.864 1056.98 115.296C1057.02 116.809 1057.05 118.328 1057.09 119.841C1057.1 120.273 1057.48 120.636 1057.91 120.626C1059.42 120.591 1060.94 120.556 1062.45 120.522C1062.69 120.516 1062.87 120.425 1062.99 120.293C1063 120.284 1063.01 120.278 1063.01 120.269C1063.02 120.263 1063.03 120.254 1063.03 120.248C1063.16 120.12 1063.25 119.937 1063.24 119.7ZM1058.68 119.001C1058.66 118.02 1058.63 117.044 1058.61 116.063C1059.59 116.04 1060.57 116.018 1061.55 115.995C1061.57 116.977 1061.59 117.952 1061.62 118.934C1060.63 118.956 1059.66 118.976 1058.68 119.001Z" fill="url(#paint45_linear_5_3724)"/>
<path d="M1086.48 141.897C1086.44 140.384 1086.41 138.865 1086.37 137.352C1086.36 136.92 1085.98 136.557 1085.55 136.567C1084.04 136.602 1082.52 136.637 1081.01 136.671C1080.58 136.681 1080.21 137.061 1080.22 137.493C1080.26 139.006 1080.29 140.525 1080.33 142.038C1080.34 142.47 1080.72 142.833 1081.15 142.823C1082.66 142.788 1084.18 142.753 1085.69 142.719C1085.93 142.713 1086.11 142.621 1086.23 142.49C1086.24 142.481 1086.25 142.475 1086.25 142.466C1086.26 142.46 1086.27 142.451 1086.27 142.445C1086.4 142.317 1086.49 142.133 1086.48 141.897ZM1081.92 141.198C1081.9 140.216 1081.87 139.241 1081.85 138.259C1082.83 138.237 1083.81 138.215 1084.79 138.192C1084.81 139.173 1084.83 140.149 1084.86 141.13C1083.88 141.153 1082.9 141.172 1081.92 141.198Z" fill="url(#paint46_linear_5_3724)"/>
<path d="M1109.72 164.094C1109.68 162.581 1109.65 161.063 1109.61 159.55C1109.6 159.117 1109.23 158.755 1108.79 158.765C1107.28 158.799 1105.76 158.834 1104.25 158.869C1103.82 158.879 1103.45 159.258 1103.46 159.691C1103.5 161.204 1103.53 162.722 1103.57 164.235C1103.58 164.668 1103.96 165.03 1104.39 165.02C1105.9 164.986 1107.42 164.951 1108.93 164.916C1109.17 164.911 1109.35 164.819 1109.47 164.687C1109.48 164.679 1109.49 164.673 1109.5 164.664C1109.5 164.658 1109.51 164.649 1109.51 164.643C1109.64 164.514 1109.73 164.331 1109.72 164.094ZM1105.16 163.395C1105.14 162.414 1105.11 161.438 1105.09 160.457C1106.07 160.434 1107.05 160.412 1108.03 160.39C1108.05 161.371 1108.07 162.347 1108.1 163.328C1107.12 163.35 1106.14 163.37 1105.16 163.395Z" fill="url(#paint47_linear_5_3724)"/>
<path d="M1132.95 186.292C1132.92 184.779 1132.89 183.26 1132.85 181.747C1132.84 181.315 1132.46 180.953 1132.03 180.963C1130.52 180.997 1129 181.032 1127.48 181.067C1127.05 181.077 1126.69 181.456 1126.7 181.888C1126.73 183.401 1126.77 184.92 1126.8 186.433C1126.81 186.865 1127.19 187.228 1127.63 187.218C1129.14 187.183 1130.66 187.149 1132.17 187.114C1132.4 187.108 1132.58 187.017 1132.71 186.885C1132.72 186.876 1132.72 186.87 1132.73 186.861C1132.74 186.855 1132.75 186.846 1132.75 186.84C1132.88 186.712 1132.96 186.529 1132.95 186.292ZM1128.39 185.593C1128.37 184.612 1128.35 183.636 1128.33 182.655C1129.31 182.632 1130.28 182.61 1131.27 182.587C1131.29 183.569 1131.31 184.544 1131.33 185.526C1130.35 185.548 1129.38 185.571 1128.39 185.593Z" fill="url(#paint48_linear_5_3724)"/>
<path d="M1156.2 208.49C1156.16 206.977 1156.13 205.458 1156.09 203.945C1156.08 203.513 1155.7 203.15 1155.27 203.16C1153.76 203.195 1152.24 203.23 1150.72 203.264C1150.29 203.274 1149.93 203.654 1149.94 204.086C1149.97 205.599 1150.01 207.118 1150.04 208.631C1150.05 209.063 1150.43 209.426 1150.87 209.416C1152.38 209.381 1153.9 209.346 1155.41 209.312C1155.64 209.306 1155.82 209.214 1155.95 209.083C1155.96 209.074 1155.96 209.068 1155.97 209.059C1155.98 209.053 1155.99 209.044 1155.99 209.038C1156.12 208.91 1156.2 208.726 1156.2 208.49ZM1151.63 207.791C1151.61 206.809 1151.59 205.834 1151.57 204.852C1152.55 204.83 1153.52 204.808 1154.51 204.785C1154.53 205.767 1154.55 206.742 1154.57 207.723C1153.59 207.746 1152.62 207.768 1151.63 207.791Z" fill="url(#paint49_linear_5_3724)"/>
<path d="M1179.43 230.686C1179.4 229.173 1179.36 227.655 1179.33 226.142C1179.32 225.709 1178.94 225.347 1178.51 225.357C1176.99 225.391 1175.48 225.426 1173.96 225.461C1173.53 225.471 1173.17 225.85 1173.18 226.283C1173.21 227.796 1173.25 229.314 1173.28 230.827C1173.29 231.26 1173.67 231.622 1174.1 231.612C1175.62 231.578 1177.14 231.543 1178.65 231.508C1178.88 231.503 1179.06 231.411 1179.19 231.28C1179.2 231.271 1179.2 231.265 1179.21 231.256C1179.22 231.25 1179.22 231.241 1179.23 231.235C1179.36 231.106 1179.44 230.923 1179.43 230.686ZM1174.87 229.987C1174.85 229.006 1174.83 228.03 1174.81 227.049C1175.79 227.026 1176.76 227.004 1177.74 226.982C1177.77 227.963 1177.79 228.939 1177.81 229.92C1176.83 229.942 1175.85 229.965 1174.87 229.987Z" fill="url(#paint50_linear_5_3724)"/>
<path d="M1128.79 4.54119C1128.76 3.02819 1128.73 1.50936 1128.69 -0.00364853C1128.68 -0.435935 1128.3 -0.798379 1127.87 -0.788468C1126.36 -0.753778 1124.84 -0.718964 1123.32 -0.684274C1122.89 -0.674363 1122.53 -0.294909 1122.54 0.137378C1122.57 1.65038 1122.61 3.16924 1122.64 4.68224C1122.65 5.11453 1123.03 5.47697 1123.47 5.46706C1124.98 5.43237 1126.5 5.39754 1128.01 5.36285C1128.24 5.35749 1128.42 5.26571 1128.55 5.13425C1128.56 5.12529 1128.56 5.11931 1128.57 5.11034C1128.58 5.10437 1128.59 5.0954 1128.59 5.08943C1128.72 4.95796 1128.8 4.77785 1128.79 4.54119ZM1124.23 3.84509C1124.21 2.86369 1124.19 1.88811 1124.16 0.906704C1125.15 0.884203 1126.12 0.861845 1127.1 0.839343C1127.13 1.82075 1127.15 2.79631 1127.17 3.77772C1126.19 3.79723 1125.21 3.81974 1124.23 3.84509Z" fill="url(#paint51_linear_5_3724)"/>
<path d="M1106.08 5.0627C1106.04 3.54969 1106.01 2.03084 1105.97 0.517836C1105.96 0.0855491 1105.58 -0.276895 1105.15 -0.266983C1103.64 -0.232294 1102.12 -0.197461 1100.61 -0.162772C1100.17 -0.15286 1099.81 0.226593 1099.82 0.65888C1099.86 2.17188 1099.89 3.69072 1099.92 5.20372C1099.93 5.63601 1100.31 5.99845 1100.75 5.98854C1102.26 5.95385 1103.78 5.91904 1105.29 5.88435C1105.52 5.87899 1105.7 5.78722 1105.83 5.65575C1105.84 5.64679 1105.84 5.64081 1105.85 5.63185C1105.86 5.62587 1105.87 5.6169 1105.87 5.61093C1106 5.47946 1106.08 5.29935 1106.08 5.0627ZM1101.51 4.36658C1101.49 3.38517 1101.47 2.40961 1101.45 1.42821C1102.43 1.40571 1103.4 1.38333 1104.38 1.36083C1104.41 2.34224 1104.43 3.31781 1104.45 4.29922C1103.47 4.31873 1102.49 4.34122 1101.51 4.36658Z" fill="url(#paint52_linear_5_3724)"/>
<path d="M1083.36 5.58321C1083.32 4.0702 1083.29 2.55135 1083.25 1.03834C1083.24 0.606057 1082.86 0.243613 1082.43 0.253524C1080.92 0.288214 1079.4 0.323047 1077.88 0.357736C1077.45 0.367648 1077.09 0.747101 1077.1 1.17939C1077.13 2.69239 1077.17 4.21123 1077.2 5.72423C1077.21 6.15652 1077.59 6.51896 1078.03 6.50905C1079.54 6.47436 1081.06 6.43955 1082.57 6.40486C1082.8 6.3995 1082.98 6.30772 1083.11 6.17626C1083.12 6.1673 1083.12 6.16132 1083.13 6.15235C1083.14 6.14638 1083.15 6.13741 1083.15 6.13144C1083.27 6.00296 1083.36 5.81986 1083.36 5.58321ZM1078.79 4.88423C1078.77 3.90282 1078.74 2.92727 1078.72 1.94586C1079.7 1.92336 1080.68 1.90098 1081.66 1.87848C1081.68 2.85989 1081.71 3.83546 1081.73 4.81687C1080.75 4.83924 1079.77 4.86173 1078.79 4.88423Z" fill="url(#paint53_linear_5_3724)"/>
<path d="M1106.6 27.7807C1106.56 26.2677 1106.53 24.7489 1106.49 23.2359C1106.48 22.8036 1106.1 22.4411 1105.67 22.451C1104.16 22.4857 1102.64 22.5206 1101.12 22.5552C1100.69 22.5652 1100.33 22.9446 1100.34 23.3769C1100.37 24.8899 1100.41 26.4087 1100.44 27.9217C1100.45 28.354 1100.83 28.7165 1101.27 28.7066C1102.78 28.6719 1104.3 28.6371 1105.81 28.6024C1106.04 28.597 1106.22 28.5052 1106.35 28.3738C1106.36 28.3648 1106.36 28.3588 1106.37 28.3499C1106.38 28.3439 1106.39 28.3349 1106.39 28.3289C1106.51 28.2005 1106.6 28.0174 1106.6 27.7807ZM1102.03 27.0846C1102.01 26.1032 1101.99 25.1276 1101.97 24.1462C1102.95 24.1237 1103.92 24.1013 1104.9 24.0788C1104.93 25.0603 1104.95 26.0358 1104.97 27.0172C1103.99 27.0367 1103.01 27.0592 1102.03 27.0846Z" fill="url(#paint54_linear_5_3724)"/>
<path d="M1060.64 6.10369C1060.6 4.59069 1060.57 3.07186 1060.53 1.55885C1060.52 1.12656 1060.15 0.764121 1059.71 0.774032C1058.2 0.808722 1056.68 0.843536 1055.17 0.878226C1054.74 0.888137 1054.37 1.26759 1054.38 1.69988C1054.42 3.21288 1054.45 4.73174 1054.49 6.24474C1054.5 6.67703 1054.88 7.03947 1055.31 7.02956C1056.82 6.99487 1058.34 6.96004 1059.85 6.92535C1060.09 6.91999 1060.27 6.82821 1060.39 6.69675C1060.4 6.68779 1060.41 6.68182 1060.41 6.67286C1060.42 6.66689 1060.43 6.65792 1060.43 6.65194C1060.56 6.52347 1060.64 6.34035 1060.64 6.10369ZM1056.07 5.40474C1056.05 4.42333 1056.03 3.44776 1056.01 2.46635C1056.99 2.44385 1057.96 2.42149 1058.94 2.39899C1058.97 3.38039 1058.99 4.35595 1059.01 5.33736C1058.03 5.36271 1057.05 5.38224 1056.07 5.40474Z" fill="url(#paint55_linear_5_3724)"/>
<path d="M1083.88 28.3019C1083.84 26.7889 1083.81 25.2701 1083.77 23.7571C1083.76 23.3248 1083.38 22.9624 1082.95 22.9723C1081.44 23.007 1079.92 23.0418 1078.41 23.0765C1077.97 23.0864 1077.61 23.4658 1077.62 23.8981C1077.66 25.4111 1077.69 26.93 1077.73 28.443C1077.74 28.8753 1078.11 29.2377 1078.55 29.2278C1080.06 29.1931 1081.58 29.1583 1083.09 29.1236C1083.33 29.1182 1083.5 29.0265 1083.63 28.895C1083.64 28.886 1083.64 28.8801 1083.65 28.8711C1083.66 28.8651 1083.67 28.8562 1083.67 28.8502C1083.8 28.7217 1083.88 28.5386 1083.88 28.3019ZM1079.31 27.6058C1079.29 26.6244 1079.27 25.6489 1079.25 24.6674C1080.23 24.6449 1081.2 24.6226 1082.18 24.6001C1082.21 25.5815 1082.23 26.557 1082.25 27.5385C1081.27 27.561 1080.29 27.5805 1079.31 27.6058Z" fill="url(#paint56_linear_5_3724)"/>
<path d="M1037.92 6.62372C1037.89 5.11071 1037.85 3.59187 1037.82 2.07887C1037.81 1.64658 1037.43 1.28414 1036.99 1.29405C1035.48 1.32874 1033.96 1.36356 1032.45 1.39825C1032.02 1.40816 1031.65 1.78761 1031.66 2.2199C1031.7 3.7329 1031.73 5.25175 1031.77 6.76476C1031.78 7.19705 1032.16 7.55949 1032.59 7.54958C1034.1 7.51489 1035.62 7.48006 1037.14 7.44537C1037.37 7.44001 1037.55 7.34824 1037.67 7.21677C1037.68 7.20781 1037.69 7.20183 1037.7 7.19287C1037.7 7.18689 1037.71 7.17792 1037.72 7.17195C1037.84 7.04347 1037.92 6.86037 1037.92 6.62372ZM1033.35 5.92476C1033.33 4.94335 1033.31 3.96778 1033.29 2.98637C1034.27 2.96387 1035.24 2.94151 1036.22 2.91901C1036.25 3.90042 1036.27 4.87597 1036.29 5.85738C1035.31 5.88274 1034.34 5.90226 1033.35 5.92476Z" fill="url(#paint57_linear_5_3724)"/>
<path d="M1061.16 28.8222C1061.13 27.3092 1061.09 25.7904 1061.06 24.2774C1061.05 23.8451 1060.67 23.4826 1060.23 23.4925C1058.72 23.5272 1057.2 23.562 1055.69 23.5967C1055.26 23.6066 1054.89 23.9861 1054.9 24.4184C1054.94 25.9314 1054.97 27.4502 1055.01 28.9632C1055.02 29.3955 1055.4 29.758 1055.83 29.7481C1057.34 29.7134 1058.86 29.6785 1060.38 29.6439C1060.61 29.6385 1060.79 29.5467 1060.91 29.4153C1060.92 29.4063 1060.93 29.4003 1060.94 29.3913C1060.94 29.3854 1060.95 29.3764 1060.96 29.3704C1061.08 29.242 1061.16 29.0589 1061.16 28.8222ZM1056.59 28.1232C1056.57 27.1418 1056.55 26.1663 1056.53 25.1849C1057.51 25.1624 1058.48 25.14 1059.46 25.1175C1059.49 26.0989 1059.51 27.0745 1059.53 28.0559C1058.55 28.0812 1057.58 28.1007 1056.59 28.1232Z" fill="url(#paint58_linear_5_3724)"/>
<path d="M1084.4 51.0197C1084.36 49.5067 1084.33 47.9879 1084.29 46.4749C1084.28 46.0426 1083.9 45.6801 1083.47 45.69C1081.96 45.7247 1080.44 45.7596 1078.93 45.7942C1078.5 45.8042 1078.13 46.1836 1078.14 46.6159C1078.18 48.1289 1078.21 49.6478 1078.25 51.1608C1078.26 51.593 1078.64 51.9555 1079.07 51.9456C1080.58 51.9109 1082.1 51.8761 1083.61 51.8414C1083.85 51.836 1084.03 51.7442 1084.15 51.6128C1084.16 51.6038 1084.17 51.5978 1084.17 51.5889C1084.18 51.5829 1084.19 51.5739 1084.19 51.5679C1084.32 51.4395 1084.4 51.2564 1084.4 51.0197ZM1079.84 50.3236C1079.81 49.3422 1079.79 48.3666 1079.77 47.3852C1080.75 47.3627 1081.72 47.3404 1082.71 47.3179C1082.73 48.2993 1082.75 49.2748 1082.77 50.2562C1081.79 50.2787 1080.81 50.2983 1079.84 50.3236Z" fill="url(#paint59_linear_5_3724)"/>
<path d="M1015.2 7.14839C1015.16 5.63539 1015.13 4.11653 1015.09 2.60353C1015.08 2.17124 1014.7 1.8088 1014.27 1.81871C1012.76 1.8534 1011.24 1.88823 1009.73 1.92292C1009.29 1.93283 1008.93 2.31229 1008.94 2.74457C1008.98 4.25758 1009.01 5.77641 1009.05 7.28942C1009.06 7.7217 1009.44 8.08415 1009.87 8.07424C1011.38 8.03955 1012.9 8.00474 1014.41 7.97005C1014.65 7.96469 1014.83 7.87291 1014.95 7.74145C1014.96 7.73249 1014.96 7.72651 1014.97 7.71754C1014.98 7.71157 1014.99 7.7026 1014.99 7.69663C1015.12 7.56516 1015.2 7.38206 1015.2 7.14839ZM1010.63 6.44643C1010.61 5.46502 1010.59 4.48946 1010.57 3.50806C1011.55 3.48556 1012.52 3.46318 1013.5 3.44068C1013.53 4.42209 1013.55 5.39766 1013.57 6.37907C1012.59 6.40442 1011.62 6.42393 1010.63 6.44643Z" fill="url(#paint60_linear_5_3724)"/>
<path d="M1038.44 29.3459C1038.4 27.8329 1038.37 26.314 1038.33 24.801C1038.32 24.3688 1037.94 24.0063 1037.51 24.0162C1036 24.0509 1034.48 24.0857 1032.97 24.1204C1032.53 24.1303 1032.17 24.5098 1032.18 24.9421C1032.22 26.4551 1032.25 27.9739 1032.29 29.4869C1032.3 29.9192 1032.68 30.2817 1033.11 30.2717C1034.62 30.2371 1036.14 30.2022 1037.65 30.1676C1037.89 30.1622 1038.07 30.0704 1038.19 29.939C1038.2 29.93 1038.21 29.924 1038.21 29.915C1038.22 29.9091 1038.23 29.9001 1038.23 29.8941C1038.36 29.7627 1038.44 29.5796 1038.44 29.3459ZM1033.87 28.6439C1033.85 27.6625 1033.83 26.687 1033.81 25.7056C1034.79 25.6831 1035.76 25.6607 1036.75 25.6382C1036.77 26.6196 1036.79 27.5952 1036.81 28.5766C1035.83 28.6019 1034.86 28.6214 1033.87 28.6439Z" fill="url(#paint61_linear_5_3724)"/>
<path d="M1061.68 51.5441C1061.64 50.0311 1061.61 48.5123 1061.57 46.9993C1061.56 46.567 1061.18 46.2046 1060.75 46.2145C1059.24 46.2492 1057.72 46.284 1056.21 46.3187C1055.77 46.3286 1055.41 46.708 1055.42 47.1403C1055.45 48.6533 1055.49 50.1722 1055.52 51.6852C1055.53 52.1175 1055.91 52.4799 1056.35 52.47C1057.86 52.4353 1059.38 52.4005 1060.89 52.3658C1061.12 52.3604 1061.3 52.2687 1061.43 52.1372C1061.44 52.1282 1061.44 52.1223 1061.45 52.1133C1061.46 52.1073 1061.47 52.0983 1061.47 52.0924C1061.6 51.9609 1061.68 51.7778 1061.68 51.5441ZM1057.12 50.845C1057.09 49.8636 1057.07 48.8881 1057.05 47.9067C1058.03 47.8842 1059 47.8618 1059.99 47.8393C1060.01 48.8207 1060.03 49.7963 1060.05 50.7777C1059.07 50.8002 1058.09 50.8197 1057.12 50.845Z" fill="url(#paint62_linear_5_3724)"/>
<path d="M992.482 7.67012C992.448 6.15712 992.413 4.63826 992.378 3.12526C992.368 2.69297 991.989 2.33053 991.557 2.34044C990.044 2.37513 988.525 2.40996 987.012 2.44465C986.579 2.45456 986.217 2.83402 986.227 3.2663C986.262 4.77931 986.296 6.29814 986.331 7.81115C986.341 8.24343 986.72 8.60588 987.153 8.59596C988.666 8.56127 990.184 8.52646 991.697 8.49177C991.931 8.48641 992.11 8.39462 992.236 8.26316C992.244 8.2542 992.25 8.24823 992.259 8.23927C992.264 8.2333 992.273 8.22433 992.279 8.21835C992.404 8.08689 992.488 7.90379 992.482 7.67012ZM987.919 6.96816C987.897 5.98675 987.874 5.01119 987.852 4.02979C988.833 4.00728 989.809 3.98491 990.79 3.96241C990.813 4.94381 990.835 5.91939 990.857 6.9008C989.876 6.9233 988.9 6.94566 987.919 6.96816Z" fill="url(#paint63_linear_5_3724)"/>
<path d="M1015.72 29.8664C1015.68 28.3534 1015.65 26.8346 1015.61 25.3215C1015.6 24.8893 1015.23 24.5268 1014.79 24.5367C1013.28 24.5714 1011.76 24.6062 1010.25 24.6409C1009.82 24.6509 1009.45 25.0303 1009.46 25.4626C1009.5 26.9756 1009.53 28.4944 1009.57 30.0074C1009.58 30.4397 1009.96 30.8022 1010.39 30.7923C1011.9 30.7576 1013.42 30.7228 1014.93 30.6881C1015.17 30.6827 1015.35 30.5909 1015.47 30.4594C1015.48 30.4505 1015.49 30.4445 1015.49 30.4356C1015.5 30.4296 1015.51 30.4206 1015.51 30.4146C1015.64 30.2832 1015.72 30.1001 1015.72 29.8664ZM1011.16 29.1644C1011.13 28.183 1011.11 27.2075 1011.09 26.2261C1012.07 26.2036 1013.04 26.1812 1014.03 26.1587C1014.05 27.1401 1014.07 28.1157 1014.09 29.0971C1013.12 29.1224 1012.14 29.1419 1011.16 29.1644Z" fill="url(#paint64_linear_5_3724)"/>
<path d="M1038.96 52.0647C1038.92 50.5516 1038.89 49.0328 1038.85 47.5198C1038.84 47.0875 1038.47 46.7251 1038.03 46.735C1036.52 46.7697 1035 46.8045 1033.49 46.8392C1033.06 46.8491 1032.69 47.2285 1032.7 47.6608C1032.74 49.1738 1032.77 50.6927 1032.81 52.2057C1032.82 52.638 1033.2 53.0004 1033.63 52.9905C1035.14 52.9558 1036.66 52.921 1038.17 52.8863C1038.41 52.8809 1038.59 52.7892 1038.71 52.6577C1038.72 52.6487 1038.73 52.6428 1038.74 52.6338C1038.74 52.6278 1038.75 52.6189 1038.76 52.6129C1038.88 52.4814 1038.96 52.2983 1038.96 52.0647ZM1034.4 51.3627C1034.37 50.3813 1034.35 49.4057 1034.33 48.4243C1035.31 48.4018 1036.29 48.3794 1037.27 48.3569C1037.29 49.3383 1037.31 50.3139 1037.33 51.2953C1036.36 51.3207 1035.38 51.3402 1034.4 51.3627Z" fill="url(#paint65_linear_5_3724)"/>
<path d="M1062.2 74.2624C1062.16 72.7494 1062.13 71.2305 1062.09 69.7175C1062.08 69.2853 1061.7 68.9228 1061.27 68.9327C1059.76 68.9674 1058.24 69.0022 1056.73 69.0369C1056.29 69.0468 1055.93 69.4263 1055.94 69.8586C1055.98 71.3716 1056.01 72.8904 1056.05 74.4034C1056.06 74.8357 1056.44 75.1982 1056.87 75.1882C1058.38 75.1536 1059.9 75.1187 1061.41 75.0841C1061.65 75.0787 1061.83 74.9869 1061.95 74.8554C1061.96 74.8465 1061.96 74.8405 1061.97 74.8316C1061.98 74.8256 1061.99 74.8166 1061.99 74.8106C1062.12 74.6792 1062.2 74.4961 1062.2 74.2624ZM1057.64 73.5633C1057.61 72.5819 1057.59 71.6063 1057.57 70.6249C1058.55 70.6024 1059.53 70.58 1060.51 70.5575C1060.53 71.539 1060.55 72.5145 1060.58 73.4959C1059.59 73.5184 1058.62 73.5379 1057.64 73.5633Z" fill="url(#paint66_linear_5_3724)"/>
<path d="M969.762 8.18987C969.727 6.67687 969.692 5.15804 969.657 3.64503C969.648 3.21275 969.268 2.8503 968.836 2.86021C967.323 2.8949 965.804 2.92972 964.291 2.96441C963.859 2.97432 963.496 3.35377 963.506 3.78606C963.541 5.29906 963.576 6.81792 963.61 8.33092C963.62 8.76321 964 9.12565 964.432 9.11574C965.945 9.08105 967.464 9.04622 968.977 9.01153C969.21 9.00617 969.39 8.9144 969.515 8.78293C969.524 8.77397 969.529 8.76799 969.538 8.75903C969.544 8.75305 969.552 8.7441 969.558 8.73813C969.684 8.60666 969.767 8.42354 969.762 8.18987ZM965.198 7.48793C965.176 6.50652 965.153 5.53095 965.131 4.54954C966.112 4.52704 967.088 4.50468 968.069 4.48218C968.092 5.46359 968.114 6.43914 968.137 7.42055C967.155 7.44305 966.18 7.46543 965.198 7.48793Z" fill="url(#paint67_linear_5_3724)"/>
<path d="M993.002 30.3876C992.967 28.8746 992.932 27.3558 992.898 25.8428C992.888 25.4105 992.508 25.0481 992.076 25.058C990.563 25.0927 989.044 25.1275 987.531 25.1622C987.099 25.1721 986.736 25.5515 986.746 25.9838C986.781 27.4968 986.816 29.0157 986.851 30.5287C986.86 30.961 987.24 31.3234 987.672 31.3135C989.185 31.2788 990.704 31.244 992.217 31.2093C992.451 31.2039 992.63 31.1122 992.755 30.9807C992.764 30.9717 992.77 30.9657 992.778 30.9568C992.784 30.9508 992.792 30.9419 992.798 30.9359C992.924 30.8044 993.007 30.6213 993.002 30.3876ZM988.439 29.6857C988.416 28.7043 988.394 27.7287 988.371 26.7473C989.353 26.7248 990.328 26.7024 991.31 26.6799C991.332 27.6613 991.354 28.6369 991.377 29.6183C990.399 29.6437 989.42 29.6632 988.439 29.6857Z" fill="url(#paint68_linear_5_3724)"/>
<path d="M1016.24 52.5851C1016.21 51.0721 1016.17 49.5533 1016.14 48.0403C1016.13 47.608 1015.75 47.2456 1015.31 47.2555C1013.8 47.2902 1012.28 47.325 1010.77 47.3597C1010.34 47.3696 1009.97 47.749 1009.98 48.1813C1010.02 49.6943 1010.05 51.2132 1010.09 52.7262C1010.1 53.1585 1010.48 53.5209 1010.91 53.511C1012.42 53.4763 1013.94 53.4415 1015.46 53.4068C1015.69 53.4014 1015.87 53.3097 1015.99 53.1782C1016 53.1692 1016.01 53.1633 1016.02 53.1543C1016.02 53.1483 1016.03 53.1394 1016.04 53.1334C1016.16 53.0019 1016.25 52.8188 1016.24 52.5851ZM1011.68 51.8832C1011.65 50.9018 1011.63 49.9262 1011.61 48.9448C1012.59 48.9223 1013.57 48.8999 1014.55 48.8774C1014.57 49.8588 1014.59 50.8344 1014.62 51.8158C1013.64 51.8412 1012.66 51.8607 1011.68 51.8832Z" fill="url(#paint69_linear_5_3724)"/>
<path d="M1039.48 74.7836C1039.45 73.2706 1039.41 71.7518 1039.38 70.2388C1039.37 69.8065 1038.99 69.4441 1038.55 69.454C1037.04 69.4887 1035.52 69.5235 1034.01 69.5582C1033.58 69.5681 1033.22 69.9475 1033.22 70.3798C1033.26 71.8928 1033.29 73.4117 1033.33 74.9247C1033.34 75.357 1033.72 75.7194 1034.15 75.7095C1035.66 75.6748 1037.18 75.64 1038.7 75.6053C1038.93 75.5999 1039.11 75.5081 1039.23 75.3767C1039.24 75.3677 1039.25 75.3617 1039.26 75.3528C1039.26 75.3468 1039.27 75.3379 1039.28 75.3319C1039.4 75.2004 1039.49 75.0173 1039.48 74.7836ZM1034.92 74.0845C1034.9 73.1031 1034.88 72.1276 1034.85 71.1461C1035.83 71.1236 1036.81 71.1013 1037.79 71.0788C1037.81 72.0602 1037.84 73.0357 1037.86 74.0172C1036.88 74.0397 1035.9 74.0592 1034.92 74.0845Z" fill="url(#paint70_linear_5_3724)"/>
<path d="M947.039 8.70794C947.004 7.19494 946.969 5.6761 946.935 4.1631C946.925 3.73081 946.545 3.36837 946.113 3.37828C944.6 3.41297 943.081 3.44778 941.568 3.48247C941.136 3.49239 940.774 3.87184 940.784 4.30413C940.818 5.81713 940.853 7.33598 940.888 8.84899C940.898 9.28127 941.277 9.64372 941.709 9.63381C943.222 9.59912 944.741 9.56429 946.254 9.5296C946.488 9.52424 946.667 9.43246 946.792 9.301C946.801 9.29204 946.807 9.28605 946.815 9.27709C946.821 9.27112 946.83 9.26215 946.835 9.25617C946.964 9.12756 947.047 8.94447 947.039 8.70794ZM942.479 8.00885C942.456 7.02744 942.434 6.05187 942.411 5.07046C943.393 5.04796 944.368 5.0256 945.35 5.0031C945.372 5.98451 945.395 6.96006 945.417 7.94147C944.436 7.96397 943.46 7.98635 942.479 8.00885Z" fill="url(#paint71_linear_5_3724)"/>
<path d="M970.283 30.9094C970.248 29.3964 970.214 27.8775 970.179 26.3645C970.169 25.9322 969.79 25.5698 969.357 25.5797C967.844 25.6144 966.325 25.6492 964.812 25.6839C964.38 25.6938 964.018 26.0733 964.028 26.5055C964.062 28.0185 964.097 29.5374 964.132 31.0504C964.142 31.4827 964.521 31.8451 964.953 31.8352C966.466 31.8005 967.985 31.7657 969.498 31.731C969.732 31.7257 969.911 31.6339 970.037 31.5024C970.045 31.4935 970.051 31.4875 970.059 31.4785C970.065 31.4725 970.074 31.4636 970.079 31.4576C970.205 31.3261 970.288 31.143 970.283 30.9094ZM965.72 30.2074C965.697 29.226 965.675 28.2504 965.652 27.269C966.634 27.2465 967.609 27.2242 968.591 27.2017C968.613 28.1831 968.636 29.1586 968.658 30.14C967.677 30.1625 966.701 30.1849 965.72 30.2074Z" fill="url(#paint72_linear_5_3724)"/>
<path d="M993.519 53.1057C993.485 51.5926 993.45 50.0738 993.415 48.5608C993.405 48.1285 993.026 47.7661 992.594 47.776C991.081 47.8107 989.562 47.8455 988.049 47.8802C987.617 47.8901 987.254 48.2695 987.264 48.7018C987.299 50.2148 987.333 51.7337 987.368 53.2467C987.378 53.679 987.757 54.0414 988.19 54.0315C989.703 53.9968 991.222 53.962 992.735 53.9273C992.968 53.9219 993.147 53.8302 993.273 53.6987C993.282 53.6897 993.287 53.6838 993.296 53.6748C993.301 53.6688 993.31 53.6599 993.316 53.6539C993.441 53.5224 993.525 53.3393 993.519 53.1057ZM988.956 52.4037C988.934 51.4223 988.911 50.4467 988.889 49.4653C989.87 49.4428 990.846 49.4205 991.827 49.398C991.85 50.3794 991.872 51.3549 991.895 52.3363C990.916 52.3617 989.938 52.3812 988.956 52.4037Z" fill="url(#paint73_linear_5_3724)"/>
<path d="M1016.76 75.3041C1016.73 73.7911 1016.69 72.2723 1016.66 70.7593C1016.65 70.327 1016.27 69.9646 1015.83 69.9745C1014.32 70.0092 1012.8 70.044 1011.29 70.0787C1010.86 70.0886 1010.49 70.468 1010.5 70.9003C1010.54 72.4133 1010.57 73.9322 1010.61 75.4452C1010.62 75.8775 1011 76.2399 1011.43 76.23C1012.94 76.1953 1014.46 76.1605 1015.97 76.1258C1016.21 76.1204 1016.39 76.0287 1016.51 75.8972C1016.52 75.8882 1016.53 75.8822 1016.54 75.8733C1016.54 75.8673 1016.55 75.8583 1016.56 75.8524C1016.68 75.7209 1016.77 75.5378 1016.76 75.3041ZM1012.2 74.6022C1012.17 73.6208 1012.15 72.6452 1012.13 71.6638C1013.11 71.6413 1014.09 71.6189 1015.07 71.5964C1015.09 72.5778 1015.11 73.5534 1015.13 74.5348C1014.16 74.5602 1013.18 74.5797 1012.2 74.6022Z" fill="url(#paint74_linear_5_3724)"/>
<path d="M1040 97.5016C1039.97 95.9886 1039.93 94.4698 1039.9 92.9568C1039.89 92.5245 1039.51 92.1621 1039.07 92.172C1037.56 92.2067 1036.04 92.2415 1034.53 92.2762C1034.1 92.2861 1033.73 92.6655 1033.74 93.0978C1033.78 94.6108 1033.81 96.1297 1033.85 97.6427C1033.86 98.075 1034.24 98.4374 1034.67 98.4275C1036.18 98.3928 1037.7 98.358 1039.22 98.3233C1039.45 98.3179 1039.63 98.2262 1039.75 98.0947C1039.76 98.0857 1039.77 98.0798 1039.78 98.0708C1039.78 98.0648 1039.79 98.0559 1039.8 98.0499C1039.92 97.9184 1040.01 97.7353 1040 97.5016ZM1035.44 96.8026C1035.42 95.8211 1035.39 94.8456 1035.37 93.8642C1036.35 93.8417 1037.33 93.8193 1038.31 93.7968C1038.33 94.7782 1038.36 95.7538 1038.38 96.7352C1037.4 96.7577 1036.42 96.7772 1035.44 96.8026Z" fill="url(#paint75_linear_5_3724)"/>
</g>
<rect x="1361.72" y="339.488" width="226.607" height="284.947" rx="20" transform="rotate(135 1361.72 339.488)" fill="#4EAF4E"/>
</g>
<defs>
<linearGradient id="paint0_linear_5_3724" x1="1184.92" y1="-291.478" x2="1201.41" y2="249.642" gradientUnits="userSpaceOnUse">
<stop stop-color="#BE965D"/>
<stop offset="0.2784" stop-color="#976F40"/>
<stop offset="0.4259" stop-color="#C99B61"/>
<stop offset="0.5584" stop-color="#F0BE7B"/>
<stop offset="0.6275" stop-color="#FFCB85"/>
<stop offset="0.7085" stop-color="#EEBC79"/>
<stop offset="0.8693" stop-color="#C0935B"/>
<stop offset="1" stop-color="#976F40"/>
</linearGradient>
<linearGradient id="paint1_linear_5_3724" x1="1162.2" y1="-290.784" x2="1178.7" y2="250.335" gradientUnits="userSpaceOnUse">
<stop stop-color="#BE965D"/>
<stop offset="0.2784" stop-color="#976F40"/>
<stop offset="0.4259" stop-color="#C99B61"/>
<stop offset="0.5584" stop-color="#F0BE7B"/>
<stop offset="0.6275" stop-color="#FFCB85"/>
<stop offset="0.7085" stop-color="#EEBC79"/>
<stop offset="0.8693" stop-color="#C0935B"/>
<stop offset="1" stop-color="#976F40"/>
</linearGradient>
<linearGradient id="paint2_linear_5_3724" x1="1184.74" y1="-291.472" x2="1201.24" y2="249.647" gradientUnits="userSpaceOnUse">
<stop stop-color="#BE965D"/>
<stop offset="0.2784" stop-color="#976F40"/>
<stop offset="0.4259" stop-color="#C99B61"/>
<stop offset="0.5584" stop-color="#F0BE7B"/>
<stop offset="0.6275" stop-color="#FFCB85"/>
<stop offset="0.7085" stop-color="#EEBC79"/>
<stop offset="0.8693" stop-color="#C0935B"/>
<stop offset="1" stop-color="#976F40"/>
</linearGradient>
<linearGradient id="paint3_linear_5_3724" x1="1139.49" y1="-290.092" x2="1155.99" y2="251.028" gradientUnits="userSpaceOnUse">
<stop stop-color="#BE965D"/>
<stop offset="0.2784" stop-color="#976F40"/>
<stop offset="0.4259" stop-color="#C99B61"/>
<stop offset="0.5584" stop-color="#F0BE7B"/>
<stop offset="0.6275" stop-color="#FFCB85"/>
<stop offset="0.7085" stop-color="#EEBC79"/>
<stop offset="0.8693" stop-color="#C0935B"/>
<stop offset="1" stop-color="#976F40"/>
</linearGradient>
<linearGradient id="paint4_linear_5_3724" x1="1162.03" y1="-290.78" x2="1178.53" y2="250.34" gradientUnits="userSpaceOnUse">
<stop stop-color="#BE965D"/>
<stop offset="0.2784" stop-color="#976F40"/>
<stop offset="0.4259" stop-color="#C99B61"/>
<stop offset="0.5584" stop-color="#F0BE7B"/>
<stop offset="0.6275" stop-color="#FFCB85"/>
<stop offset="0.7085" stop-color="#EEBC79"/>
<stop offset="0.8693" stop-color="#C0935B"/>
<stop offset="1" stop-color="#976F40"/>
</linearGradient>
<linearGradient id="paint5_linear_5_3724" x1="1184.57" y1="-291.468" x2="1201.07" y2="249.652" gradientUnits="userSpaceOnUse">
<stop stop-color="#BE965D"/>
<stop offset="0.2784" stop-color="#976F40"/>
<stop offset="0.4259" stop-color="#C99B61"/>
<stop offset="0.5584" stop-color="#F0BE7B"/>
<stop offset="0.6275" stop-color="#FFCB85"/>
<stop offset="0.7085" stop-color="#EEBC79"/>
<stop offset="0.8693" stop-color="#C0935B"/>
<stop offset="1" stop-color="#976F40"/>
</linearGradient>
<linearGradient id="paint6_linear_5_3724" x1="1139.32" y1="-290.086" x2="1155.81" y2="251.033" gradientUnits="userSpaceOnUse">
<stop stop-color="#BE965D"/>
<stop offset="0.2784" stop-color="#976F40"/>
<stop offset="0.4259" stop-color="#C99B61"/>
<stop offset="0.5584" stop-color="#F0BE7B"/>
<stop offset="0.6275" stop-color="#FFCB85"/>
<stop offset="0.7085" stop-color="#EEBC79"/>
<stop offset="0.8693" stop-color="#C0935B"/>
<stop offset="1" stop-color="#976F40"/>
</linearGradient>
<linearGradient id="paint7_linear_5_3724" x1="1161.86" y1="-290.775" x2="1178.36" y2="250.345" gradientUnits="userSpaceOnUse">
<stop stop-color="#BE965D"/>
<stop offset="0.2784" stop-color="#976F40"/>
<stop offset="0.4259" stop-color="#C99B61"/>
<stop offset="0.5584" stop-color="#F0BE7B"/>
<stop offset="0.6275" stop-color="#FFCB85"/>
<stop offset="0.7085" stop-color="#EEBC79"/>
<stop offset="0.8693" stop-color="#C0935B"/>
<stop offset="1" stop-color="#976F40"/>
</linearGradient>
<linearGradient id="paint8_linear_5_3724" x1="1184.4" y1="-291.462" x2="1200.9" y2="249.657" gradientUnits="userSpaceOnUse">
<stop stop-color="#BE965D"/>
<stop offset="0.2784" stop-color="#976F40"/>
<stop offset="0.4259" stop-color="#C99B61"/>
<stop offset="0.5584" stop-color="#F0BE7B"/>
<stop offset="0.6275" stop-color="#FFCB85"/>
<stop offset="0.7085" stop-color="#EEBC79"/>
<stop offset="0.8693" stop-color="#C0935B"/>
<stop offset="1" stop-color="#976F40"/>
</linearGradient>
<linearGradient id="paint9_linear_5_3724" x1="1116.6" y1="-289.395" x2="1133.1" y2="251.725" gradientUnits="userSpaceOnUse">
<stop stop-color="#BE965D"/>
<stop offset="0.2784" stop-color="#976F40"/>
<stop offset="0.4259" stop-color="#C99B61"/>
<stop offset="0.5584" stop-color="#F0BE7B"/>
<stop offset="0.6275" stop-color="#FFCB85"/>
<stop offset="0.7085" stop-color="#EEBC79"/>
<stop offset="0.8693" stop-color="#C0935B"/>
<stop offset="1" stop-color="#976F40"/>
</linearGradient>
<linearGradient id="paint10_linear_5_3724" x1="1139.14" y1="-290.083" x2="1155.64" y2="251.037" gradientUnits="userSpaceOnUse">
<stop stop-color="#BE965D"/>
<stop offset="0.2784" stop-color="#976F40"/>
<stop offset="0.4259" stop-color="#C99B61"/>
<stop offset="0.5584" stop-color="#F0BE7B"/>
<stop offset="0.6275" stop-color="#FFCB85"/>
<stop offset="0.7085" stop-color="#EEBC79"/>
<stop offset="0.8693" stop-color="#C0935B"/>
<stop offset="1" stop-color="#976F40"/>
</linearGradient>
<linearGradient id="paint11_linear_5_3724" x1="1161.69" y1="-290.771" x2="1178.18" y2="250.35" gradientUnits="userSpaceOnUse">
<stop stop-color="#BE965D"/>
<stop offset="0.2784" stop-color="#976F40"/>
<stop offset="0.4259" stop-color="#C99B61"/>
<stop offset="0.5584" stop-color="#F0BE7B"/>
<stop offset="0.6275" stop-color="#FFCB85"/>
<stop offset="0.7085" stop-color="#EEBC79"/>
<stop offset="0.8693" stop-color="#C0935B"/>
<stop offset="1" stop-color="#976F40"/>
</linearGradient>
<linearGradient id="paint12_linear_5_3724" x1="1184.23" y1="-291.457" x2="1200.73" y2="249.663" gradientUnits="userSpaceOnUse">
<stop stop-color="#BE965D"/>
<stop offset="0.2784" stop-color="#976F40"/>
<stop offset="0.4259" stop-color="#C99B61"/>
<stop offset="0.5584" stop-color="#F0BE7B"/>
<stop offset="0.6275" stop-color="#FFCB85"/>
<stop offset="0.7085" stop-color="#EEBC79"/>
<stop offset="0.8693" stop-color="#C0935B"/>
<stop offset="1" stop-color="#976F40"/>
</linearGradient>
<linearGradient id="paint13_linear_5_3724" x1="1116.43" y1="-289.389" x2="1132.93" y2="251.731" gradientUnits="userSpaceOnUse">
<stop stop-color="#BE965D"/>
<stop offset="0.2784" stop-color="#976F40"/>
<stop offset="0.4259" stop-color="#C99B61"/>
<stop offset="0.5584" stop-color="#F0BE7B"/>
<stop offset="0.6275" stop-color="#FFCB85"/>
<stop offset="0.7085" stop-color="#EEBC79"/>
<stop offset="0.8693" stop-color="#C0935B"/>
<stop offset="1" stop-color="#976F40"/>
</linearGradient>
<linearGradient id="paint14_linear_5_3724" x1="1138.97" y1="-290.077" x2="1155.47" y2="251.042" gradientUnits="userSpaceOnUse">
<stop stop-color="#BE965D"/>
<stop offset="0.2784" stop-color="#976F40"/>
<stop offset="0.4259" stop-color="#C99B61"/>
<stop offset="0.5584" stop-color="#F0BE7B"/>
<stop offset="0.6275" stop-color="#FFCB85"/>
<stop offset="0.7085" stop-color="#EEBC79"/>
<stop offset="0.8693" stop-color="#C0935B"/>
<stop offset="1" stop-color="#976F40"/>
</linearGradient>
<linearGradient id="paint15_linear_5_3724" x1="1161.52" y1="-290.764" x2="1178.01" y2="250.356" gradientUnits="userSpaceOnUse">
<stop stop-color="#BE965D"/>
<stop offset="0.2784" stop-color="#976F40"/>
<stop offset="0.4259" stop-color="#C99B61"/>
<stop offset="0.5584" stop-color="#F0BE7B"/>
<stop offset="0.6275" stop-color="#FFCB85"/>
<stop offset="0.7085" stop-color="#EEBC79"/>
<stop offset="0.8693" stop-color="#C0935B"/>
<stop offset="1" stop-color="#976F40"/>
</linearGradient>
<linearGradient id="paint16_linear_5_3724" x1="1184.06" y1="-291.451" x2="1200.56" y2="249.669" gradientUnits="userSpaceOnUse">
<stop stop-color="#BE965D"/>
<stop offset="0.2784" stop-color="#976F40"/>
<stop offset="0.4259" stop-color="#C99B61"/>
<stop offset="0.5584" stop-color="#F0BE7B"/>
<stop offset="0.6275" stop-color="#FFCB85"/>
<stop offset="0.7085" stop-color="#EEBC79"/>
<stop offset="0.8693" stop-color="#C0935B"/>
<stop offset="1" stop-color="#976F40"/>
</linearGradient>
<linearGradient id="paint17_linear_5_3724" x1="1093.72" y1="-288.698" x2="1110.22" y2="252.423" gradientUnits="userSpaceOnUse">
<stop stop-color="#BE965D"/>
<stop offset="0.2784" stop-color="#976F40"/>
<stop offset="0.4259" stop-color="#C99B61"/>
<stop offset="0.5584" stop-color="#F0BE7B"/>
<stop offset="0.6275" stop-color="#FFCB85"/>
<stop offset="0.7085" stop-color="#EEBC79"/>
<stop offset="0.8693" stop-color="#C0935B"/>
<stop offset="1" stop-color="#976F40"/>
</linearGradient>
<linearGradient id="paint18_linear_5_3724" x1="1116.26" y1="-289.385" x2="1132.76" y2="251.735" gradientUnits="userSpaceOnUse">
<stop stop-color="#BE965D"/>
<stop offset="0.2784" stop-color="#976F40"/>
<stop offset="0.4259" stop-color="#C99B61"/>
<stop offset="0.5584" stop-color="#F0BE7B"/>
<stop offset="0.6275" stop-color="#FFCB85"/>
<stop offset="0.7085" stop-color="#EEBC79"/>
<stop offset="0.8693" stop-color="#C0935B"/>
<stop offset="1" stop-color="#976F40"/>
</linearGradient>
<linearGradient id="paint19_linear_5_3724" x1="1138.8" y1="-290.073" x2="1155.3" y2="251.048" gradientUnits="userSpaceOnUse">
<stop stop-color="#BE965D"/>
<stop offset="0.2784" stop-color="#976F40"/>
<stop offset="0.4259" stop-color="#C99B61"/>
<stop offset="0.5584" stop-color="#F0BE7B"/>
<stop offset="0.6275" stop-color="#FFCB85"/>
<stop offset="0.7085" stop-color="#EEBC79"/>
<stop offset="0.8693" stop-color="#C0935B"/>
<stop offset="1" stop-color="#976F40"/>
</linearGradient>
<linearGradient id="paint20_linear_5_3724" x1="1161.34" y1="-290.759" x2="1177.84" y2="250.361" gradientUnits="userSpaceOnUse">
<stop stop-color="#BE965D"/>
<stop offset="0.2784" stop-color="#976F40"/>
<stop offset="0.4259" stop-color="#C99B61"/>
<stop offset="0.5584" stop-color="#F0BE7B"/>
<stop offset="0.6275" stop-color="#FFCB85"/>
<stop offset="0.7085" stop-color="#EEBC79"/>
<stop offset="0.8693" stop-color="#C0935B"/>
<stop offset="1" stop-color="#976F40"/>
</linearGradient>
<linearGradient id="paint21_linear_5_3724" x1="1183.88" y1="-291.447" x2="1200.38" y2="249.673" gradientUnits="userSpaceOnUse">
<stop stop-color="#BE965D"/>
<stop offset="0.2784" stop-color="#976F40"/>
<stop offset="0.4259" stop-color="#C99B61"/>
<stop offset="0.5584" stop-color="#F0BE7B"/>
<stop offset="0.6275" stop-color="#FFCB85"/>
<stop offset="0.7085" stop-color="#EEBC79"/>
<stop offset="0.8693" stop-color="#C0935B"/>
<stop offset="1" stop-color="#976F40"/>
</linearGradient>
<linearGradient id="paint22_linear_5_3724" x1="1093.71" y1="-289.035" x2="1110.21" y2="252.084" gradientUnits="userSpaceOnUse">
<stop stop-color="#BE965D"/>
<stop offset="0.2784" stop-color="#976F40"/>
<stop offset="0.4259" stop-color="#C99B61"/>
<stop offset="0.5584" stop-color="#F0BE7B"/>
<stop offset="0.6275" stop-color="#FFCB85"/>
<stop offset="0.7085" stop-color="#EEBC79"/>
<stop offset="0.8693" stop-color="#C0935B"/>
<stop offset="1" stop-color="#976F40"/>
</linearGradient>
<linearGradient id="paint23_linear_5_3724" x1="1116.09" y1="-289.379" x2="1132.58" y2="251.74" gradientUnits="userSpaceOnUse">
<stop stop-color="#BE965D"/>
<stop offset="0.2784" stop-color="#976F40"/>
<stop offset="0.4259" stop-color="#C99B61"/>
<stop offset="0.5584" stop-color="#F0BE7B"/>
<stop offset="0.6275" stop-color="#FFCB85"/>
<stop offset="0.7085" stop-color="#EEBC79"/>
<stop offset="0.8693" stop-color="#C0935B"/>
<stop offset="1" stop-color="#976F40"/>
</linearGradient>
<linearGradient id="paint24_linear_5_3724" x1="1138.63" y1="-290.066" x2="1155.13" y2="251.053" gradientUnits="userSpaceOnUse">
<stop stop-color="#BE965D"/>
<stop offset="0.2784" stop-color="#976F40"/>
<stop offset="0.4259" stop-color="#C99B61"/>
<stop offset="0.5584" stop-color="#F0BE7B"/>
<stop offset="0.6275" stop-color="#FFCB85"/>
<stop offset="0.7085" stop-color="#EEBC79"/>
<stop offset="0.8693" stop-color="#C0935B"/>
<stop offset="1" stop-color="#976F40"/>
</linearGradient>
<linearGradient id="paint25_linear_5_3724" x1="1161.17" y1="-290.753" x2="1177.67" y2="250.366" gradientUnits="userSpaceOnUse">
<stop stop-color="#BE965D"/>
<stop offset="0.2784" stop-color="#976F40"/>
<stop offset="0.4259" stop-color="#C99B61"/>
<stop offset="0.5584" stop-color="#F0BE7B"/>
<stop offset="0.6275" stop-color="#FFCB85"/>
<stop offset="0.7085" stop-color="#EEBC79"/>
<stop offset="0.8693" stop-color="#C0935B"/>
<stop offset="1" stop-color="#976F40"/>
</linearGradient>
<linearGradient id="paint26_linear_5_3724" x1="1183.71" y1="-291.441" x2="1200.21" y2="249.678" gradientUnits="userSpaceOnUse">
<stop stop-color="#BE965D"/>
<stop offset="0.2784" stop-color="#976F40"/>
<stop offset="0.4259" stop-color="#C99B61"/>
<stop offset="0.5584" stop-color="#F0BE7B"/>
<stop offset="0.6275" stop-color="#FFCB85"/>
<stop offset="0.7085" stop-color="#EEBC79"/>
<stop offset="0.8693" stop-color="#C0935B"/>
<stop offset="1" stop-color="#976F40"/>
</linearGradient>
<linearGradient id="paint27_linear_5_3724" x1="1070.83" y1="-287.999" x2="1087.33" y2="253.121" gradientUnits="userSpaceOnUse">
<stop stop-color="#BE965D"/>
<stop offset="0.2784" stop-color="#976F40"/>
<stop offset="0.4259" stop-color="#C99B61"/>
<stop offset="0.5584" stop-color="#F0BE7B"/>
<stop offset="0.6275" stop-color="#FFCB85"/>
<stop offset="0.7085" stop-color="#EEBC79"/>
<stop offset="0.8693" stop-color="#C0935B"/>
<stop offset="1" stop-color="#976F40"/>
</linearGradient>
<linearGradient id="paint28_linear_5_3724" x1="1093.37" y1="-288.687" x2="1109.87" y2="252.433" gradientUnits="userSpaceOnUse">
<stop stop-color="#BE965D"/>
<stop offset="0.2784" stop-color="#976F40"/>
<stop offset="0.4259" stop-color="#C99B61"/>
<stop offset="0.5584" stop-color="#F0BE7B"/>
<stop offset="0.6275" stop-color="#FFCB85"/>
<stop offset="0.7085" stop-color="#EEBC79"/>
<stop offset="0.8693" stop-color="#C0935B"/>
<stop offset="1" stop-color="#976F40"/>
</linearGradient>
<linearGradient id="paint29_linear_5_3724" x1="1115.91" y1="-289.375" x2="1132.41" y2="251.746" gradientUnits="userSpaceOnUse">
<stop stop-color="#BE965D"/>
<stop offset="0.2784" stop-color="#976F40"/>
<stop offset="0.4259" stop-color="#C99B61"/>
<stop offset="0.5584" stop-color="#F0BE7B"/>
<stop offset="0.6275" stop-color="#FFCB85"/>
<stop offset="0.7085" stop-color="#EEBC79"/>
<stop offset="0.8693" stop-color="#C0935B"/>
<stop offset="1" stop-color="#976F40"/>
</linearGradient>
<linearGradient id="paint30_linear_5_3724" x1="1138.46" y1="-290.061" x2="1154.96" y2="251.059" gradientUnits="userSpaceOnUse">
<stop stop-color="#BE965D"/>
<stop offset="0.2784" stop-color="#976F40"/>
<stop offset="0.4259" stop-color="#C99B61"/>
<stop offset="0.5584" stop-color="#F0BE7B"/>
<stop offset="0.6275" stop-color="#FFCB85"/>
<stop offset="0.7085" stop-color="#EEBC79"/>
<stop offset="0.8693" stop-color="#C0935B"/>
<stop offset="1" stop-color="#976F40"/>
</linearGradient>
<linearGradient id="paint31_linear_5_3724" x1="1161" y1="-290.75" x2="1177.5" y2="250.371" gradientUnits="userSpaceOnUse">
<stop stop-color="#BE965D"/>
<stop offset="0.2784" stop-color="#976F40"/>
<stop offset="0.4259" stop-color="#C99B61"/>
<stop offset="0.5584" stop-color="#F0BE7B"/>
<stop offset="0.6275" stop-color="#FFCB85"/>
<stop offset="0.7085" stop-color="#EEBC79"/>
<stop offset="0.8693" stop-color="#C0935B"/>
<stop offset="1" stop-color="#976F40"/>
</linearGradient>
<linearGradient id="paint32_linear_5_3724" x1="1183.54" y1="-291.437" x2="1200.04" y2="249.683" gradientUnits="userSpaceOnUse">
<stop stop-color="#BE965D"/>
<stop offset="0.2784" stop-color="#976F40"/>
<stop offset="0.4259" stop-color="#C99B61"/>
<stop offset="0.5584" stop-color="#F0BE7B"/>
<stop offset="0.6275" stop-color="#FFCB85"/>
<stop offset="0.7085" stop-color="#EEBC79"/>
<stop offset="0.8693" stop-color="#C0935B"/>
<stop offset="1" stop-color="#976F40"/>
</linearGradient>
<linearGradient id="paint33_linear_5_3724" x1="1070.66" y1="-287.994" x2="1087.16" y2="253.127" gradientUnits="userSpaceOnUse">
<stop stop-color="#BE965D"/>
<stop offset="0.2784" stop-color="#976F40"/>
<stop offset="0.4259" stop-color="#C99B61"/>
<stop offset="0.5584" stop-color="#F0BE7B"/>
<stop offset="0.6275" stop-color="#FFCB85"/>
<stop offset="0.7085" stop-color="#EEBC79"/>
<stop offset="0.8693" stop-color="#C0935B"/>
<stop offset="1" stop-color="#976F40"/>
</linearGradient>
<linearGradient id="paint34_linear_5_3724" x1="1093.2" y1="-288.681" x2="1109.7" y2="252.439" gradientUnits="userSpaceOnUse">
<stop stop-color="#BE965D"/>
<stop offset="0.2784" stop-color="#976F40"/>
<stop offset="0.4259" stop-color="#C99B61"/>
<stop offset="0.5584" stop-color="#F0BE7B"/>
<stop offset="0.6275" stop-color="#FFCB85"/>
<stop offset="0.7085" stop-color="#EEBC79"/>
<stop offset="0.8693" stop-color="#C0935B"/>
<stop offset="1" stop-color="#976F40"/>
</linearGradient>
<linearGradient id="paint35_linear_5_3724" x1="1115.74" y1="-289.369" x2="1132.24" y2="251.752" gradientUnits="userSpaceOnUse">
<stop stop-color="#BE965D"/>
<stop offset="0.2784" stop-color="#976F40"/>
<stop offset="0.4259" stop-color="#C99B61"/>
<stop offset="0.5584" stop-color="#F0BE7B"/>
<stop offset="0.6275" stop-color="#FFCB85"/>
<stop offset="0.7085" stop-color="#EEBC79"/>
<stop offset="0.8693" stop-color="#C0935B"/>
<stop offset="1" stop-color="#976F40"/>
</linearGradient>
<linearGradient id="paint36_linear_5_3724" x1="1138.29" y1="-290.056" x2="1154.78" y2="251.065" gradientUnits="userSpaceOnUse">
<stop stop-color="#BE965D"/>
<stop offset="0.2784" stop-color="#976F40"/>
<stop offset="0.4259" stop-color="#C99B61"/>
<stop offset="0.5584" stop-color="#F0BE7B"/>
<stop offset="0.6275" stop-color="#FFCB85"/>
<stop offset="0.7085" stop-color="#EEBC79"/>
<stop offset="0.8693" stop-color="#C0935B"/>
<stop offset="1" stop-color="#976F40"/>
</linearGradient>
<linearGradient id="paint37_linear_5_3724" x1="1160.83" y1="-290.744" x2="1177.33" y2="250.377" gradientUnits="userSpaceOnUse">
<stop stop-color="#BE965D"/>
<stop offset="0.2784" stop-color="#976F40"/>
<stop offset="0.4259" stop-color="#C99B61"/>
<stop offset="0.5584" stop-color="#F0BE7B"/>
<stop offset="0.6275" stop-color="#FFCB85"/>
<stop offset="0.7085" stop-color="#EEBC79"/>
<stop offset="0.8693" stop-color="#C0935B"/>
<stop offset="1" stop-color="#976F40"/>
</linearGradient>
<linearGradient id="paint38_linear_5_3724" x1="1183.37" y1="-291.431" x2="1199.87" y2="249.689" gradientUnits="userSpaceOnUse">
<stop stop-color="#BE965D"/>
<stop offset="0.2784" stop-color="#976F40"/>
<stop offset="0.4259" stop-color="#C99B61"/>
<stop offset="0.5584" stop-color="#F0BE7B"/>
<stop offset="0.6275" stop-color="#FFCB85"/>
<stop offset="0.7085" stop-color="#EEBC79"/>
<stop offset="0.8693" stop-color="#C0935B"/>
<stop offset="1" stop-color="#976F40"/>
</linearGradient>
<linearGradient id="paint39_linear_5_3724" x1="1047.95" y1="-287.302" x2="1064.44" y2="253.818" gradientUnits="userSpaceOnUse">
<stop stop-color="#BE965D"/>
<stop offset="0.2784" stop-color="#976F40"/>
<stop offset="0.4259" stop-color="#C99B61"/>
<stop offset="0.5584" stop-color="#F0BE7B"/>
<stop offset="0.6275" stop-color="#FFCB85"/>
<stop offset="0.7085" stop-color="#EEBC79"/>
<stop offset="0.8693" stop-color="#C0935B"/>
<stop offset="1" stop-color="#976F40"/>
</linearGradient>
<linearGradient id="paint40_linear_5_3724" x1="1070.49" y1="-287.99" x2="1086.99" y2="253.131" gradientUnits="userSpaceOnUse">
<stop stop-color="#BE965D"/>
<stop offset="0.2784" stop-color="#976F40"/>
<stop offset="0.4259" stop-color="#C99B61"/>
<stop offset="0.5584" stop-color="#F0BE7B"/>
<stop offset="0.6275" stop-color="#FFCB85"/>
<stop offset="0.7085" stop-color="#EEBC79"/>
<stop offset="0.8693" stop-color="#C0935B"/>
<stop offset="1" stop-color="#976F40"/>
</linearGradient>
<linearGradient id="paint41_linear_5_3724" x1="1093.03" y1="-288.678" x2="1109.53" y2="252.443" gradientUnits="userSpaceOnUse">
<stop stop-color="#BE965D"/>
<stop offset="0.2784" stop-color="#976F40"/>
<stop offset="0.4259" stop-color="#C99B61"/>
<stop offset="0.5584" stop-color="#F0BE7B"/>
<stop offset="0.6275" stop-color="#FFCB85"/>
<stop offset="0.7085" stop-color="#EEBC79"/>
<stop offset="0.8693" stop-color="#C0935B"/>
<stop offset="1" stop-color="#976F40"/>
</linearGradient>
<linearGradient id="paint42_linear_5_3724" x1="1115.57" y1="-289.364" x2="1132.07" y2="251.757" gradientUnits="userSpaceOnUse">
<stop stop-color="#BE965D"/>
<stop offset="0.2784" stop-color="#976F40"/>
<stop offset="0.4259" stop-color="#C99B61"/>
<stop offset="0.5584" stop-color="#F0BE7B"/>
<stop offset="0.6275" stop-color="#FFCB85"/>
<stop offset="0.7085" stop-color="#EEBC79"/>
<stop offset="0.8693" stop-color="#C0935B"/>
<stop offset="1" stop-color="#976F40"/>
</linearGradient>
<linearGradient id="paint43_linear_5_3724" x1="1138.11" y1="-290.053" x2="1154.61" y2="251.069" gradientUnits="userSpaceOnUse">
<stop stop-color="#BE965D"/>
<stop offset="0.2784" stop-color="#976F40"/>
<stop offset="0.4259" stop-color="#C99B61"/>
<stop offset="0.5584" stop-color="#F0BE7B"/>
<stop offset="0.6275" stop-color="#FFCB85"/>
<stop offset="0.7085" stop-color="#EEBC79"/>
<stop offset="0.8693" stop-color="#C0935B"/>
<stop offset="1" stop-color="#976F40"/>
</linearGradient>
<linearGradient id="paint44_linear_5_3724" x1="1160.65" y1="-290.74" x2="1177.15" y2="250.381" gradientUnits="userSpaceOnUse">
<stop stop-color="#BE965D"/>
<stop offset="0.2784" stop-color="#976F40"/>
<stop offset="0.4259" stop-color="#C99B61"/>
<stop offset="0.5584" stop-color="#F0BE7B"/>
<stop offset="0.6275" stop-color="#FFCB85"/>
<stop offset="0.7085" stop-color="#EEBC79"/>
<stop offset="0.8693" stop-color="#C0935B"/>
<stop offset="1" stop-color="#976F40"/>
</linearGradient>
<linearGradient id="paint45_linear_5_3724" x1="1047.77" y1="-287.296" x2="1064.27" y2="253.825" gradientUnits="userSpaceOnUse">
<stop stop-color="#BE965D"/>
<stop offset="0.2784" stop-color="#976F40"/>
<stop offset="0.4259" stop-color="#C99B61"/>
<stop offset="0.5584" stop-color="#F0BE7B"/>
<stop offset="0.6275" stop-color="#FFCB85"/>
<stop offset="0.7085" stop-color="#EEBC79"/>
<stop offset="0.8693" stop-color="#C0935B"/>
<stop offset="1" stop-color="#976F40"/>
</linearGradient>
<linearGradient id="paint46_linear_5_3724" x1="1070.32" y1="-287.984" x2="1086.82" y2="253.137" gradientUnits="userSpaceOnUse">
<stop stop-color="#BE965D"/>
<stop offset="0.2784" stop-color="#976F40"/>
<stop offset="0.4259" stop-color="#C99B61"/>
<stop offset="0.5584" stop-color="#F0BE7B"/>
<stop offset="0.6275" stop-color="#FFCB85"/>
<stop offset="0.7085" stop-color="#EEBC79"/>
<stop offset="0.8693" stop-color="#C0935B"/>
<stop offset="1" stop-color="#976F40"/>
</linearGradient>
<linearGradient id="paint47_linear_5_3724" x1="1092.86" y1="-288.671" x2="1109.36" y2="252.449" gradientUnits="userSpaceOnUse">
<stop stop-color="#BE965D"/>
<stop offset="0.2784" stop-color="#976F40"/>
<stop offset="0.4259" stop-color="#C99B61"/>
<stop offset="0.5584" stop-color="#F0BE7B"/>
<stop offset="0.6275" stop-color="#FFCB85"/>
<stop offset="0.7085" stop-color="#EEBC79"/>
<stop offset="0.8693" stop-color="#C0935B"/>
<stop offset="1" stop-color="#976F40"/>
</linearGradient>
<linearGradient id="paint48_linear_5_3724" x1="1115.4" y1="-289.358" x2="1131.9" y2="251.763" gradientUnits="userSpaceOnUse">
<stop stop-color="#BE965D"/>
<stop offset="0.2784" stop-color="#976F40"/>
<stop offset="0.4259" stop-color="#C99B61"/>
<stop offset="0.5584" stop-color="#F0BE7B"/>
<stop offset="0.6275" stop-color="#FFCB85"/>
<stop offset="0.7085" stop-color="#EEBC79"/>
<stop offset="0.8693" stop-color="#C0935B"/>
<stop offset="1" stop-color="#976F40"/>
</linearGradient>
<linearGradient id="paint49_linear_5_3724" x1="1137.94" y1="-290.045" x2="1154.44" y2="251.075" gradientUnits="userSpaceOnUse">
<stop stop-color="#BE965D"/>
<stop offset="0.2784" stop-color="#976F40"/>
<stop offset="0.4259" stop-color="#C99B61"/>
<stop offset="0.5584" stop-color="#F0BE7B"/>
<stop offset="0.6275" stop-color="#FFCB85"/>
<stop offset="0.7085" stop-color="#EEBC79"/>
<stop offset="0.8693" stop-color="#C0935B"/>
<stop offset="1" stop-color="#976F40"/>
</linearGradient>
<linearGradient id="paint50_linear_5_3724" x1="1160.48" y1="-290.734" x2="1176.98" y2="250.387" gradientUnits="userSpaceOnUse">
<stop stop-color="#BE965D"/>
<stop offset="0.2784" stop-color="#976F40"/>
<stop offset="0.4259" stop-color="#C99B61"/>
<stop offset="0.5584" stop-color="#F0BE7B"/>
<stop offset="0.6275" stop-color="#FFCB85"/>
<stop offset="0.7085" stop-color="#EEBC79"/>
<stop offset="0.8693" stop-color="#C0935B"/>
<stop offset="1" stop-color="#976F40"/>
</linearGradient>
<linearGradient id="paint51_linear_5_3724" x1="1116.77" y1="-289.4" x2="1133.27" y2="251.719" gradientUnits="userSpaceOnUse">
<stop stop-color="#BE965D"/>
<stop offset="0.2784" stop-color="#976F40"/>
<stop offset="0.4259" stop-color="#C99B61"/>
<stop offset="0.5584" stop-color="#F0BE7B"/>
<stop offset="0.6275" stop-color="#FFCB85"/>
<stop offset="0.7085" stop-color="#EEBC79"/>
<stop offset="0.8693" stop-color="#C0935B"/>
<stop offset="1" stop-color="#976F40"/>
</linearGradient>
<linearGradient id="paint52_linear_5_3724" x1="1094.06" y1="-288.707" x2="1110.56" y2="252.412" gradientUnits="userSpaceOnUse">
<stop stop-color="#BE965D"/>
<stop offset="0.2784" stop-color="#976F40"/>
<stop offset="0.4259" stop-color="#C99B61"/>
<stop offset="0.5584" stop-color="#F0BE7B"/>
<stop offset="0.6275" stop-color="#FFCB85"/>
<stop offset="0.7085" stop-color="#EEBC79"/>
<stop offset="0.8693" stop-color="#C0935B"/>
<stop offset="1" stop-color="#976F40"/>
</linearGradient>
<linearGradient id="paint53_linear_5_3724" x1="1071.35" y1="-288.015" x2="1087.84" y2="253.104" gradientUnits="userSpaceOnUse">
<stop stop-color="#BE965D"/>
<stop offset="0.2784" stop-color="#976F40"/>
<stop offset="0.4259" stop-color="#C99B61"/>
<stop offset="0.5584" stop-color="#F0BE7B"/>
<stop offset="0.6275" stop-color="#FFCB85"/>
<stop offset="0.7085" stop-color="#EEBC79"/>
<stop offset="0.8693" stop-color="#C0935B"/>
<stop offset="1" stop-color="#976F40"/>
</linearGradient>
<linearGradient id="paint54_linear_5_3724" x1="1093.89" y1="-288.702" x2="1110.39" y2="252.417" gradientUnits="userSpaceOnUse">
<stop stop-color="#BE965D"/>
<stop offset="0.2784" stop-color="#976F40"/>
<stop offset="0.4259" stop-color="#C99B61"/>
<stop offset="0.5584" stop-color="#F0BE7B"/>
<stop offset="0.6275" stop-color="#FFCB85"/>
<stop offset="0.7085" stop-color="#EEBC79"/>
<stop offset="0.8693" stop-color="#C0935B"/>
<stop offset="1" stop-color="#976F40"/>
</linearGradient>
<linearGradient id="paint55_linear_5_3724" x1="1048.63" y1="-287.323" x2="1065.13" y2="253.797" gradientUnits="userSpaceOnUse">
<stop stop-color="#BE965D"/>
<stop offset="0.2784" stop-color="#976F40"/>
<stop offset="0.4259" stop-color="#C99B61"/>
<stop offset="0.5584" stop-color="#F0BE7B"/>
<stop offset="0.6275" stop-color="#FFCB85"/>
<stop offset="0.7085" stop-color="#EEBC79"/>
<stop offset="0.8693" stop-color="#C0935B"/>
<stop offset="1" stop-color="#976F40"/>
</linearGradient>
<linearGradient id="paint56_linear_5_3724" x1="1071.17" y1="-288.01" x2="1087.67" y2="253.11" gradientUnits="userSpaceOnUse">
<stop stop-color="#BE965D"/>
<stop offset="0.2784" stop-color="#976F40"/>
<stop offset="0.4259" stop-color="#C99B61"/>
<stop offset="0.5584" stop-color="#F0BE7B"/>
<stop offset="0.6275" stop-color="#FFCB85"/>
<stop offset="0.7085" stop-color="#EEBC79"/>
<stop offset="0.8693" stop-color="#C0935B"/>
<stop offset="1" stop-color="#976F40"/>
</linearGradient>
<linearGradient id="paint57_linear_5_3724" x1="1025.92" y1="-286.631" x2="1042.42" y2="254.488" gradientUnits="userSpaceOnUse">
<stop stop-color="#BE965D"/>
<stop offset="0.2784" stop-color="#976F40"/>
<stop offset="0.4259" stop-color="#C99B61"/>
<stop offset="0.5584" stop-color="#F0BE7B"/>
<stop offset="0.6275" stop-color="#FFCB85"/>
<stop offset="0.7085" stop-color="#EEBC79"/>
<stop offset="0.8693" stop-color="#C0935B"/>
<stop offset="1" stop-color="#976F40"/>
</linearGradient>
<linearGradient id="paint58_linear_5_3724" x1="1048.46" y1="-287.318" x2="1064.96" y2="253.802" gradientUnits="userSpaceOnUse">
<stop stop-color="#BE965D"/>
<stop offset="0.2784" stop-color="#976F40"/>
<stop offset="0.4259" stop-color="#C99B61"/>
<stop offset="0.5584" stop-color="#F0BE7B"/>
<stop offset="0.6275" stop-color="#FFCB85"/>
<stop offset="0.7085" stop-color="#EEBC79"/>
<stop offset="0.8693" stop-color="#C0935B"/>
<stop offset="1" stop-color="#976F40"/>
</linearGradient>
<linearGradient id="paint59_linear_5_3724" x1="1071" y1="-288.005" x2="1087.5" y2="253.114" gradientUnits="userSpaceOnUse">
<stop stop-color="#BE965D"/>
<stop offset="0.2784" stop-color="#976F40"/>
<stop offset="0.4259" stop-color="#C99B61"/>
<stop offset="0.5584" stop-color="#F0BE7B"/>
<stop offset="0.6275" stop-color="#FFCB85"/>
<stop offset="0.7085" stop-color="#EEBC79"/>
<stop offset="0.8693" stop-color="#C0935B"/>
<stop offset="1" stop-color="#976F40"/>
</linearGradient>
<linearGradient id="paint60_linear_5_3724" x1="1003.2" y1="-285.938" x2="1019.7" y2="255.182" gradientUnits="userSpaceOnUse">
<stop stop-color="#BE965D"/>
<stop offset="0.2784" stop-color="#976F40"/>
<stop offset="0.4259" stop-color="#C99B61"/>
<stop offset="0.5584" stop-color="#F0BE7B"/>
<stop offset="0.6275" stop-color="#FFCB85"/>
<stop offset="0.7085" stop-color="#EEBC79"/>
<stop offset="0.8693" stop-color="#C0935B"/>
<stop offset="1" stop-color="#976F40"/>
</linearGradient>
<linearGradient id="paint61_linear_5_3724" x1="1025.75" y1="-286.625" x2="1042.25" y2="254.495" gradientUnits="userSpaceOnUse">
<stop stop-color="#BE965D"/>
<stop offset="0.2784" stop-color="#976F40"/>
<stop offset="0.4259" stop-color="#C99B61"/>
<stop offset="0.5584" stop-color="#F0BE7B"/>
<stop offset="0.6275" stop-color="#FFCB85"/>
<stop offset="0.7085" stop-color="#EEBC79"/>
<stop offset="0.8693" stop-color="#C0935B"/>
<stop offset="1" stop-color="#976F40"/>
</linearGradient>
<linearGradient id="paint62_linear_5_3724" x1="1048.29" y1="-287.312" x2="1064.79" y2="253.808" gradientUnits="userSpaceOnUse">
<stop stop-color="#BE965D"/>
<stop offset="0.2784" stop-color="#976F40"/>
<stop offset="0.4259" stop-color="#C99B61"/>
<stop offset="0.5584" stop-color="#F0BE7B"/>
<stop offset="0.6275" stop-color="#FFCB85"/>
<stop offset="0.7085" stop-color="#EEBC79"/>
<stop offset="0.8693" stop-color="#C0935B"/>
<stop offset="1" stop-color="#976F40"/>
</linearGradient>
<linearGradient id="paint63_linear_5_3724" x1="980.495" y1="-285.245" x2="996.993" y2="255.876" gradientUnits="userSpaceOnUse">
<stop stop-color="#BE965D"/>
<stop offset="0.2784" stop-color="#976F40"/>
<stop offset="0.4259" stop-color="#C99B61"/>
<stop offset="0.5584" stop-color="#F0BE7B"/>
<stop offset="0.6275" stop-color="#FFCB85"/>
<stop offset="0.7085" stop-color="#EEBC79"/>
<stop offset="0.8693" stop-color="#C0935B"/>
<stop offset="1" stop-color="#976F40"/>
</linearGradient>
<linearGradient id="paint64_linear_5_3724" x1="1003.03" y1="-285.934" x2="1019.53" y2="255.187" gradientUnits="userSpaceOnUse">
<stop stop-color="#BE965D"/>
<stop offset="0.2784" stop-color="#976F40"/>
<stop offset="0.4259" stop-color="#C99B61"/>
<stop offset="0.5584" stop-color="#F0BE7B"/>
<stop offset="0.6275" stop-color="#FFCB85"/>
<stop offset="0.7085" stop-color="#EEBC79"/>
<stop offset="0.8693" stop-color="#C0935B"/>
<stop offset="1" stop-color="#976F40"/>
</linearGradient>
<linearGradient id="paint65_linear_5_3724" x1="1025.58" y1="-286.62" x2="1042.08" y2="254.501" gradientUnits="userSpaceOnUse">
<stop stop-color="#BE965D"/>
<stop offset="0.2784" stop-color="#976F40"/>
<stop offset="0.4259" stop-color="#C99B61"/>
<stop offset="0.5584" stop-color="#F0BE7B"/>
<stop offset="0.6275" stop-color="#FFCB85"/>
<stop offset="0.7085" stop-color="#EEBC79"/>
<stop offset="0.8693" stop-color="#C0935B"/>
<stop offset="1" stop-color="#976F40"/>
</linearGradient>
<linearGradient id="paint66_linear_5_3724" x1="1048.12" y1="-287.307" x2="1064.62" y2="253.813" gradientUnits="userSpaceOnUse">
<stop stop-color="#BE965D"/>
<stop offset="0.2784" stop-color="#976F40"/>
<stop offset="0.4259" stop-color="#C99B61"/>
<stop offset="0.5584" stop-color="#F0BE7B"/>
<stop offset="0.6275" stop-color="#FFCB85"/>
<stop offset="0.7085" stop-color="#EEBC79"/>
<stop offset="0.8693" stop-color="#C0935B"/>
<stop offset="1" stop-color="#976F40"/>
</linearGradient>
<linearGradient id="paint67_linear_5_3724" x1="957.779" y1="-284.554" x2="974.278" y2="256.567" gradientUnits="userSpaceOnUse">
<stop stop-color="#BE965D"/>
<stop offset="0.2784" stop-color="#976F40"/>
<stop offset="0.4259" stop-color="#C99B61"/>
<stop offset="0.5584" stop-color="#F0BE7B"/>
<stop offset="0.6275" stop-color="#FFCB85"/>
<stop offset="0.7085" stop-color="#EEBC79"/>
<stop offset="0.8693" stop-color="#C0935B"/>
<stop offset="1" stop-color="#976F40"/>
</linearGradient>
<linearGradient id="paint68_linear_5_3724" x1="980.322" y1="-285.241" x2="996.821" y2="255.88" gradientUnits="userSpaceOnUse">
<stop stop-color="#BE965D"/>
<stop offset="0.2784" stop-color="#976F40"/>
<stop offset="0.4259" stop-color="#C99B61"/>
<stop offset="0.5584" stop-color="#F0BE7B"/>
<stop offset="0.6275" stop-color="#FFCB85"/>
<stop offset="0.7085" stop-color="#EEBC79"/>
<stop offset="0.8693" stop-color="#C0935B"/>
<stop offset="1" stop-color="#976F40"/>
</linearGradient>
<linearGradient id="paint69_linear_5_3724" x1="1002.86" y1="-285.928" x2="1019.36" y2="255.192" gradientUnits="userSpaceOnUse">
<stop stop-color="#BE965D"/>
<stop offset="0.2784" stop-color="#976F40"/>
<stop offset="0.4259" stop-color="#C99B61"/>
<stop offset="0.5584" stop-color="#F0BE7B"/>
<stop offset="0.6275" stop-color="#FFCB85"/>
<stop offset="0.7085" stop-color="#EEBC79"/>
<stop offset="0.8693" stop-color="#C0935B"/>
<stop offset="1" stop-color="#976F40"/>
</linearGradient>
<linearGradient id="paint70_linear_5_3724" x1="1025.41" y1="-286.615" x2="1041.9" y2="254.506" gradientUnits="userSpaceOnUse">
<stop stop-color="#BE965D"/>
<stop offset="0.2784" stop-color="#976F40"/>
<stop offset="0.4259" stop-color="#C99B61"/>
<stop offset="0.5584" stop-color="#F0BE7B"/>
<stop offset="0.6275" stop-color="#FFCB85"/>
<stop offset="0.7085" stop-color="#EEBC79"/>
<stop offset="0.8693" stop-color="#C0935B"/>
<stop offset="1" stop-color="#976F40"/>
</linearGradient>
<linearGradient id="paint71_linear_5_3724" x1="935.064" y1="-283.861" x2="951.563" y2="257.259" gradientUnits="userSpaceOnUse">
<stop stop-color="#BE965D"/>
<stop offset="0.2784" stop-color="#976F40"/>
<stop offset="0.4259" stop-color="#C99B61"/>
<stop offset="0.5584" stop-color="#F0BE7B"/>
<stop offset="0.6275" stop-color="#FFCB85"/>
<stop offset="0.7085" stop-color="#EEBC79"/>
<stop offset="0.8693" stop-color="#C0935B"/>
<stop offset="1" stop-color="#976F40"/>
</linearGradient>
<linearGradient id="paint72_linear_5_3724" x1="957.608" y1="-284.547" x2="974.107" y2="256.574" gradientUnits="userSpaceOnUse">
<stop stop-color="#BE965D"/>
<stop offset="0.2784" stop-color="#976F40"/>
<stop offset="0.4259" stop-color="#C99B61"/>
<stop offset="0.5584" stop-color="#F0BE7B"/>
<stop offset="0.6275" stop-color="#FFCB85"/>
<stop offset="0.7085" stop-color="#EEBC79"/>
<stop offset="0.8693" stop-color="#C0935B"/>
<stop offset="1" stop-color="#976F40"/>
</linearGradient>
<linearGradient id="paint73_linear_5_3724" x1="980.147" y1="-285.236" x2="996.646" y2="255.885" gradientUnits="userSpaceOnUse">
<stop stop-color="#BE965D"/>
<stop offset="0.2784" stop-color="#976F40"/>
<stop offset="0.4259" stop-color="#C99B61"/>
<stop offset="0.5584" stop-color="#F0BE7B"/>
<stop offset="0.6275" stop-color="#FFCB85"/>
<stop offset="0.7085" stop-color="#EEBC79"/>
<stop offset="0.8693" stop-color="#C0935B"/>
<stop offset="1" stop-color="#976F40"/>
</linearGradient>
<linearGradient id="paint74_linear_5_3724" x1="1002.69" y1="-285.922" x2="1019.19" y2="255.198" gradientUnits="userSpaceOnUse">
<stop stop-color="#BE965D"/>
<stop offset="0.2784" stop-color="#976F40"/>
<stop offset="0.4259" stop-color="#C99B61"/>
<stop offset="0.5584" stop-color="#F0BE7B"/>
<stop offset="0.6275" stop-color="#FFCB85"/>
<stop offset="0.7085" stop-color="#EEBC79"/>
<stop offset="0.8693" stop-color="#C0935B"/>
<stop offset="1" stop-color="#976F40"/>
</linearGradient>
<linearGradient id="paint75_linear_5_3724" x1="1025.23" y1="-286.61" x2="1041.73" y2="254.511" gradientUnits="userSpaceOnUse">
<stop stop-color="#BE965D"/>
<stop offset="0.2784" stop-color="#976F40"/>
<stop offset="0.4259" stop-color="#C99B61"/>
<stop offset="0.5584" stop-color="#F0BE7B"/>
<stop offset="0.6275" stop-color="#FFCB85"/>
<stop offset="0.7085" stop-color="#EEBC79"/>
<stop offset="0.8693" stop-color="#C0935B"/>
<stop offset="1" stop-color="#976F40"/>
</linearGradient>
</defs>
</svg>
