<svg width="169" height="61" viewBox="0 0 169 61" fill="none" xmlns="http://www.w3.org/2000/svg">
<rect x="0.367188" y="0.00146484" width="168" height="61" rx="30.5" fill="#FFCC4A"/>
<path d="M47.6942 24.0415V37.0015H45.8402V28.1185C45.8402 27.9745 45.8432 27.8185 45.8492 27.6505C45.8612 27.4765 45.8762 27.3025 45.8942 27.1285L41.7272 34.8235C41.5652 35.1415 41.3162 35.3005 40.9802 35.3005H40.6832C40.3412 35.3005 40.0922 35.1415 39.9362 34.8235L35.7062 27.1105C35.7242 27.2845 35.7362 27.4585 35.7422 27.6325C35.7542 27.8065 35.7602 27.9685 35.7602 28.1185V37.0015H33.9062V24.0415H35.4812C35.6672 24.0415 35.8112 24.0595 35.9132 24.0955C36.0152 24.1255 36.1082 24.2245 36.1922 24.3925L40.3502 31.9255C40.4402 32.0995 40.5242 32.2795 40.6022 32.4655C40.6862 32.6455 40.7612 32.8315 40.8272 33.0235C40.8992 32.8315 40.9742 32.6425 41.0522 32.4565C41.1362 32.2645 41.2232 32.0815 41.3132 31.9075L45.4082 24.3925C45.4922 24.2245 45.5852 24.1255 45.6872 24.0955C45.7892 24.0595 45.9332 24.0415 46.1192 24.0415H47.6942ZM54.0914 27.6775C54.7694 27.6775 55.3814 27.7885 55.9274 28.0105C56.4794 28.2325 56.9474 28.5475 57.3314 28.9555C57.7214 29.3635 58.0214 29.8585 58.2314 30.4405C58.4414 31.0225 58.5464 31.6765 58.5464 32.4025C58.5464 33.1285 58.4414 33.7825 58.2314 34.3645C58.0214 34.9465 57.7214 35.4445 57.3314 35.8585C56.9474 36.2665 56.4794 36.5815 55.9274 36.8035C55.3814 37.0255 54.7694 37.1365 54.0914 37.1365C53.4074 37.1365 52.7894 37.0255 52.2374 36.8035C51.6914 36.5815 51.2234 36.2665 50.8334 35.8585C50.4434 35.4445 50.1434 34.9465 49.9334 34.3645C49.7234 33.7825 49.6184 33.1285 49.6184 32.4025C49.6184 31.6765 49.7234 31.0225 49.9334 30.4405C50.1434 29.8585 50.4434 29.3635 50.8334 28.9555C51.2234 28.5475 51.6914 28.2325 52.2374 28.0105C52.7894 27.7885 53.4074 27.6775 54.0914 27.6775ZM54.0914 35.6245C54.9194 35.6245 55.5344 35.3485 55.9364 34.7965C56.3444 34.2385 56.5484 33.4435 56.5484 32.4115C56.5484 31.3795 56.3444 30.5845 55.9364 30.0265C55.5344 29.4625 54.9194 29.1805 54.0914 29.1805C53.2514 29.1805 52.6274 29.4625 52.2194 30.0265C51.8114 30.5845 51.6074 31.3795 51.6074 32.4115C51.6074 33.4435 51.8114 34.2385 52.2194 34.7965C52.6274 35.3485 53.2514 35.6245 54.0914 35.6245ZM62.2326 29.5225C62.5206 28.9405 62.8686 28.4845 63.2766 28.1545C63.6846 27.8185 64.1736 27.6505 64.7436 27.6505C64.9416 27.6505 65.1276 27.6745 65.3016 27.7225C65.4756 27.7645 65.6316 27.8305 65.7696 27.9205L65.6346 29.3785C65.6106 29.4805 65.5716 29.5525 65.5176 29.5945C65.4696 29.6305 65.4036 29.6485 65.3196 29.6485C65.2296 29.6485 65.1006 29.6335 64.9326 29.6035C64.7646 29.5675 64.5876 29.5495 64.4016 29.5495C64.1316 29.5495 63.8916 29.5885 63.6816 29.6665C63.4776 29.7445 63.2916 29.8585 63.1236 30.0085C62.9616 30.1585 62.8176 30.3415 62.6916 30.5575C62.5656 30.7735 62.4486 31.0195 62.3406 31.2955V37.0015H60.4056V27.8215H61.5306C61.7346 27.8215 61.8756 27.8605 61.9536 27.9385C62.0316 28.0105 62.0856 28.1395 62.1156 28.3255L62.2326 29.5225ZM72.7547 31.3765C72.7547 31.0525 72.7067 30.7525 72.6107 30.4765C72.5207 30.1945 72.3857 29.9515 72.2057 29.7475C72.0257 29.5375 71.8007 29.3755 71.5307 29.2615C71.2667 29.1415 70.9607 29.0815 70.6127 29.0815C69.9107 29.0815 69.3587 29.2825 68.9567 29.6845C68.5547 30.0865 68.2997 30.6505 68.1917 31.3765H72.7547ZM68.1377 32.5645C68.1617 33.0865 68.2427 33.5395 68.3807 33.9235C68.5187 34.3015 68.7017 34.6165 68.9297 34.8685C69.1637 35.1205 69.4397 35.3095 69.7577 35.4355C70.0817 35.5555 70.4417 35.6155 70.8377 35.6155C71.2157 35.6155 71.5427 35.5735 71.8187 35.4895C72.0947 35.3995 72.3347 35.3035 72.5387 35.2015C72.7427 35.0935 72.9167 34.9975 73.0607 34.9135C73.2047 34.8235 73.3367 34.7785 73.4567 34.7785C73.6127 34.7785 73.7327 34.8385 73.8167 34.9585L74.3657 35.6695C74.1377 35.9395 73.8797 36.1675 73.5917 36.3535C73.3037 36.5395 72.9977 36.6925 72.6737 36.8125C72.3497 36.9265 72.0167 37.0075 71.6747 37.0555C71.3327 37.1095 70.9997 37.1365 70.6757 37.1365C70.0397 37.1365 69.4487 37.0315 68.9027 36.8215C68.3627 36.6055 67.8917 36.2905 67.4897 35.8765C67.0937 35.4625 66.7817 34.9495 66.5537 34.3375C66.3317 33.7255 66.2207 33.0205 66.2207 32.2225C66.2207 31.5865 66.3197 30.9925 66.5177 30.4405C66.7217 29.8885 67.0097 29.4085 67.3817 29.0005C67.7597 28.5925 68.2157 28.2715 68.7497 28.0375C69.2897 27.7975 69.8987 27.6775 70.5767 27.6775C71.1407 27.6775 71.6627 27.7705 72.1427 27.9565C72.6227 28.1365 73.0367 28.4035 73.3847 28.7575C73.7327 29.1115 74.0027 29.5465 74.1947 30.0625C74.3927 30.5725 74.4917 31.1545 74.4917 31.8085C74.4917 32.1085 74.4587 32.3095 74.3927 32.4115C74.3267 32.5135 74.2067 32.5645 74.0327 32.5645H68.1377ZM91.7496 30.6205V35.7505C90.4596 36.6805 88.9596 37.1455 87.2496 37.1455C86.1996 37.1455 85.2486 36.9835 84.3966 36.6595C83.5506 36.3295 82.8276 35.8735 82.2276 35.2915C81.6276 34.7035 81.1656 34.0045 80.8416 33.1945C80.5176 32.3845 80.3556 31.4935 80.3556 30.5215C80.3556 29.5435 80.5116 28.6495 80.8236 27.8395C81.1356 27.0235 81.5826 26.3245 82.1646 25.7425C82.7466 25.1545 83.4486 24.7015 84.2706 24.3835C85.0926 24.0595 86.0166 23.8975 87.0426 23.8975C87.5646 23.8975 88.0476 23.9395 88.4916 24.0235C88.9416 24.1015 89.3586 24.2125 89.7426 24.3565C90.1266 24.5005 90.4806 24.6745 90.8046 24.8785C91.1286 25.0825 91.4256 25.3105 91.6956 25.5625L91.0926 26.5255C90.9966 26.6755 90.8736 26.7685 90.7236 26.8045C90.5736 26.8405 90.4116 26.8045 90.2376 26.6965C90.0636 26.5945 89.8776 26.4865 89.6796 26.3725C89.4876 26.2585 89.2656 26.1535 89.0136 26.0575C88.7616 25.9555 88.4706 25.8745 88.1406 25.8145C87.8106 25.7485 87.4206 25.7155 86.9706 25.7155C86.2866 25.7155 85.6686 25.8295 85.1166 26.0575C84.5706 26.2795 84.1026 26.6005 83.7126 27.0205C83.3226 27.4345 83.0226 27.9385 82.8126 28.5325C82.6026 29.1265 82.4976 29.7895 82.4976 30.5215C82.4976 31.2955 82.6086 31.9885 82.8306 32.6005C83.0526 33.2065 83.3676 33.7225 83.7756 34.1485C84.1836 34.5685 84.6756 34.8895 85.2516 35.1115C85.8336 35.3335 86.4816 35.4445 87.1956 35.4445C87.7296 35.4445 88.2036 35.3875 88.6176 35.2735C89.0376 35.1595 89.4486 35.0005 89.8506 34.7965V32.2225H88.0416C87.9036 32.2225 87.7956 32.1865 87.7176 32.1145C87.6396 32.0365 87.6006 31.9375 87.6006 31.8175V30.6205H91.7496ZM98.7442 32.9875C98.0542 33.0115 97.4722 33.0685 96.9982 33.1585C96.5242 33.2425 96.1402 33.3535 95.8462 33.4915C95.5522 33.6235 95.3392 33.7825 95.2072 33.9685C95.0812 34.1545 95.0182 34.3585 95.0182 34.5805C95.0182 34.7965 95.0512 34.9825 95.1172 35.1385C95.1892 35.2885 95.2852 35.4145 95.4052 35.5165C95.5312 35.6125 95.6752 35.6845 95.8372 35.7325C96.0052 35.7745 96.1882 35.7955 96.3862 35.7955C96.8902 35.7955 97.3222 35.7025 97.6822 35.5165C98.0482 35.3245 98.4022 35.0485 98.7442 34.6885V32.9875ZM93.6142 29.0995C94.6522 28.1335 95.8882 27.6505 97.3222 27.6505C97.8502 27.6505 98.3182 27.7375 98.7262 27.9115C99.1402 28.0795 99.4852 28.3195 99.7612 28.6315C100.043 28.9435 100.256 29.3155 100.4 29.7475C100.55 30.1735 100.625 30.6475 100.625 31.1695V37.0015H99.7612C99.5752 37.0015 99.4342 36.9745 99.3382 36.9205C99.2422 36.8605 99.1612 36.7435 99.0952 36.5695L98.9062 35.8225C98.6722 36.0325 98.4412 36.2215 98.2132 36.3895C97.9852 36.5515 97.7482 36.6895 97.5022 36.8035C97.2622 36.9175 97.0012 37.0015 96.7192 37.0555C96.4432 37.1155 96.1372 37.1455 95.8012 37.1455C95.4292 37.1455 95.0812 37.0945 94.7572 36.9925C94.4392 36.8905 94.1632 36.7375 93.9292 36.5335C93.6952 36.3235 93.5092 36.0655 93.3712 35.7595C93.2392 35.4535 93.1732 35.0935 93.1732 34.6795C93.1732 34.3255 93.2662 33.9805 93.4522 33.6445C93.6442 33.3085 93.9562 33.0085 94.3882 32.7445C94.8262 32.4745 95.3992 32.2525 96.1072 32.0785C96.8212 31.9045 97.7002 31.8055 98.7442 31.7815V31.1695C98.7442 30.5095 98.6032 30.0175 98.3212 29.6935C98.0392 29.3695 97.6252 29.2075 97.0792 29.2075C96.7072 29.2075 96.3952 29.2555 96.1432 29.3515C95.8912 29.4415 95.6722 29.5405 95.4862 29.6485C95.3002 29.7565 95.1352 29.8585 94.9912 29.9545C94.8472 30.0445 94.6942 30.0895 94.5322 30.0895C94.4002 30.0895 94.2862 30.0565 94.1902 29.9905C94.1002 29.9185 94.0252 29.8315 93.9652 29.7295L93.6142 29.0995ZM104.863 23.6815V37.0015H102.928V23.6815H104.863ZM109.222 23.6815V37.0015H107.287V23.6815H109.222ZM117.632 31.3765C117.632 31.0525 117.584 30.7525 117.488 30.4765C117.398 30.1945 117.263 29.9515 117.083 29.7475C116.903 29.5375 116.678 29.3755 116.408 29.2615C116.144 29.1415 115.838 29.0815 115.49 29.0815C114.788 29.0815 114.236 29.2825 113.834 29.6845C113.432 30.0865 113.177 30.6505 113.069 31.3765H117.632ZM113.015 32.5645C113.039 33.0865 113.12 33.5395 113.258 33.9235C113.396 34.3015 113.579 34.6165 113.807 34.8685C114.041 35.1205 114.317 35.3095 114.635 35.4355C114.959 35.5555 115.319 35.6155 115.715 35.6155C116.093 35.6155 116.42 35.5735 116.696 35.4895C116.972 35.3995 117.212 35.3035 117.416 35.2015C117.62 35.0935 117.794 34.9975 117.938 34.9135C118.082 34.8235 118.214 34.7785 118.334 34.7785C118.49 34.7785 118.61 34.8385 118.694 34.9585L119.243 35.6695C119.015 35.9395 118.757 36.1675 118.469 36.3535C118.181 36.5395 117.875 36.6925 117.551 36.8125C117.227 36.9265 116.894 37.0075 116.552 37.0555C116.21 37.1095 115.877 37.1365 115.553 37.1365C114.917 37.1365 114.326 37.0315 113.78 36.8215C113.24 36.6055 112.769 36.2905 112.367 35.8765C111.971 35.4625 111.659 34.9495 111.431 34.3375C111.209 33.7255 111.098 33.0205 111.098 32.2225C111.098 31.5865 111.197 30.9925 111.395 30.4405C111.599 29.8885 111.887 29.4085 112.259 29.0005C112.637 28.5925 113.093 28.2715 113.627 28.0375C114.167 27.7975 114.776 27.6775 115.454 27.6775C116.018 27.6775 116.54 27.7705 117.02 27.9565C117.5 28.1365 117.914 28.4035 118.262 28.7575C118.61 29.1115 118.88 29.5465 119.072 30.0625C119.27 30.5725 119.369 31.1545 119.369 31.8085C119.369 32.1085 119.336 32.3095 119.27 32.4115C119.204 32.5135 119.084 32.5645 118.91 32.5645H113.015ZM123 29.5225C123.288 28.9405 123.636 28.4845 124.044 28.1545C124.452 27.8185 124.941 27.6505 125.511 27.6505C125.709 27.6505 125.895 27.6745 126.069 27.7225C126.243 27.7645 126.399 27.8305 126.537 27.9205L126.402 29.3785C126.378 29.4805 126.339 29.5525 126.285 29.5945C126.237 29.6305 126.171 29.6485 126.087 29.6485C125.997 29.6485 125.868 29.6335 125.7 29.6035C125.532 29.5675 125.355 29.5495 125.169 29.5495C124.899 29.5495 124.659 29.5885 124.449 29.6665C124.245 29.7445 124.059 29.8585 123.891 30.0085C123.729 30.1585 123.585 30.3415 123.459 30.5575C123.333 30.7735 123.216 31.0195 123.108 31.2955V37.0015H121.173V27.8215H122.298C122.502 27.8215 122.643 27.8605 122.721 27.9385C122.799 28.0105 122.853 28.1395 122.883 28.3255L123 29.5225ZM135.963 27.8215L130.905 39.6115C130.839 39.7495 130.758 39.8575 130.662 39.9355C130.572 40.0135 130.431 40.0525 130.239 40.0525H128.808L130.5 36.3805L126.756 27.8215H128.439C128.601 27.8215 128.724 27.8605 128.808 27.9385C128.898 28.0105 128.964 28.0975 129.006 28.1995L131.193 33.4105C131.247 33.5605 131.295 33.7105 131.337 33.8605C131.385 34.0045 131.43 34.1545 131.472 34.3105C131.52 34.1545 131.568 34.0015 131.616 33.8515C131.664 33.7015 131.718 33.5515 131.778 33.4015L133.875 28.1995C133.917 28.0915 133.986 28.0015 134.082 27.9295C134.184 27.8575 134.295 27.8215 134.415 27.8215H135.963Z" fill="#181818"/>
</svg>
