<svg width="320" height="24" viewBox="0 0 320 24" fill="none" xmlns="http://www.w3.org/2000/svg">
<rect x="0.891602" width="319" height="24" rx="12" fill="#FFCC4A"/>
<path d="M28.6676 12.488V16.888C28.0916 17.304 27.4756 17.616 26.8196 17.824C26.1689 18.0267 25.4543 18.128 24.6756 18.128C23.7529 18.128 22.9209 17.9867 22.1796 17.704C21.4383 17.416 20.8036 17.016 20.2756 16.504C19.7529 15.9867 19.3503 15.368 19.0676 14.648C18.7849 13.928 18.6436 13.136 18.6436 12.272C18.6436 11.3973 18.7796 10.6 19.0516 9.88C19.3289 9.16 19.7209 8.544 20.2276 8.032C20.7343 7.51467 21.3503 7.11467 22.0756 6.832C22.8009 6.54933 23.6116 6.408 24.5076 6.408C24.9609 6.408 25.3823 6.44267 25.7716 6.512C26.1609 6.576 26.5209 6.672 26.8516 6.8C27.1823 6.92267 27.4889 7.07467 27.7716 7.256C28.0543 7.432 28.3183 7.632 28.5636 7.856L28.1236 8.56C28.0543 8.66667 27.9636 8.736 27.8516 8.768C27.7449 8.79467 27.6249 8.768 27.4916 8.688C27.3636 8.61333 27.2169 8.52267 27.0516 8.416C26.8863 8.30933 26.6836 8.208 26.4436 8.112C26.2089 8.01067 25.9289 7.92533 25.6036 7.856C25.2836 7.78667 24.9023 7.752 24.4596 7.752C23.8143 7.752 23.2303 7.85867 22.7076 8.072C22.1849 8.28 21.7396 8.58133 21.3716 8.976C21.0036 9.36533 20.7209 9.84 20.5236 10.4C20.3263 10.9547 20.2276 11.5787 20.2276 12.272C20.2276 12.992 20.3289 13.6373 20.5316 14.208C20.7396 14.7733 21.0329 15.256 21.4116 15.656C21.7956 16.0507 22.2596 16.352 22.8036 16.56C23.3476 16.768 23.9583 16.872 24.6356 16.872C25.1689 16.872 25.6409 16.8133 26.0516 16.696C26.4676 16.5733 26.8729 16.4053 27.2676 16.192V13.672H25.4836C25.3823 13.672 25.2996 13.6427 25.2356 13.584C25.1769 13.5253 25.1476 13.4533 25.1476 13.368V12.488H28.6676ZM36.5391 12.088C36.9871 12.088 37.3818 12.0347 37.7231 11.928C38.0698 11.816 38.3578 11.6613 38.5871 11.464C38.8218 11.2613 38.9978 11.0213 39.1151 10.744C39.2324 10.4667 39.2911 10.16 39.2911 9.824C39.2911 9.14133 39.0671 8.62667 38.6191 8.28C38.1711 7.93333 37.4991 7.76 36.6031 7.76H34.9071V12.088H36.5391ZM41.8351 18H40.4591C40.1764 18 39.9684 17.8907 39.8351 17.672L36.8591 13.576C36.7684 13.448 36.6698 13.3573 36.5631 13.304C36.4618 13.2453 36.3018 13.216 36.0831 13.216H34.9071V18H33.3631V6.536H36.6031C37.3284 6.536 37.9551 6.61067 38.4831 6.76C39.0111 6.904 39.4458 7.11467 39.7871 7.392C40.1338 7.66933 40.3898 8.00533 40.5551 8.4C40.7204 8.78933 40.8031 9.22667 40.8031 9.712C40.8031 10.1173 40.7391 10.496 40.6111 10.848C40.4831 11.2 40.2964 11.5173 40.0511 11.8C39.8111 12.0773 39.5151 12.3147 39.1631 12.512C38.8164 12.7093 38.4218 12.8587 37.9791 12.96C38.1764 13.072 38.3471 13.2347 38.4911 13.448L41.8351 18ZM56.197 12.272C56.197 13.1307 56.061 13.92 55.789 14.64C55.517 15.3547 55.133 15.9707 54.637 16.488C54.141 17.0053 53.5436 17.408 52.845 17.696C52.1516 17.9787 51.3836 18.12 50.541 18.12C49.6983 18.12 48.9303 17.9787 48.237 17.696C47.5436 17.408 46.949 17.0053 46.453 16.488C45.957 15.9707 45.573 15.3547 45.301 14.64C45.029 13.92 44.893 13.1307 44.893 12.272C44.893 11.4133 45.029 10.6267 45.301 9.912C45.573 9.192 45.957 8.57333 46.453 8.056C46.949 7.53333 47.5436 7.128 48.237 6.84C48.9303 6.552 49.6983 6.408 50.541 6.408C51.3836 6.408 52.1516 6.552 52.845 6.84C53.5436 7.128 54.141 7.53333 54.637 8.056C55.133 8.57333 55.517 9.192 55.789 9.912C56.061 10.6267 56.197 11.4133 56.197 12.272ZM54.605 12.272C54.605 11.568 54.509 10.936 54.317 10.376C54.125 9.816 53.853 9.344 53.501 8.96C53.149 8.57067 52.7223 8.272 52.221 8.064C51.7196 7.856 51.1596 7.752 50.541 7.752C49.9276 7.752 49.3703 7.856 48.869 8.064C48.3676 8.272 47.9383 8.57067 47.581 8.96C47.229 9.344 46.957 9.816 46.765 10.376C46.573 10.936 46.477 11.568 46.477 12.272C46.477 12.976 46.573 13.608 46.765 14.168C46.957 14.7227 47.229 15.1947 47.581 15.584C47.9383 15.968 48.3676 16.264 48.869 16.472C49.3703 16.6747 49.9276 16.776 50.541 16.776C51.1596 16.776 51.7196 16.6747 52.221 16.472C52.7223 16.264 53.149 15.968 53.501 15.584C53.853 15.1947 54.125 14.7227 54.317 14.168C54.509 13.608 54.605 12.976 54.605 12.272ZM75.4216 6.536L71.8456 18H70.4536L67.5496 9.256C67.5229 9.17067 67.4963 9.08 67.4696 8.984C67.4483 8.888 67.4243 8.78667 67.3976 8.68C67.3709 8.78667 67.3443 8.888 67.3176 8.984C67.2909 9.08 67.2643 9.17067 67.2376 9.256L64.3176 18H62.9256L59.3496 6.536H60.6376C60.7763 6.536 60.8909 6.57067 60.9816 6.64C61.0776 6.70933 61.1389 6.79733 61.1656 6.904L63.5336 14.872C63.5709 15.016 63.6056 15.1707 63.6376 15.336C63.6749 15.5013 63.7096 15.6773 63.7416 15.864C63.7789 15.6773 63.8163 15.5013 63.8536 15.336C63.8963 15.1653 63.9416 15.0107 63.9896 14.872L66.6856 6.904C66.7176 6.81333 66.7789 6.73067 66.8696 6.656C66.9656 6.576 67.0803 6.536 67.2136 6.536H67.6616C67.8003 6.536 67.9123 6.57067 67.9976 6.64C68.0829 6.70933 68.1469 6.79733 68.1896 6.904L70.8776 14.872C70.9256 15.0107 70.9683 15.16 71.0056 15.32C71.0483 15.48 71.0883 15.648 71.1256 15.824C71.1523 15.648 71.1816 15.48 71.2136 15.32C71.2456 15.16 71.2803 15.0107 71.3176 14.872L73.6936 6.904C73.7203 6.808 73.7789 6.72267 73.8696 6.648C73.9656 6.57333 74.0803 6.536 74.2136 6.536H75.4216ZM81.0001 18H79.4481V6.536H81.0001V18ZM95.5405 6.536V18H94.7645C94.6418 18 94.5378 17.9787 94.4525 17.936C94.3725 17.8933 94.2925 17.8213 94.2125 17.72L87.5805 9.08C87.5911 9.21333 87.5991 9.344 87.6045 9.472C87.6098 9.6 87.6125 9.72 87.6125 9.832V18H86.2525V6.536H87.0525C87.1218 6.536 87.1805 6.54133 87.2285 6.552C87.2765 6.55733 87.3191 6.57067 87.3565 6.592C87.3938 6.608 87.4311 6.63467 87.4685 6.672C87.5058 6.704 87.5458 6.74667 87.5885 6.8L94.2205 15.432C94.2098 15.2933 94.1991 15.16 94.1885 15.032C94.1831 14.8987 94.1805 14.7733 94.1805 14.656V6.536H95.5405ZM110.103 12.488V16.888C109.527 17.304 108.911 17.616 108.255 17.824C107.605 18.0267 106.89 18.128 106.111 18.128C105.189 18.128 104.357 17.9867 103.615 17.704C102.874 17.416 102.239 17.016 101.711 16.504C101.189 15.9867 100.786 15.368 100.503 14.648C100.221 13.928 100.079 13.136 100.079 12.272C100.079 11.3973 100.215 10.6 100.487 9.88C100.765 9.16 101.157 8.544 101.663 8.032C102.17 7.51467 102.786 7.11467 103.511 6.832C104.237 6.54933 105.047 6.408 105.943 6.408C106.397 6.408 106.818 6.44267 107.207 6.512C107.597 6.576 107.957 6.672 108.287 6.8C108.618 6.92267 108.925 7.07467 109.207 7.256C109.49 7.432 109.754 7.632 109.999 7.856L109.559 8.56C109.49 8.66667 109.399 8.736 109.287 8.768C109.181 8.79467 109.061 8.768 108.927 8.688C108.799 8.61333 108.653 8.52267 108.487 8.416C108.322 8.30933 108.119 8.208 107.879 8.112C107.645 8.01067 107.365 7.92533 107.039 7.856C106.719 7.78667 106.338 7.752 105.895 7.752C105.25 7.752 104.666 7.85867 104.143 8.072C103.621 8.28 103.175 8.58133 102.807 8.976C102.439 9.36533 102.157 9.84 101.959 10.4C101.762 10.9547 101.663 11.5787 101.663 12.272C101.663 12.992 101.765 13.6373 101.967 14.208C102.175 14.7733 102.469 15.256 102.847 15.656C103.231 16.0507 103.695 16.352 104.239 16.56C104.783 16.768 105.394 16.872 106.071 16.872C106.605 16.872 107.077 16.8133 107.487 16.696C107.903 16.5733 108.309 16.4053 108.703 16.192V13.672H106.919C106.818 13.672 106.735 13.6427 106.671 13.584C106.613 13.5253 106.583 13.4533 106.583 13.368V12.488H110.103ZM135.85 6.536L132.274 18H130.882L127.978 9.256C127.951 9.17067 127.924 9.08 127.898 8.984C127.876 8.888 127.852 8.78667 127.826 8.68C127.799 8.78667 127.772 8.888 127.746 8.984C127.719 9.08 127.692 9.17067 127.666 9.256L124.746 18H123.354L119.778 6.536H121.066C121.204 6.536 121.319 6.57067 121.41 6.64C121.506 6.70933 121.567 6.79733 121.594 6.904L123.962 14.872C123.999 15.016 124.034 15.1707 124.066 15.336C124.103 15.5013 124.138 15.6773 124.17 15.864C124.207 15.6773 124.244 15.5013 124.282 15.336C124.324 15.1653 124.37 15.0107 124.418 14.872L127.114 6.904C127.146 6.81333 127.207 6.73067 127.298 6.656C127.394 6.576 127.508 6.536 127.642 6.536H128.09C128.228 6.536 128.34 6.57067 128.426 6.64C128.511 6.70933 128.575 6.79733 128.618 6.904L131.306 14.872C131.354 15.0107 131.396 15.16 131.434 15.32C131.476 15.48 131.516 15.648 131.554 15.824C131.58 15.648 131.61 15.48 131.642 15.32C131.674 15.16 131.708 15.0107 131.746 14.872L134.122 6.904C134.148 6.808 134.207 6.72267 134.298 6.648C134.394 6.57333 134.508 6.536 134.642 6.536H135.85ZM141.428 18H139.876V6.536H141.428V18ZM154.433 7.84H150.721V18H149.177V7.84H145.457V6.536H154.433V7.84ZM167.742 6.536V18H166.19V12.784H160.006V18H158.454V6.536H160.006V11.648H166.19V6.536H167.742ZM189.998 12.272C189.998 13.1307 189.862 13.92 189.59 14.64C189.318 15.3547 188.934 15.9707 188.438 16.488C187.942 17.0053 187.345 17.408 186.646 17.696C185.953 17.9787 185.185 18.12 184.342 18.12C183.5 18.12 182.732 17.9787 182.038 17.696C181.345 17.408 180.75 17.0053 180.254 16.488C179.758 15.9707 179.374 15.3547 179.102 14.64C178.83 13.92 178.694 13.1307 178.694 12.272C178.694 11.4133 178.83 10.6267 179.102 9.912C179.374 9.192 179.758 8.57333 180.254 8.056C180.75 7.53333 181.345 7.128 182.038 6.84C182.732 6.552 183.5 6.408 184.342 6.408C185.185 6.408 185.953 6.552 186.646 6.84C187.345 7.128 187.942 7.53333 188.438 8.056C188.934 8.57333 189.318 9.192 189.59 9.912C189.862 10.6267 189.998 11.4133 189.998 12.272ZM188.406 12.272C188.406 11.568 188.31 10.936 188.118 10.376C187.926 9.816 187.654 9.344 187.302 8.96C186.95 8.57067 186.524 8.272 186.022 8.064C185.521 7.856 184.961 7.752 184.342 7.752C183.729 7.752 183.172 7.856 182.67 8.064C182.169 8.272 181.74 8.57067 181.382 8.96C181.03 9.344 180.758 9.816 180.566 10.376C180.374 10.936 180.278 11.568 180.278 12.272C180.278 12.976 180.374 13.608 180.566 14.168C180.758 14.7227 181.03 15.1947 181.382 15.584C181.74 15.968 182.169 16.264 182.67 16.472C183.172 16.6747 183.729 16.776 184.342 16.776C184.961 16.776 185.521 16.6747 186.022 16.472C186.524 16.264 186.95 15.968 187.302 15.584C187.654 15.1947 187.926 14.7227 188.118 14.168C188.31 13.608 188.406 12.976 188.406 12.272ZM198.963 16.768C199.437 16.768 199.861 16.688 200.235 16.528C200.608 16.368 200.923 16.144 201.179 15.856C201.44 15.568 201.637 15.224 201.771 14.824C201.909 14.424 201.979 13.984 201.979 13.504V6.536H203.523V13.504C203.523 14.1653 203.416 14.7787 203.203 15.344C202.995 15.9093 202.693 16.4 202.299 16.816C201.909 17.2267 201.432 17.5493 200.867 17.784C200.301 18.0187 199.667 18.136 198.963 18.136C198.259 18.136 197.624 18.0187 197.059 17.784C196.493 17.5493 196.013 17.2267 195.619 16.816C195.224 16.4 194.92 15.9093 194.707 15.344C194.499 14.7787 194.395 14.1653 194.395 13.504V6.536H195.939V13.496C195.939 13.976 196.005 14.416 196.139 14.816C196.277 15.216 196.475 15.56 196.731 15.848C196.992 16.136 197.309 16.3627 197.683 16.528C198.061 16.688 198.488 16.768 198.963 16.768ZM211.8 12.088C212.248 12.088 212.643 12.0347 212.984 11.928C213.331 11.816 213.619 11.6613 213.848 11.464C214.083 11.2613 214.259 11.0213 214.376 10.744C214.494 10.4667 214.552 10.16 214.552 9.824C214.552 9.14133 214.328 8.62667 213.88 8.28C213.432 7.93333 212.76 7.76 211.864 7.76H210.168V12.088H211.8ZM217.096 18H215.72C215.438 18 215.23 17.8907 215.096 17.672L212.12 13.576C212.03 13.448 211.931 13.3573 211.824 13.304C211.723 13.2453 211.563 13.216 211.344 13.216H210.168V18H208.624V6.536H211.864C212.59 6.536 213.216 6.61067 213.744 6.76C214.272 6.904 214.707 7.11467 215.048 7.392C215.395 7.66933 215.651 8.00533 215.816 8.4C215.982 8.78933 216.064 9.22667 216.064 9.712C216.064 10.1173 216 10.496 215.872 10.848C215.744 11.2 215.558 11.5173 215.312 11.8C215.072 12.0773 214.776 12.3147 214.424 12.512C214.078 12.7093 213.683 12.8587 213.24 12.96C213.438 13.072 213.608 13.2347 213.752 13.448L217.096 18ZM235.437 15.632C235.523 15.632 235.597 15.6667 235.661 15.736L236.277 16.4C235.808 16.944 235.237 17.368 234.565 17.672C233.899 17.976 233.091 18.128 232.141 18.128C231.32 18.128 230.573 17.9867 229.901 17.704C229.229 17.416 228.656 17.016 228.181 16.504C227.707 15.9867 227.339 15.368 227.077 14.648C226.816 13.928 226.685 13.136 226.685 12.272C226.685 11.408 226.821 10.616 227.093 9.896C227.365 9.176 227.747 8.55733 228.237 8.04C228.733 7.52267 229.325 7.12267 230.013 6.84C230.701 6.552 231.461 6.408 232.293 6.408C233.109 6.408 233.829 6.53867 234.453 6.8C235.077 7.06133 235.627 7.416 236.101 7.864L235.589 8.576C235.557 8.62933 235.515 8.67467 235.461 8.712C235.413 8.744 235.347 8.76 235.261 8.76C235.165 8.76 235.048 8.70933 234.909 8.608C234.771 8.50133 234.589 8.384 234.365 8.256C234.141 8.128 233.861 8.01333 233.525 7.912C233.189 7.80533 232.776 7.752 232.285 7.752C231.693 7.752 231.152 7.856 230.661 8.064C230.171 8.26667 229.747 8.56267 229.389 8.952C229.037 9.34133 228.763 9.816 228.565 10.376C228.368 10.936 228.269 11.568 228.269 12.272C228.269 12.9867 228.371 13.624 228.573 14.184C228.781 14.744 229.061 15.2187 229.413 15.608C229.771 15.992 230.189 16.2853 230.669 16.488C231.155 16.6907 231.677 16.792 232.237 16.792C232.579 16.792 232.885 16.7733 233.157 16.736C233.435 16.6933 233.688 16.6293 233.917 16.544C234.152 16.4587 234.368 16.352 234.565 16.224C234.768 16.0907 234.968 15.9333 235.165 15.752C235.256 15.672 235.347 15.632 235.437 15.632ZM246.901 16.696V18H240.397V6.536H241.941V16.696H246.901ZM252.488 18H250.936V6.536H252.488V18ZM264.812 16.736L264.804 18H257.74V6.536H264.804V7.8H259.292V11.608H263.756V12.824H259.292V16.736H264.812ZM278.582 6.536V18H277.806C277.684 18 277.58 17.9787 277.494 17.936C277.414 17.8933 277.334 17.8213 277.254 17.72L270.622 9.08C270.633 9.21333 270.641 9.344 270.646 9.472C270.652 9.6 270.654 9.72 270.654 9.832V18H269.294V6.536H270.094C270.164 6.536 270.222 6.54133 270.27 6.552C270.318 6.55733 270.361 6.57067 270.398 6.592C270.436 6.608 270.473 6.63467 270.51 6.672C270.548 6.704 270.588 6.74667 270.63 6.8L277.262 15.432C277.252 15.2933 277.241 15.16 277.23 15.032C277.225 14.8987 277.222 14.7733 277.222 14.656V6.536H278.582ZM291.585 7.84H287.873V18H286.329V7.84H282.609V6.536H291.585V7.84ZM301.423 8.328C301.375 8.408 301.322 8.46933 301.263 8.512C301.21 8.54933 301.143 8.568 301.063 8.568C300.973 8.568 300.866 8.52267 300.743 8.432C300.621 8.34133 300.466 8.24267 300.279 8.136C300.098 8.024 299.877 7.92267 299.615 7.832C299.359 7.74133 299.047 7.696 298.679 7.696C298.333 7.696 298.026 7.744 297.759 7.84C297.498 7.93067 297.277 8.056 297.095 8.216C296.919 8.376 296.786 8.56533 296.695 8.784C296.605 8.99733 296.559 9.22933 296.559 9.48C296.559 9.8 296.637 10.0667 296.791 10.28C296.951 10.488 297.159 10.6667 297.415 10.816C297.677 10.9653 297.97 11.096 298.295 11.208C298.626 11.3147 298.962 11.4267 299.303 11.544C299.65 11.6613 299.986 11.7947 300.311 11.944C300.642 12.088 300.935 12.272 301.191 12.496C301.453 12.72 301.661 12.9947 301.815 13.32C301.975 13.6453 302.055 14.0453 302.055 14.52C302.055 15.0213 301.97 15.4933 301.799 15.936C301.629 16.3733 301.378 16.7547 301.047 17.08C300.722 17.4053 300.319 17.6613 299.839 17.848C299.365 18.0347 298.823 18.128 298.215 18.128C297.469 18.128 296.791 17.9947 296.183 17.728C295.575 17.456 295.055 17.0907 294.623 16.632L295.071 15.896C295.114 15.8373 295.165 15.7893 295.223 15.752C295.287 15.7093 295.357 15.688 295.431 15.688C295.501 15.688 295.578 15.7173 295.663 15.776C295.754 15.8293 295.855 15.8987 295.967 15.984C296.079 16.0693 296.207 16.1627 296.351 16.264C296.495 16.3653 296.658 16.4587 296.839 16.544C297.026 16.6293 297.237 16.7013 297.471 16.76C297.706 16.8133 297.97 16.84 298.263 16.84C298.631 16.84 298.959 16.7893 299.247 16.688C299.535 16.5867 299.778 16.4453 299.975 16.264C300.178 16.0773 300.333 15.856 300.439 15.6C300.546 15.344 300.599 15.0587 300.599 14.744C300.599 14.3973 300.519 14.1147 300.359 13.896C300.205 13.672 299.999 13.4853 299.743 13.336C299.487 13.1867 299.194 13.0613 298.863 12.96C298.533 12.8533 298.197 12.7467 297.855 12.64C297.514 12.528 297.178 12.4 296.847 12.256C296.517 12.112 296.223 11.9253 295.967 11.696C295.711 11.4667 295.503 11.1813 295.343 10.84C295.189 10.4933 295.111 10.0667 295.111 9.56C295.111 9.15467 295.189 8.76267 295.343 8.384C295.503 8.00533 295.733 7.66933 296.031 7.376C296.335 7.08267 296.706 6.848 297.143 6.672C297.586 6.496 298.093 6.408 298.663 6.408C299.303 6.408 299.885 6.50933 300.407 6.712C300.935 6.91467 301.399 7.208 301.799 7.592L301.423 8.328Z" fill="#181818"/>
</svg>
