<svg width="127" height="24" viewBox="0 0 127 24" fill="none" xmlns="http://www.w3.org/2000/svg">
<rect width="127" height="24" rx="12" fill="#4EAF4E"/>
<path d="M19.848 12.48C20.2907 12.48 20.68 12.4213 21.016 12.304C21.3573 12.1867 21.6427 12.024 21.872 11.816C22.1067 11.6027 22.2827 11.3493 22.4 11.056C22.5173 10.7627 22.576 10.44 22.576 10.088C22.576 9.35733 22.3493 8.78667 21.896 8.376C21.448 7.96533 20.7653 7.76 19.848 7.76H18.008V12.48H19.848ZM19.848 6.536C20.5733 6.536 21.2027 6.62133 21.736 6.792C22.2747 6.95733 22.72 7.19467 23.072 7.504C23.424 7.81333 23.6853 8.18667 23.856 8.624C24.032 9.06133 24.12 9.54933 24.12 10.088C24.12 10.6213 24.0267 11.1093 23.84 11.552C23.6533 11.9947 23.3787 12.376 23.016 12.696C22.6587 13.016 22.2133 13.2667 21.68 13.448C21.152 13.624 20.5413 13.712 19.848 13.712H18.008V18H16.464V6.536H19.848ZM31.5694 12.088C32.0174 12.088 32.412 12.0347 32.7534 11.928C33.1 11.816 33.388 11.6613 33.6174 11.464C33.852 11.2613 34.028 11.0213 34.1454 10.744C34.2627 10.4667 34.3214 10.16 34.3214 9.824C34.3214 9.14133 34.0974 8.62667 33.6494 8.28C33.2014 7.93333 32.5294 7.76 31.6334 7.76H29.9374V12.088H31.5694ZM36.8654 18H35.4894C35.2067 18 34.9987 17.8907 34.8654 17.672L31.8894 13.576C31.7987 13.448 31.7 13.3573 31.5934 13.304C31.492 13.2453 31.332 13.216 31.1134 13.216H29.9374V18H28.3934V6.536H31.6334C32.3587 6.536 32.9854 6.61067 33.5134 6.76C34.0414 6.904 34.476 7.11467 34.8174 7.392C35.164 7.66933 35.42 8.00533 35.5854 8.4C35.7507 8.78933 35.8334 9.22667 35.8334 9.712C35.8334 10.1173 35.7694 10.496 35.6414 10.848C35.5134 11.2 35.3267 11.5173 35.0814 11.8C34.8414 12.0773 34.5454 12.3147 34.1934 12.512C33.8467 12.7093 33.452 12.8587 33.0094 12.96C33.2067 13.072 33.3774 13.2347 33.5214 13.448L36.8654 18ZM51.2273 12.272C51.2273 13.1307 51.0913 13.92 50.8193 14.64C50.5473 15.3547 50.1632 15.9707 49.6672 16.488C49.1713 17.0053 48.5739 17.408 47.8752 17.696C47.1819 17.9787 46.4139 18.12 45.5712 18.12C44.7286 18.12 43.9606 17.9787 43.2672 17.696C42.5739 17.408 41.9792 17.0053 41.4832 16.488C40.9872 15.9707 40.6032 15.3547 40.3312 14.64C40.0592 13.92 39.9232 13.1307 39.9232 12.272C39.9232 11.4133 40.0592 10.6267 40.3312 9.912C40.6032 9.192 40.9872 8.57333 41.4832 8.056C41.9792 7.53333 42.5739 7.128 43.2672 6.84C43.9606 6.552 44.7286 6.408 45.5712 6.408C46.4139 6.408 47.1819 6.552 47.8752 6.84C48.5739 7.128 49.1713 7.53333 49.6672 8.056C50.1632 8.57333 50.5473 9.192 50.8193 9.912C51.0913 10.6267 51.2273 11.4133 51.2273 12.272ZM49.6353 12.272C49.6353 11.568 49.5393 10.936 49.3472 10.376C49.1552 9.816 48.8832 9.344 48.5312 8.96C48.1793 8.57067 47.7526 8.272 47.2512 8.064C46.7499 7.856 46.1899 7.752 45.5712 7.752C44.9579 7.752 44.4006 7.856 43.8992 8.064C43.3979 8.272 42.9686 8.57067 42.6112 8.96C42.2592 9.344 41.9872 9.816 41.7952 10.376C41.6032 10.936 41.5072 11.568 41.5072 12.272C41.5072 12.976 41.6032 13.608 41.7952 14.168C41.9872 14.7227 42.2592 15.1947 42.6112 15.584C42.9686 15.968 43.3979 16.264 43.8992 16.472C44.4006 16.6747 44.9579 16.776 45.5712 16.776C46.1899 16.776 46.7499 16.6747 47.2512 16.472C47.7526 16.264 48.1793 15.968 48.5312 15.584C48.8832 15.1947 49.1552 14.7227 49.3472 14.168C49.5393 13.608 49.6353 12.976 49.6353 12.272ZM63.8157 15.632C63.9011 15.632 63.9757 15.6667 64.0397 15.736L64.6557 16.4C64.1864 16.944 63.6157 17.368 62.9437 17.672C62.2771 17.976 61.4691 18.128 60.5197 18.128C59.6984 18.128 58.9517 17.9867 58.2797 17.704C57.6077 17.416 57.0344 17.016 56.5597 16.504C56.0851 15.9867 55.7171 15.368 55.4557 14.648C55.1944 13.928 55.0637 13.136 55.0637 12.272C55.0637 11.408 55.1997 10.616 55.4717 9.896C55.7437 9.176 56.1251 8.55733 56.6157 8.04C57.1117 7.52267 57.7037 7.12267 58.3917 6.84C59.0797 6.552 59.8397 6.408 60.6717 6.408C61.4877 6.408 62.2077 6.53867 62.8317 6.8C63.4557 7.06133 64.0051 7.416 64.4797 7.864L63.9677 8.576C63.9357 8.62933 63.8931 8.67467 63.8397 8.712C63.7917 8.744 63.7251 8.76 63.6397 8.76C63.5437 8.76 63.4264 8.70933 63.2877 8.608C63.1491 8.50133 62.9677 8.384 62.7437 8.256C62.5197 8.128 62.2397 8.01333 61.9037 7.912C61.5677 7.80533 61.1544 7.752 60.6637 7.752C60.0717 7.752 59.5304 7.856 59.0397 8.064C58.5491 8.26667 58.1251 8.56267 57.7677 8.952C57.4157 9.34133 57.1411 9.816 56.9437 10.376C56.7464 10.936 56.6477 11.568 56.6477 12.272C56.6477 12.9867 56.7491 13.624 56.9517 14.184C57.1597 14.744 57.4397 15.2187 57.7917 15.608C58.1491 15.992 58.5677 16.2853 59.0477 16.488C59.5331 16.6907 60.0557 16.792 60.6157 16.792C60.9571 16.792 61.2637 16.7733 61.5357 16.736C61.8131 16.6933 62.0664 16.6293 62.2957 16.544C62.5304 16.4587 62.7464 16.352 62.9437 16.224C63.1464 16.0907 63.3464 15.9333 63.5437 15.752C63.6344 15.672 63.7251 15.632 63.8157 15.632ZM76.6045 15.632C76.6898 15.632 76.7645 15.6667 76.8285 15.736L77.4445 16.4C76.9752 16.944 76.4045 17.368 75.7325 17.672C75.0658 17.976 74.2578 18.128 73.3085 18.128C72.4872 18.128 71.7405 17.9867 71.0685 17.704C70.3965 17.416 69.8232 17.016 69.3485 16.504C68.8738 15.9867 68.5058 15.368 68.2445 14.648C67.9832 13.928 67.8525 13.136 67.8525 12.272C67.8525 11.408 67.9885 10.616 68.2605 9.896C68.5325 9.176 68.9138 8.55733 69.4045 8.04C69.9005 7.52267 70.4925 7.12267 71.1805 6.84C71.8685 6.552 72.6285 6.408 73.4605 6.408C74.2765 6.408 74.9965 6.53867 75.6205 6.8C76.2445 7.06133 76.7938 7.416 77.2685 7.864L76.7565 8.576C76.7245 8.62933 76.6818 8.67467 76.6285 8.712C76.5805 8.744 76.5138 8.76 76.4285 8.76C76.3325 8.76 76.2152 8.70933 76.0765 8.608C75.9378 8.50133 75.7565 8.384 75.5325 8.256C75.3085 8.128 75.0285 8.01333 74.6925 7.912C74.3565 7.80533 73.9432 7.752 73.4525 7.752C72.8605 7.752 72.3192 7.856 71.8285 8.064C71.3378 8.26667 70.9138 8.56267 70.5565 8.952C70.2045 9.34133 69.9298 9.816 69.7325 10.376C69.5352 10.936 69.4365 11.568 69.4365 12.272C69.4365 12.9867 69.5378 13.624 69.7405 14.184C69.9485 14.744 70.2285 15.2187 70.5805 15.608C70.9378 15.992 71.3565 16.2853 71.8365 16.488C72.3218 16.6907 72.8445 16.792 73.4045 16.792C73.7458 16.792 74.0525 16.7733 74.3245 16.736C74.6018 16.6933 74.8552 16.6293 75.0845 16.544C75.3192 16.4587 75.5352 16.352 75.7325 16.224C75.9352 16.0907 76.1352 15.9333 76.3325 15.752C76.4232 15.672 76.5138 15.632 76.6045 15.632ZM88.636 16.736L88.628 18H81.564V6.536H88.628V7.8H83.116V11.608H87.58V12.824H83.116V16.736H88.636ZM98.9824 8.328C98.9344 8.408 98.881 8.46933 98.8224 8.512C98.769 8.54933 98.7024 8.568 98.6224 8.568C98.5317 8.568 98.425 8.52267 98.3024 8.432C98.1797 8.34133 98.025 8.24267 97.8384 8.136C97.657 8.024 97.4357 7.92267 97.1744 7.832C96.9184 7.74133 96.6064 7.696 96.2384 7.696C95.8917 7.696 95.585 7.744 95.3184 7.84C95.057 7.93067 94.8357 8.056 94.6544 8.216C94.4784 8.376 94.345 8.56533 94.2544 8.784C94.1637 8.99733 94.1184 9.22933 94.1184 9.48C94.1184 9.8 94.1957 10.0667 94.3504 10.28C94.5104 10.488 94.7184 10.6667 94.9744 10.816C95.2357 10.9653 95.529 11.096 95.8544 11.208C96.185 11.3147 96.521 11.4267 96.8624 11.544C97.209 11.6613 97.545 11.7947 97.8704 11.944C98.201 12.088 98.4944 12.272 98.7504 12.496C99.0117 12.72 99.2197 12.9947 99.3744 13.32C99.5344 13.6453 99.6144 14.0453 99.6144 14.52C99.6144 15.0213 99.529 15.4933 99.3584 15.936C99.1877 16.3733 98.937 16.7547 98.6064 17.08C98.281 17.4053 97.8784 17.6613 97.3984 17.848C96.9237 18.0347 96.3824 18.128 95.7744 18.128C95.0277 18.128 94.3504 17.9947 93.7424 17.728C93.1344 17.456 92.6144 17.0907 92.1824 16.632L92.6304 15.896C92.673 15.8373 92.7237 15.7893 92.7824 15.752C92.8464 15.7093 92.9157 15.688 92.9904 15.688C93.0597 15.688 93.137 15.7173 93.2224 15.776C93.313 15.8293 93.4144 15.8987 93.5264 15.984C93.6384 16.0693 93.7664 16.1627 93.9104 16.264C94.0544 16.3653 94.217 16.4587 94.3984 16.544C94.585 16.6293 94.7957 16.7013 95.0304 16.76C95.265 16.8133 95.529 16.84 95.8224 16.84C96.1904 16.84 96.5184 16.7893 96.8064 16.688C97.0944 16.5867 97.337 16.4453 97.5344 16.264C97.737 16.0773 97.8917 15.856 97.9984 15.6C98.105 15.344 98.1584 15.0587 98.1584 14.744C98.1584 14.3973 98.0784 14.1147 97.9184 13.896C97.7637 13.672 97.5584 13.4853 97.3024 13.336C97.0464 13.1867 96.753 13.0613 96.4224 12.96C96.0917 12.8533 95.7557 12.7467 95.4144 12.64C95.073 12.528 94.737 12.4 94.4064 12.256C94.0757 12.112 93.7824 11.9253 93.5264 11.696C93.2704 11.4667 93.0624 11.1813 92.9024 10.84C92.7477 10.4933 92.6704 10.0667 92.6704 9.56C92.6704 9.15467 92.7477 8.76267 92.9024 8.384C93.0624 8.00533 93.2917 7.66933 93.5904 7.376C93.8944 7.08267 94.265 6.848 94.7024 6.672C95.145 6.496 95.6517 6.408 96.2224 6.408C96.8624 6.408 97.4437 6.50933 97.9664 6.712C98.4944 6.91467 98.9584 7.208 99.3584 7.592L98.9824 8.328ZM109.99 8.328C109.942 8.408 109.889 8.46933 109.83 8.512C109.777 8.54933 109.71 8.568 109.63 8.568C109.539 8.568 109.433 8.52267 109.31 8.432C109.187 8.34133 109.033 8.24267 108.846 8.136C108.665 8.024 108.443 7.92267 108.182 7.832C107.926 7.74133 107.614 7.696 107.246 7.696C106.899 7.696 106.593 7.744 106.326 7.84C106.065 7.93067 105.843 8.056 105.662 8.216C105.486 8.376 105.353 8.56533 105.262 8.784C105.171 8.99733 105.126 9.22933 105.126 9.48C105.126 9.8 105.203 10.0667 105.358 10.28C105.518 10.488 105.726 10.6667 105.982 10.816C106.243 10.9653 106.537 11.096 106.862 11.208C107.193 11.3147 107.529 11.4267 107.87 11.544C108.217 11.6613 108.553 11.7947 108.878 11.944C109.209 12.088 109.502 12.272 109.758 12.496C110.019 12.72 110.227 12.9947 110.382 13.32C110.542 13.6453 110.622 14.0453 110.622 14.52C110.622 15.0213 110.537 15.4933 110.366 15.936C110.195 16.3733 109.945 16.7547 109.614 17.08C109.289 17.4053 108.886 17.6613 108.406 17.848C107.931 18.0347 107.39 18.128 106.782 18.128C106.035 18.128 105.358 17.9947 104.75 17.728C104.142 17.456 103.622 17.0907 103.19 16.632L103.638 15.896C103.681 15.8373 103.731 15.7893 103.79 15.752C103.854 15.7093 103.923 15.688 103.998 15.688C104.067 15.688 104.145 15.7173 104.23 15.776C104.321 15.8293 104.422 15.8987 104.534 15.984C104.646 16.0693 104.774 16.1627 104.918 16.264C105.062 16.3653 105.225 16.4587 105.406 16.544C105.593 16.6293 105.803 16.7013 106.038 16.76C106.273 16.8133 106.537 16.84 106.83 16.84C107.198 16.84 107.526 16.7893 107.814 16.688C108.102 16.5867 108.345 16.4453 108.542 16.264C108.745 16.0773 108.899 15.856 109.006 15.6C109.113 15.344 109.166 15.0587 109.166 14.744C109.166 14.3973 109.086 14.1147 108.926 13.896C108.771 13.672 108.566 13.4853 108.31 13.336C108.054 13.1867 107.761 13.0613 107.43 12.96C107.099 12.8533 106.763 12.7467 106.422 12.64C106.081 12.528 105.745 12.4 105.414 12.256C105.083 12.112 104.79 11.9253 104.534 11.696C104.278 11.4667 104.07 11.1813 103.91 10.84C103.755 10.4933 103.678 10.0667 103.678 9.56C103.678 9.15467 103.755 8.76267 103.91 8.384C104.07 8.00533 104.299 7.66933 104.598 7.376C104.902 7.08267 105.273 6.848 105.71 6.672C106.153 6.496 106.659 6.408 107.23 6.408C107.87 6.408 108.451 6.50933 108.974 6.712C109.502 6.91467 109.966 7.208 110.366 7.592L109.99 8.328Z" fill="white"/>
</svg>
