<svg width="121" height="24" viewBox="0 0 121 24" fill="none" xmlns="http://www.w3.org/2000/svg">
<rect x="0.498047" y="-0.000976562" width="120" height="24" rx="12" fill="#4EAF4E"/>
<path d="M23.917 8.32702C23.869 8.40702 23.8157 8.46836 23.757 8.51102C23.7037 8.54836 23.637 8.56702 23.557 8.56702C23.4663 8.56702 23.3597 8.52169 23.237 8.43102C23.1143 8.34036 22.9597 8.24169 22.773 8.13502C22.5917 8.02302 22.3703 7.92169 22.109 7.83102C21.853 7.74036 21.541 7.69502 21.173 7.69502C20.8263 7.69502 20.5197 7.74302 20.253 7.83902C19.9917 7.92969 19.7703 8.05502 19.589 8.21502C19.413 8.37502 19.2797 8.56436 19.189 8.78302C19.0983 8.99636 19.053 9.22836 19.053 9.47902C19.053 9.79902 19.1303 10.0657 19.285 10.279C19.445 10.487 19.653 10.6657 19.909 10.815C20.1703 10.9644 20.4637 11.095 20.789 11.207C21.1197 11.3137 21.4557 11.4257 21.797 11.543C22.1437 11.6604 22.4797 11.7937 22.805 11.943C23.1357 12.087 23.429 12.271 23.685 12.495C23.9463 12.719 24.1543 12.9937 24.309 13.319C24.469 13.6444 24.549 14.0444 24.549 14.519C24.549 15.0204 24.4637 15.4924 24.293 15.935C24.1223 16.3724 23.8717 16.7537 23.541 17.079C23.2157 17.4044 22.813 17.6604 22.333 17.847C21.8583 18.0337 21.317 18.127 20.709 18.127C19.9623 18.127 19.285 17.9937 18.677 17.727C18.069 17.455 17.549 17.0897 17.117 16.631L17.565 15.895C17.6077 15.8364 17.6583 15.7884 17.717 15.751C17.781 15.7084 17.8503 15.687 17.925 15.687C17.9943 15.687 18.0717 15.7164 18.157 15.775C18.2477 15.8284 18.349 15.8977 18.461 15.983C18.573 16.0684 18.701 16.1617 18.845 16.263C18.989 16.3644 19.1517 16.4577 19.333 16.543C19.5197 16.6284 19.7303 16.7004 19.965 16.759C20.1997 16.8124 20.4637 16.839 20.757 16.839C21.125 16.839 21.453 16.7884 21.741 16.687C22.029 16.5857 22.2717 16.4444 22.469 16.263C22.6717 16.0764 22.8263 15.855 22.933 15.599C23.0397 15.343 23.093 15.0577 23.093 14.743C23.093 14.3964 23.013 14.1137 22.853 13.895C22.6983 13.671 22.493 13.4844 22.237 13.335C21.981 13.1857 21.6877 13.0604 21.357 12.959C21.0263 12.8524 20.6903 12.7457 20.349 12.639C20.0077 12.527 19.6717 12.399 19.341 12.255C19.0103 12.111 18.717 11.9244 18.461 11.695C18.205 11.4657 17.997 11.1804 17.837 10.839C17.6823 10.4924 17.605 10.0657 17.605 9.55902C17.605 9.15369 17.6823 8.76169 17.837 8.38302C17.997 8.00436 18.2263 7.66836 18.525 7.37502C18.829 7.08169 19.1997 6.84702 19.637 6.67102C20.0797 6.49502 20.5863 6.40702 21.157 6.40702C21.797 6.40702 22.3783 6.50836 22.901 6.71102C23.429 6.91369 23.893 7.20702 24.293 7.59102L23.917 8.32702ZM36.1325 16.735L36.1245 17.999H29.0605V6.53502H36.1245V7.79902H30.6125V11.607H35.0765V12.823H30.6125V16.735H36.1325ZM43.7909 12.087C44.2389 12.087 44.6335 12.0337 44.9749 11.927C45.3215 11.815 45.6095 11.6604 45.8389 11.463C46.0735 11.2604 46.2495 11.0204 46.3669 10.743C46.4842 10.4657 46.5429 10.159 46.5429 9.82302C46.5429 9.14036 46.3189 8.62569 45.8709 8.27902C45.4229 7.93236 44.7509 7.75902 43.8549 7.75902H42.1589V12.087H43.7909ZM49.0869 17.999H47.7109C47.4282 17.999 47.2202 17.8897 47.0869 17.671L44.1109 13.575C44.0202 13.447 43.9215 13.3564 43.8149 13.303C43.7135 13.2444 43.5535 13.215 43.3349 13.215H42.1589V17.999H40.6149V6.53502H43.8549C44.5802 6.53502 45.2069 6.60969 45.7349 6.75902C46.2629 6.90302 46.6975 7.11369 47.0389 7.39102C47.3855 7.66836 47.6415 8.00436 47.8069 8.39902C47.9722 8.78836 48.0549 9.22569 48.0549 9.71102C48.0549 10.1164 47.9909 10.495 47.8629 10.847C47.7349 11.199 47.5482 11.5164 47.3029 11.799C47.0629 12.0764 46.7669 12.3137 46.4149 12.511C46.0682 12.7084 45.6735 12.8577 45.2309 12.959C45.4282 13.071 45.5989 13.2337 45.7429 13.447L49.0869 17.999ZM61.9892 6.53502L57.3172 17.999H55.9252L51.2532 6.53502H52.4932C52.6319 6.53502 52.7439 6.56969 52.8292 6.63902C52.9146 6.70836 52.9786 6.79636 53.0212 6.90302L56.2532 14.991C56.3226 15.1724 56.3892 15.3697 56.4532 15.583C56.5226 15.7964 56.5839 16.0204 56.6372 16.255C56.6906 16.0204 56.7466 15.7964 56.8052 15.583C56.8639 15.3697 56.9279 15.1724 56.9972 14.991L60.2212 6.90302C60.2532 6.81236 60.3146 6.72969 60.4052 6.65502C60.5012 6.57502 60.6159 6.53502 60.7492 6.53502H61.9892ZM67.3694 17.999H65.8174V6.53502H67.3694V17.999ZM80.6697 15.631C80.7551 15.631 80.8297 15.6657 80.8937 15.735L81.5097 16.399C81.0404 16.943 80.4697 17.367 79.7977 17.671C79.1311 17.975 78.3231 18.127 77.3737 18.127C76.5524 18.127 75.8057 17.9857 75.1337 17.703C74.4617 17.415 73.8884 17.015 73.4137 16.503C72.9391 15.9857 72.5711 15.367 72.3097 14.647C72.0484 13.927 71.9177 13.135 71.9177 12.271C71.9177 11.407 72.0537 10.615 72.3257 9.89502C72.5977 9.17502 72.9791 8.55636 73.4697 8.03902C73.9657 7.52169 74.5577 7.12169 75.2457 6.83902C75.9337 6.55102 76.6937 6.40702 77.5257 6.40702C78.3417 6.40702 79.0617 6.53769 79.6857 6.79902C80.3097 7.06036 80.8591 7.41502 81.3337 7.86302L80.8217 8.57502C80.7897 8.62836 80.7471 8.67369 80.6937 8.71102C80.6457 8.74302 80.5791 8.75902 80.4937 8.75902C80.3977 8.75902 80.2804 8.70836 80.1417 8.60702C80.0031 8.50036 79.8217 8.38302 79.5977 8.25502C79.3737 8.12702 79.0937 8.01236 78.7577 7.91102C78.4217 7.80436 78.0084 7.75102 77.5177 7.75102C76.9257 7.75102 76.3844 7.85502 75.8937 8.06302C75.4031 8.26569 74.9791 8.56169 74.6217 8.95102C74.2697 9.34036 73.9951 9.81502 73.7977 10.375C73.6004 10.935 73.5017 11.567 73.5017 12.271C73.5017 12.9857 73.6031 13.623 73.8057 14.183C74.0137 14.743 74.2937 15.2177 74.6457 15.607C75.0031 15.991 75.4217 16.2844 75.9017 16.487C76.3871 16.6897 76.9097 16.791 77.4697 16.791C77.8111 16.791 78.1177 16.7724 78.3897 16.735C78.6671 16.6924 78.9204 16.6284 79.1497 16.543C79.3844 16.4577 79.6004 16.351 79.7977 16.223C80.0004 16.0897 80.2004 15.9324 80.3977 15.751C80.4884 15.671 80.5791 15.631 80.6697 15.631ZM92.7012 16.735L92.6932 17.999H85.6292V6.53502H92.6932V7.79902H87.1812V11.607H91.6452V12.823H87.1812V16.735H92.7012ZM103.048 8.32702C103 8.40702 102.946 8.46836 102.888 8.51102C102.834 8.54836 102.768 8.56702 102.688 8.56702C102.597 8.56702 102.49 8.52169 102.368 8.43102C102.245 8.34036 102.09 8.24169 101.904 8.13502C101.722 8.02302 101.501 7.92169 101.24 7.83102C100.984 7.74036 100.672 7.69502 100.304 7.69502C99.9569 7.69502 99.6503 7.74302 99.3836 7.83902C99.1223 7.92969 98.9009 8.05502 98.7196 8.21502C98.5436 8.37502 98.4103 8.56436 98.3196 8.78302C98.2289 8.99636 98.1836 9.22836 98.1836 9.47902C98.1836 9.79902 98.2609 10.0657 98.4156 10.279C98.5756 10.487 98.7836 10.6657 99.0396 10.815C99.3009 10.9644 99.5943 11.095 99.9196 11.207C100.25 11.3137 100.586 11.4257 100.928 11.543C101.274 11.6604 101.61 11.7937 101.936 11.943C102.266 12.087 102.56 12.271 102.816 12.495C103.077 12.719 103.285 12.9937 103.44 13.319C103.6 13.6444 103.68 14.0444 103.68 14.519C103.68 15.0204 103.594 15.4924 103.424 15.935C103.253 16.3724 103.002 16.7537 102.672 17.079C102.346 17.4044 101.944 17.6604 101.464 17.847C100.989 18.0337 100.448 18.127 99.8396 18.127C99.0929 18.127 98.4156 17.9937 97.8076 17.727C97.1996 17.455 96.6796 17.0897 96.2476 16.631L96.6956 15.895C96.7383 15.8364 96.7889 15.7884 96.8476 15.751C96.9116 15.7084 96.9809 15.687 97.0556 15.687C97.1249 15.687 97.2023 15.7164 97.2876 15.775C97.3783 15.8284 97.4796 15.8977 97.5916 15.983C97.7036 16.0684 97.8316 16.1617 97.9756 16.263C98.1196 16.3644 98.2823 16.4577 98.4636 16.543C98.6503 16.6284 98.8609 16.7004 99.0956 16.759C99.3303 16.8124 99.5943 16.839 99.8876 16.839C100.256 16.839 100.584 16.7884 100.872 16.687C101.16 16.5857 101.402 16.4444 101.6 16.263C101.802 16.0764 101.957 15.855 102.064 15.599C102.17 15.343 102.224 15.0577 102.224 14.743C102.224 14.3964 102.144 14.1137 101.984 13.895C101.829 13.671 101.624 13.4844 101.368 13.335C101.112 13.1857 100.818 13.0604 100.488 12.959C100.157 12.8524 99.8209 12.7457 99.4796 12.639C99.1383 12.527 98.8023 12.399 98.4716 12.255C98.1409 12.111 97.8476 11.9244 97.5916 11.695C97.3356 11.4657 97.1276 11.1804 96.9676 10.839C96.8129 10.4924 96.7356 10.0657 96.7356 9.55902C96.7356 9.15369 96.8129 8.76169 96.9676 8.38302C97.1276 8.00436 97.3569 7.66836 97.6556 7.37502C97.9596 7.08169 98.3303 6.84702 98.7676 6.67102C99.2103 6.49502 99.7169 6.40702 100.288 6.40702C100.928 6.40702 101.509 6.50836 102.032 6.71102C102.56 6.91369 103.024 7.20702 103.424 7.59102L103.048 8.32702Z" fill="white"/>
</svg>
