<svg width="788" height="267" viewBox="0 0 788 267" fill="none" xmlns="http://www.w3.org/2000/svg">
<g filter="url(#filter0_b_5_7874)">
<rect width="788" height="267" rx="29" fill="white" fill-opacity="0.85"/>
<path d="M79.7 140.7C76.15 140.7 73.025 139.95 70.325 138.45C67.625 136.933 65.5167 134.817 64 132.1C62.5 129.367 61.75 126.167 61.75 122.5C61.75 118.833 62.525 115.642 64.075 112.925C65.6417 110.192 67.7917 108.075 70.525 106.575C73.2583 105.058 76.3833 104.3 79.9 104.3C81.75 104.3 83.4417 104.5 84.975 104.9C86.5083 105.283 87.8333 105.767 88.95 106.35L88.25 112.45C86.9833 111.867 85.675 111.392 84.325 111.025C82.9917 110.642 81.5 110.45 79.85 110.45C77.4 110.45 75.35 110.967 73.7 112C72.0667 113.033 70.8333 114.458 70 116.275C69.1667 118.092 68.75 120.167 68.75 122.5C68.75 124.833 69.1583 126.908 69.975 128.725C70.7917 130.542 72.0083 131.967 73.625 133C75.2583 134.033 77.2833 134.55 79.7 134.55C81.3833 134.55 82.8917 134.367 84.225 134C85.5583 133.633 86.9 133.15 88.25 132.55L88.95 138.65C87.6333 139.267 86.1833 139.758 84.6 140.125C83.0333 140.508 81.4 140.7 79.7 140.7ZM93.3688 140V115H99.1688L99.3188 117.65C99.9521 116.95 100.844 116.25 101.994 115.55C103.144 114.85 104.402 114.5 105.769 114.5C106.169 114.5 106.535 114.533 106.869 114.6L106.419 120.7C106.052 120.6 105.685 120.533 105.319 120.5C104.969 120.467 104.619 120.45 104.269 120.45C103.219 120.45 102.26 120.692 101.394 121.175C100.527 121.658 99.9188 122.25 99.5688 122.95V140H93.3688ZM121.483 140.5C118.467 140.5 115.95 139.9 113.933 138.7C111.933 137.483 110.433 135.883 109.433 133.9C108.433 131.9 107.933 129.717 107.933 127.35C107.933 125.067 108.4 122.958 109.333 121.025C110.283 119.092 111.667 117.542 113.483 116.375C115.3 115.192 117.517 114.6 120.133 114.6C122.533 114.6 124.533 115.092 126.133 116.075C127.733 117.058 128.933 118.375 129.733 120.025C130.533 121.658 130.933 123.467 130.933 125.45C130.933 126 130.9 126.558 130.833 127.125C130.767 127.675 130.667 128.25 130.533 128.85H114.383C114.617 130.4 115.1 131.658 115.833 132.625C116.583 133.575 117.492 134.275 118.558 134.725C119.642 135.175 120.8 135.4 122.033 135.4C123.483 135.4 124.833 135.217 126.083 134.85C127.333 134.467 128.483 133.967 129.533 133.35L129.833 138.6C128.883 139.1 127.7 139.542 126.283 139.925C124.867 140.308 123.267 140.5 121.483 140.5ZM114.533 124.65H124.633C124.633 123.9 124.492 123.15 124.208 122.4C123.925 121.633 123.45 120.992 122.783 120.475C122.133 119.958 121.25 119.7 120.133 119.7C118.533 119.7 117.275 120.167 116.358 121.1C115.442 122.033 114.833 123.217 114.533 124.65ZM140.566 140.5C139.232 140.5 138.016 140.208 136.916 139.625C135.816 139.025 134.941 138.167 134.291 137.05C133.641 135.933 133.316 134.583 133.316 133C133.316 131.583 133.641 130.375 134.291 129.375C134.957 128.358 135.824 127.517 136.891 126.85C137.974 126.167 139.141 125.633 140.391 125.25C141.657 124.85 142.899 124.558 144.116 124.375C145.349 124.192 146.432 124.083 147.366 124.05C147.299 122.617 146.932 121.575 146.266 120.925C145.599 120.275 144.466 119.95 142.866 119.95C141.749 119.95 140.657 120.108 139.591 120.425C138.541 120.725 137.349 121.2 136.016 121.85L135.466 116.8C136.966 116.067 138.466 115.517 139.966 115.15C141.482 114.783 143.016 114.6 144.566 114.6C146.432 114.6 148.041 114.933 149.391 115.6C150.741 116.267 151.782 117.342 152.516 118.825C153.249 120.292 153.616 122.233 153.616 124.65V131.4C153.616 132.65 153.674 133.558 153.791 134.125C153.907 134.675 154.124 135.025 154.441 135.175C154.757 135.325 155.216 135.4 155.816 135.4H156.616L156.066 140.5H153.816C152.882 140.5 152.049 140.375 151.316 140.125C150.599 139.892 149.982 139.558 149.466 139.125C148.949 138.692 148.532 138.183 148.216 137.6C147.399 138.517 146.291 139.233 144.891 139.75C143.507 140.25 142.066 140.5 140.566 140.5ZM143.166 135.75C143.716 135.75 144.399 135.608 145.216 135.325C146.032 135.025 146.766 134.567 147.416 133.95V128.25C146.249 128.3 145.082 128.492 143.916 128.825C142.749 129.158 141.774 129.65 140.991 130.3C140.207 130.95 139.816 131.767 139.816 132.75C139.816 133.767 140.082 134.525 140.616 135.025C141.149 135.508 141.999 135.75 143.166 135.75ZM167.827 140.5C166.261 140.5 164.986 140.183 164.002 139.55C163.019 138.9 162.294 138.075 161.827 137.075C161.361 136.075 161.127 135.033 161.127 133.95V120.1H157.577L158.127 115H161.127V109.5L167.327 108.85V115H172.827V120.1H167.327V131.4C167.327 132.667 167.402 133.583 167.552 134.15C167.702 134.7 168.044 135.05 168.577 135.2C169.111 135.333 169.961 135.4 171.127 135.4H172.827L172.277 140.5H167.827ZM176.865 140V115H183.065V140H176.865ZM176.865 111.2V105H183.065V111.2H176.865ZM195.727 140L186.127 115H192.227L198.377 132.3L204.527 115H210.627L201.027 140H195.727ZM225.292 140.5C222.275 140.5 219.758 139.9 217.742 138.7C215.742 137.483 214.242 135.883 213.242 133.9C212.242 131.9 211.742 129.717 211.742 127.35C211.742 125.067 212.208 122.958 213.142 121.025C214.092 119.092 215.475 117.542 217.292 116.375C219.108 115.192 221.325 114.6 223.942 114.6C226.342 114.6 228.342 115.092 229.942 116.075C231.542 117.058 232.742 118.375 233.542 120.025C234.342 121.658 234.742 123.467 234.742 125.45C234.742 126 234.708 126.558 234.642 127.125C234.575 127.675 234.475 128.25 234.342 128.85H218.192C218.425 130.4 218.908 131.658 219.642 132.625C220.392 133.575 221.3 134.275 222.367 134.725C223.45 135.175 224.608 135.4 225.842 135.4C227.292 135.4 228.642 135.217 229.892 134.85C231.142 134.467 232.292 133.967 233.342 133.35L233.642 138.6C232.692 139.1 231.508 139.542 230.092 139.925C228.675 140.308 227.075 140.5 225.292 140.5ZM218.342 124.65H228.442C228.442 123.9 228.3 123.15 228.017 122.4C227.733 121.633 227.258 120.992 226.592 120.475C225.942 119.958 225.058 119.7 223.942 119.7C222.342 119.7 221.083 120.167 220.167 121.1C219.25 122.033 218.642 123.217 218.342 124.65ZM261.305 140.7C259.888 140.7 258.43 140.558 256.93 140.275C255.43 140.008 254.038 139.683 252.755 139.3C251.471 138.9 250.455 138.517 249.705 138.15L250.455 131.35C251.621 131.917 252.838 132.442 254.105 132.925C255.371 133.408 256.671 133.8 258.005 134.1C259.338 134.4 260.688 134.55 262.055 134.55C263.755 134.55 265.121 134.217 266.155 133.55C267.188 132.883 267.705 131.867 267.705 130.5C267.705 129.45 267.413 128.608 266.83 127.975C266.246 127.325 265.355 126.75 264.155 126.25C262.955 125.733 261.421 125.15 259.555 124.5C257.688 123.85 256.013 123.117 254.53 122.3C253.046 121.467 251.871 120.417 251.005 119.15C250.138 117.883 249.705 116.267 249.705 114.3C249.705 112.367 250.18 110.65 251.13 109.15C252.08 107.633 253.496 106.45 255.38 105.6C257.28 104.733 259.638 104.3 262.455 104.3C264.588 104.3 266.621 104.542 268.555 105.025C270.488 105.492 272.138 106 273.505 106.55L272.855 113.1C270.888 112.217 269.038 111.55 267.305 111.1C265.588 110.633 263.838 110.4 262.055 110.4C260.188 110.4 258.746 110.708 257.73 111.325C256.713 111.942 256.205 112.867 256.205 114.1C256.205 115.083 256.488 115.875 257.055 116.475C257.621 117.075 258.43 117.592 259.48 118.025C260.53 118.442 261.788 118.883 263.255 119.35C265.788 120.15 267.913 121.033 269.63 122C271.363 122.95 272.663 124.108 273.53 125.475C274.413 126.825 274.855 128.5 274.855 130.5C274.855 131.5 274.696 132.592 274.38 133.775C274.063 134.942 273.438 136.05 272.505 137.1C271.571 138.15 270.205 139.017 268.405 139.7C266.621 140.367 264.255 140.7 261.305 140.7ZM291.259 140.5C288.242 140.5 285.725 139.9 283.709 138.7C281.709 137.483 280.209 135.883 279.209 133.9C278.209 131.9 277.709 129.717 277.709 127.35C277.709 125.067 278.175 122.958 279.109 121.025C280.059 119.092 281.442 117.542 283.259 116.375C285.075 115.192 287.292 114.6 289.909 114.6C292.309 114.6 294.309 115.092 295.909 116.075C297.509 117.058 298.709 118.375 299.509 120.025C300.309 121.658 300.709 123.467 300.709 125.45C300.709 126 300.675 126.558 300.609 127.125C300.542 127.675 300.442 128.25 300.309 128.85H284.159C284.392 130.4 284.875 131.658 285.609 132.625C286.359 133.575 287.267 134.275 288.334 134.725C289.417 135.175 290.575 135.4 291.809 135.4C293.259 135.4 294.609 135.217 295.859 134.85C297.109 134.467 298.259 133.967 299.309 133.35L299.609 138.6C298.659 139.1 297.475 139.542 296.059 139.925C294.642 140.308 293.042 140.5 291.259 140.5ZM284.309 124.65H294.409C294.409 123.9 294.267 123.15 293.984 122.4C293.7 121.633 293.225 120.992 292.559 120.475C291.909 119.958 291.025 119.7 289.909 119.7C288.309 119.7 287.05 120.167 286.134 121.1C285.217 122.033 284.609 123.217 284.309 124.65ZM304.941 140V115H310.741L310.891 117.65C311.524 116.95 312.416 116.25 313.566 115.55C314.716 114.85 315.974 114.5 317.341 114.5C317.741 114.5 318.108 114.533 318.441 114.6L317.991 120.7C317.624 120.6 317.258 120.533 316.891 120.5C316.541 120.467 316.191 120.45 315.841 120.45C314.791 120.45 313.833 120.692 312.966 121.175C312.099 121.658 311.491 122.25 311.141 122.95V140H304.941ZM328.295 140L318.695 115H324.795L330.945 132.3L337.095 115H343.195L333.595 140H328.295ZM346.25 140V115H352.45V140H346.25ZM346.25 111.2V105H352.45V111.2H346.25ZM369.861 140.5C366.995 140.5 364.586 139.917 362.636 138.75C360.703 137.567 359.236 136 358.236 134.05C357.253 132.083 356.761 129.917 356.761 127.55C356.761 125.167 357.253 122.992 358.236 121.025C359.22 119.042 360.695 117.458 362.661 116.275C364.628 115.092 367.095 114.5 370.061 114.5C371.461 114.5 372.728 114.658 373.861 114.975C374.995 115.275 375.961 115.65 376.761 116.1L376.261 121.1C375.495 120.7 374.628 120.367 373.661 120.1C372.711 119.833 371.711 119.7 370.661 119.7C368.261 119.7 366.403 120.425 365.086 121.875C363.77 123.325 363.111 125.217 363.111 127.55C363.111 129.767 363.786 131.633 365.136 133.15C366.486 134.65 368.311 135.4 370.611 135.4C371.595 135.4 372.561 135.258 373.511 134.975C374.478 134.675 375.411 134.267 376.311 133.75L376.861 139C375.995 139.45 374.945 139.808 373.711 140.075C372.495 140.358 371.211 140.5 369.861 140.5ZM392.87 140.5C389.853 140.5 387.337 139.9 385.32 138.7C383.32 137.483 381.82 135.883 380.82 133.9C379.82 131.9 379.32 129.717 379.32 127.35C379.32 125.067 379.787 122.958 380.72 121.025C381.67 119.092 383.053 117.542 384.87 116.375C386.687 115.192 388.903 114.6 391.52 114.6C393.92 114.6 395.92 115.092 397.52 116.075C399.12 117.058 400.32 118.375 401.12 120.025C401.92 121.658 402.32 123.467 402.32 125.45C402.32 126 402.287 126.558 402.22 127.125C402.153 127.675 402.053 128.25 401.92 128.85H385.77C386.003 130.4 386.487 131.658 387.22 132.625C387.97 133.575 388.878 134.275 389.945 134.725C391.028 135.175 392.187 135.4 393.42 135.4C394.87 135.4 396.22 135.217 397.47 134.85C398.72 134.467 399.87 133.967 400.92 133.35L401.22 138.6C400.27 139.1 399.087 139.542 397.67 139.925C396.253 140.308 394.653 140.5 392.87 140.5ZM385.92 124.65H396.02C396.02 123.9 395.878 123.15 395.595 122.4C395.312 121.633 394.837 120.992 394.17 120.475C393.52 119.958 392.637 119.7 391.52 119.7C389.92 119.7 388.662 120.167 387.745 121.1C386.828 122.033 386.22 123.217 385.92 124.65ZM413.652 140.5C412.002 140.5 410.511 140.342 409.177 140.025C407.861 139.708 406.536 139.25 405.202 138.65L405.752 133.35C407.036 134.1 408.294 134.708 409.527 135.175C410.777 135.625 412.086 135.85 413.452 135.85C414.686 135.85 415.627 135.65 416.277 135.25C416.927 134.85 417.252 134.217 417.252 133.35C417.252 132.7 417.077 132.167 416.727 131.75C416.394 131.333 415.886 130.958 415.202 130.625C414.519 130.292 413.669 129.933 412.652 129.55C411.119 128.983 409.811 128.367 408.727 127.7C407.661 127.033 406.844 126.233 406.277 125.3C405.727 124.35 405.452 123.183 405.452 121.8C405.452 120.367 405.827 119.1 406.577 118C407.327 116.9 408.394 116.042 409.777 115.425C411.161 114.808 412.802 114.5 414.702 114.5C416.286 114.5 417.702 114.675 418.952 115.025C420.219 115.375 421.386 115.85 422.452 116.45L421.902 121.75C420.786 120.967 419.661 120.325 418.527 119.825C417.394 119.308 416.152 119.05 414.802 119.05C413.736 119.05 412.911 119.267 412.327 119.7C411.744 120.133 411.452 120.75 411.452 121.55C411.452 122.517 411.861 123.242 412.677 123.725C413.494 124.208 414.802 124.8 416.602 125.5C417.769 125.95 418.777 126.417 419.627 126.9C420.494 127.383 421.211 127.917 421.777 128.5C422.344 129.083 422.761 129.75 423.027 130.5C423.311 131.233 423.452 132.083 423.452 133.05C423.452 134.633 423.069 135.983 422.302 137.1C421.552 138.2 420.444 139.042 418.977 139.625C417.527 140.208 415.752 140.5 413.652 140.5ZM439.875 140V105H461.425V111.2H446.275V118.65H457.975V124.85H446.275V140H439.875ZM474.787 140.5C472.07 140.5 469.754 139.908 467.837 138.725C465.92 137.542 464.454 135.967 463.437 134C462.437 132.033 461.937 129.883 461.937 127.55C461.937 125.2 462.437 123.033 463.437 121.05C464.454 119.067 465.92 117.483 467.837 116.3C469.754 115.1 472.07 114.5 474.787 114.5C477.504 114.5 479.82 115.1 481.737 116.3C483.654 117.483 485.112 119.067 486.112 121.05C487.129 123.033 487.637 125.2 487.637 127.55C487.637 129.883 487.129 132.033 486.112 134C485.112 135.967 483.654 137.542 481.737 138.725C479.82 139.908 477.504 140.5 474.787 140.5ZM474.787 135.4C476.87 135.4 478.47 134.675 479.587 133.225C480.72 131.758 481.287 129.867 481.287 127.55C481.287 125.2 480.72 123.292 479.587 121.825C478.47 120.342 476.87 119.6 474.787 119.6C472.72 119.6 471.12 120.342 469.987 121.825C468.854 123.292 468.287 125.2 468.287 127.55C468.287 129.867 468.854 131.758 469.987 133.225C471.12 134.675 472.72 135.4 474.787 135.4ZM491.953 140V115H497.753L497.903 117.65C498.536 116.95 499.428 116.25 500.578 115.55C501.728 114.85 502.986 114.5 504.353 114.5C504.753 114.5 505.119 114.533 505.453 114.6L505.003 120.7C504.636 120.6 504.269 120.533 503.903 120.5C503.553 120.467 503.203 120.45 502.853 120.45C501.803 120.45 500.844 120.692 499.978 121.175C499.111 121.658 498.503 122.25 498.153 122.95V140H491.953ZM520.637 140V105H533.837C537.22 105 539.729 105.725 541.362 107.175C543.012 108.608 543.837 110.7 543.837 113.45C543.837 115.5 543.37 117.217 542.437 118.6C541.52 119.967 540.137 120.967 538.287 121.6V120.4C541.087 121 543.179 122.1 544.562 123.7C545.945 125.3 546.637 127.417 546.637 130.05C546.637 133.2 545.62 135.65 543.587 137.4C541.554 139.133 538.77 140 535.237 140H520.637ZM527.037 134.3H534.287C536.037 134.3 537.429 133.942 538.462 133.225C539.512 132.508 540.037 131.217 540.037 129.35C540.037 127.45 539.487 126.158 538.387 125.475C537.287 124.792 535.92 124.45 534.287 124.45H527.037V134.3ZM527.037 118.75H532.887C534.437 118.75 535.595 118.433 536.362 117.8C537.145 117.167 537.537 116.15 537.537 114.75C537.537 113.3 537.145 112.267 536.362 111.65C535.595 111.017 534.437 110.7 532.887 110.7H527.037V118.75ZM562.336 140.5C559.619 140.5 557.303 139.908 555.386 138.725C553.469 137.542 552.003 135.967 550.986 134C549.986 132.033 549.486 129.883 549.486 127.55C549.486 125.2 549.986 123.033 550.986 121.05C552.003 119.067 553.469 117.483 555.386 116.3C557.303 115.1 559.619 114.5 562.336 114.5C565.053 114.5 567.369 115.1 569.286 116.3C571.203 117.483 572.661 119.067 573.661 121.05C574.678 123.033 575.186 125.2 575.186 127.55C575.186 129.883 574.678 132.033 573.661 134C572.661 135.967 571.203 137.542 569.286 138.725C567.369 139.908 565.053 140.5 562.336 140.5ZM562.336 135.4C564.419 135.4 566.019 134.675 567.136 133.225C568.269 131.758 568.836 129.867 568.836 127.55C568.836 125.2 568.269 123.292 567.136 121.825C566.019 120.342 564.419 119.6 562.336 119.6C560.269 119.6 558.669 120.342 557.536 121.825C556.403 123.292 555.836 125.2 555.836 127.55C555.836 129.867 556.403 131.758 557.536 133.225C558.669 134.675 560.269 135.4 562.336 135.4ZM590.852 140.5C588.135 140.5 585.818 139.908 583.902 138.725C581.985 137.542 580.518 135.967 579.502 134C578.502 132.033 578.002 129.883 578.002 127.55C578.002 125.2 578.502 123.033 579.502 121.05C580.518 119.067 581.985 117.483 583.902 116.3C585.818 115.1 588.135 114.5 590.852 114.5C593.568 114.5 595.885 115.1 597.802 116.3C599.718 117.483 601.177 119.067 602.177 121.05C603.193 123.033 603.702 125.2 603.702 127.55C603.702 129.883 603.193 132.033 602.177 134C601.177 135.967 599.718 137.542 597.802 138.725C595.885 139.908 593.568 140.5 590.852 140.5ZM590.852 135.4C592.935 135.4 594.535 134.675 595.652 133.225C596.785 131.758 597.352 129.867 597.352 127.55C597.352 125.2 596.785 123.292 595.652 121.825C594.535 120.342 592.935 119.6 590.852 119.6C588.785 119.6 587.185 120.342 586.052 121.825C584.918 123.292 584.352 125.2 584.352 127.55C584.352 129.867 584.918 131.758 586.052 133.225C587.185 134.675 588.785 135.4 590.852 135.4ZM615.117 140.5C613.467 140.5 611.976 140.342 610.642 140.025C609.326 139.708 608.001 139.25 606.667 138.65L607.217 133.35C608.501 134.1 609.759 134.708 610.992 135.175C612.242 135.625 613.551 135.85 614.917 135.85C616.151 135.85 617.092 135.65 617.742 135.25C618.392 134.85 618.717 134.217 618.717 133.35C618.717 132.7 618.542 132.167 618.192 131.75C617.859 131.333 617.351 130.958 616.667 130.625C615.984 130.292 615.134 129.933 614.117 129.55C612.584 128.983 611.276 128.367 610.192 127.7C609.126 127.033 608.309 126.233 607.742 125.3C607.192 124.35 606.917 123.183 606.917 121.8C606.917 120.367 607.292 119.1 608.042 118C608.792 116.9 609.859 116.042 611.242 115.425C612.626 114.808 614.267 114.5 616.167 114.5C617.751 114.5 619.167 114.675 620.417 115.025C621.684 115.375 622.851 115.85 623.917 116.45L623.367 121.75C622.251 120.967 621.126 120.325 619.992 119.825C618.859 119.308 617.617 119.05 616.267 119.05C615.201 119.05 614.376 119.267 613.792 119.7C613.209 120.133 612.917 120.75 612.917 121.55C612.917 122.517 613.326 123.242 614.142 123.725C614.959 124.208 616.267 124.8 618.067 125.5C619.234 125.95 620.242 126.417 621.092 126.9C621.959 127.383 622.676 127.917 623.242 128.5C623.809 129.083 624.226 129.75 624.492 130.5C624.776 131.233 624.917 132.083 624.917 133.05C624.917 134.633 624.534 135.983 623.767 137.1C623.017 138.2 621.909 139.042 620.442 139.625C618.992 140.208 617.217 140.5 615.117 140.5ZM637.31 140.5C635.743 140.5 634.468 140.183 633.485 139.55C632.501 138.9 631.776 138.075 631.31 137.075C630.843 136.075 630.61 135.033 630.61 133.95V120.1H627.06L627.61 115H630.61V109.5L636.81 108.85V115H642.31V120.1H636.81V131.4C636.81 132.667 636.885 133.583 637.035 134.15C637.185 134.7 637.526 135.05 638.06 135.2C638.593 135.333 639.443 135.4 640.61 135.4H642.31L641.76 140.5H637.31ZM71.9 198V183.85L59.6 163H66.6L76.6 180.75H73.6L83.6 163H90.6L78.3 183.85V198H71.9ZM100.324 198.5C97.6076 198.5 95.2909 197.908 93.3742 196.725C91.4576 195.542 89.9909 193.967 88.9742 192C87.9742 190.033 87.4742 187.883 87.4742 185.55C87.4742 183.2 87.9742 181.033 88.9742 179.05C89.9909 177.067 91.4576 175.483 93.3742 174.3C95.2909 173.1 97.6076 172.5 100.324 172.5C103.041 172.5 105.358 173.1 107.274 174.3C109.191 175.483 110.649 177.067 111.649 179.05C112.666 181.033 113.174 183.2 113.174 185.55C113.174 187.883 112.666 190.033 111.649 192C110.649 193.967 109.191 195.542 107.274 196.725C105.358 197.908 103.041 198.5 100.324 198.5ZM100.324 193.4C102.408 193.4 104.008 192.675 105.124 191.225C106.258 189.758 106.824 187.867 106.824 185.55C106.824 183.2 106.258 181.292 105.124 179.825C104.008 178.342 102.408 177.6 100.324 177.6C98.2576 177.6 96.6576 178.342 95.5242 179.825C94.3909 181.292 93.8242 183.2 93.8242 185.55C93.8242 187.867 94.3909 189.758 95.5242 191.225C96.6576 192.675 98.2576 193.4 100.324 193.4ZM127.84 198.5C125.24 198.5 123.165 197.983 121.615 196.95C120.065 195.917 118.948 194.5 118.265 192.7C117.582 190.883 117.24 188.8 117.24 186.45V173H123.44V186.45C123.44 188.767 123.823 190.492 124.59 191.625C125.373 192.742 126.64 193.3 128.39 193.3C129.79 193.3 130.948 192.967 131.865 192.3C132.798 191.633 133.573 190.7 134.19 189.5L133.09 192.65V173H139.29V198H133.49L133.19 193.65L134.54 195.4C133.94 196.167 132.99 196.875 131.69 197.525C130.407 198.175 129.123 198.5 127.84 198.5ZM145.078 198V173H150.878L151.028 175.65C151.661 174.95 152.553 174.25 153.703 173.55C154.853 172.85 156.111 172.5 157.478 172.5C157.878 172.5 158.244 172.533 158.578 172.6L158.128 178.7C157.761 178.6 157.394 178.533 157.028 178.5C156.678 178.467 156.328 178.45 155.978 178.45C154.928 178.45 153.969 178.692 153.103 179.175C152.236 179.658 151.628 180.25 151.278 180.95V198H145.078ZM173.762 198V163H186.962C190.345 163 192.854 163.725 194.487 165.175C196.137 166.608 196.962 168.7 196.962 171.45C196.962 173.5 196.495 175.217 195.562 176.6C194.645 177.967 193.262 178.967 191.412 179.6V178.4C194.212 179 196.304 180.1 197.687 181.7C199.07 183.3 199.762 185.417 199.762 188.05C199.762 191.2 198.745 193.65 196.712 195.4C194.679 197.133 191.895 198 188.362 198H173.762ZM180.162 192.3H187.412C189.162 192.3 190.554 191.942 191.587 191.225C192.637 190.508 193.162 189.217 193.162 187.35C193.162 185.45 192.612 184.158 191.512 183.475C190.412 182.792 189.045 182.45 187.412 182.45H180.162V192.3ZM180.162 176.75H186.012C187.562 176.75 188.72 176.433 189.487 175.8C190.27 175.167 190.662 174.15 190.662 172.75C190.662 171.3 190.27 170.267 189.487 169.65C188.72 169.017 187.562 168.7 186.012 168.7H180.162V176.75ZM214.168 198.5C211.568 198.5 209.493 197.983 207.943 196.95C206.393 195.917 205.276 194.5 204.593 192.7C203.91 190.883 203.568 188.8 203.568 186.45V173H209.768V186.45C209.768 188.767 210.151 190.492 210.918 191.625C211.701 192.742 212.968 193.3 214.718 193.3C216.118 193.3 217.276 192.967 218.193 192.3C219.126 191.633 219.901 190.7 220.518 189.5L219.418 192.65V173H225.618V198H219.818L219.518 193.65L220.868 195.4C220.268 196.167 219.318 196.875 218.018 197.525C216.735 198.175 215.451 198.5 214.168 198.5ZM238.506 198.5C236.856 198.5 235.364 198.342 234.031 198.025C232.714 197.708 231.389 197.25 230.056 196.65L230.606 191.35C231.889 192.1 233.148 192.708 234.381 193.175C235.631 193.625 236.939 193.85 238.306 193.85C239.539 193.85 240.481 193.65 241.131 193.25C241.781 192.85 242.106 192.217 242.106 191.35C242.106 190.7 241.931 190.167 241.581 189.75C241.248 189.333 240.739 188.958 240.056 188.625C239.373 188.292 238.523 187.933 237.506 187.55C235.973 186.983 234.664 186.367 233.581 185.7C232.514 185.033 231.698 184.233 231.131 183.3C230.581 182.35 230.306 181.183 230.306 179.8C230.306 178.367 230.681 177.1 231.431 176C232.181 174.9 233.248 174.042 234.631 173.425C236.014 172.808 237.656 172.5 239.556 172.5C241.139 172.5 242.556 172.675 243.806 173.025C245.073 173.375 246.239 173.85 247.306 174.45L246.756 179.75C245.639 178.967 244.514 178.325 243.381 177.825C242.248 177.308 241.006 177.05 239.656 177.05C238.589 177.05 237.764 177.267 237.181 177.7C236.598 178.133 236.306 178.75 236.306 179.55C236.306 180.517 236.714 181.242 237.531 181.725C238.348 182.208 239.656 182.8 241.456 183.5C242.623 183.95 243.631 184.417 244.481 184.9C245.348 185.383 246.064 185.917 246.631 186.5C247.198 187.083 247.614 187.75 247.881 188.5C248.164 189.233 248.306 190.083 248.306 191.05C248.306 192.633 247.923 193.983 247.156 195.1C246.406 196.2 245.298 197.042 243.831 197.625C242.381 198.208 240.606 198.5 238.506 198.5ZM252.548 198V173H258.748V198H252.548ZM252.548 169.2V163H258.748V169.2H252.548ZM264.56 198V173H270.36L270.61 177.65L269.16 175.75C270.11 174.95 271.243 174.225 272.56 173.575C273.877 172.925 275.41 172.6 277.16 172.6C280.36 172.6 282.735 173.667 284.285 175.8C285.835 177.917 286.61 180.667 286.61 184.05V198H280.41V184.55C280.41 182.217 280.018 180.492 279.235 179.375C278.468 178.258 277.21 177.7 275.46 177.7C274.043 177.7 272.885 178.05 271.985 178.75C271.085 179.433 270.293 180.35 269.61 181.5L270.76 178.45V198H264.56ZM304.198 198.5C301.181 198.5 298.665 197.9 296.648 196.7C294.648 195.483 293.148 193.883 292.148 191.9C291.148 189.9 290.648 187.717 290.648 185.35C290.648 183.067 291.115 180.958 292.048 179.025C292.998 177.092 294.381 175.542 296.198 174.375C298.015 173.192 300.231 172.6 302.848 172.6C305.248 172.6 307.248 173.092 308.848 174.075C310.448 175.058 311.648 176.375 312.448 178.025C313.248 179.658 313.648 181.467 313.648 183.45C313.648 184 313.615 184.558 313.548 185.125C313.481 185.675 313.381 186.25 313.248 186.85H297.098C297.331 188.4 297.815 189.658 298.548 190.625C299.298 191.575 300.206 192.275 301.273 192.725C302.356 193.175 303.515 193.4 304.748 193.4C306.198 193.4 307.548 193.217 308.798 192.85C310.048 192.467 311.198 191.967 312.248 191.35L312.548 196.6C311.598 197.1 310.415 197.542 308.998 197.925C307.581 198.308 305.981 198.5 304.198 198.5ZM297.248 182.65H307.348C307.348 181.9 307.206 181.15 306.923 180.4C306.64 179.633 306.165 178.992 305.498 178.475C304.848 177.958 303.965 177.7 302.848 177.7C301.248 177.7 299.99 178.167 299.073 179.1C298.156 180.033 297.548 181.217 297.248 182.65ZM324.98 198.5C323.33 198.5 321.839 198.342 320.505 198.025C319.189 197.708 317.864 197.25 316.53 196.65L317.08 191.35C318.364 192.1 319.622 192.708 320.855 193.175C322.105 193.625 323.414 193.85 324.78 193.85C326.014 193.85 326.955 193.65 327.605 193.25C328.255 192.85 328.58 192.217 328.58 191.35C328.58 190.7 328.405 190.167 328.055 189.75C327.722 189.333 327.214 188.958 326.53 188.625C325.847 188.292 324.997 187.933 323.98 187.55C322.447 186.983 321.139 186.367 320.055 185.7C318.989 185.033 318.172 184.233 317.605 183.3C317.055 182.35 316.78 181.183 316.78 179.8C316.78 178.367 317.155 177.1 317.905 176C318.655 174.9 319.722 174.042 321.105 173.425C322.489 172.808 324.13 172.5 326.03 172.5C327.614 172.5 329.03 172.675 330.28 173.025C331.547 173.375 332.714 173.85 333.78 174.45L333.23 179.75C332.114 178.967 330.989 178.325 329.855 177.825C328.722 177.308 327.48 177.05 326.13 177.05C325.064 177.05 324.239 177.267 323.655 177.7C323.072 178.133 322.78 178.75 322.78 179.55C322.78 180.517 323.189 181.242 324.005 181.725C324.822 182.208 326.13 182.8 327.93 183.5C329.097 183.95 330.105 184.417 330.955 184.9C331.822 185.383 332.539 185.917 333.105 186.5C333.672 187.083 334.089 187.75 334.355 188.5C334.639 189.233 334.78 190.083 334.78 191.05C334.78 192.633 334.397 193.983 333.63 195.1C332.88 196.2 331.772 197.042 330.305 197.625C328.855 198.208 327.08 198.5 324.98 198.5ZM346.123 198.5C344.473 198.5 342.981 198.342 341.648 198.025C340.331 197.708 339.006 197.25 337.673 196.65L338.223 191.35C339.506 192.1 340.765 192.708 341.998 193.175C343.248 193.625 344.556 193.85 345.923 193.85C347.156 193.85 348.098 193.65 348.748 193.25C349.398 192.85 349.723 192.217 349.723 191.35C349.723 190.7 349.548 190.167 349.198 189.75C348.865 189.333 348.356 188.958 347.673 188.625C346.99 188.292 346.14 187.933 345.123 187.55C343.59 186.983 342.281 186.367 341.198 185.7C340.131 185.033 339.315 184.233 338.748 183.3C338.198 182.35 337.923 181.183 337.923 179.8C337.923 178.367 338.298 177.1 339.048 176C339.798 174.9 340.865 174.042 342.248 173.425C343.631 172.808 345.273 172.5 347.173 172.5C348.756 172.5 350.173 172.675 351.423 173.025C352.69 173.375 353.856 173.85 354.923 174.45L354.373 179.75C353.256 178.967 352.131 178.325 350.998 177.825C349.865 177.308 348.623 177.05 347.273 177.05C346.206 177.05 345.381 177.267 344.798 177.7C344.215 178.133 343.923 178.75 343.923 179.55C343.923 180.517 344.331 181.242 345.148 181.725C345.965 182.208 347.273 182.8 349.073 183.5C350.24 183.95 351.248 184.417 352.098 184.9C352.965 185.383 353.681 185.917 354.248 186.5C354.815 187.083 355.231 187.75 355.498 188.5C355.781 189.233 355.923 190.083 355.923 191.05C355.923 192.633 355.54 193.983 354.773 195.1C354.023 196.2 352.915 197.042 351.448 197.625C349.998 198.208 348.223 198.5 346.123 198.5ZM387.896 198.7C384.196 198.7 381.029 197.95 378.396 196.45C375.763 194.933 373.746 192.808 372.346 190.075C370.946 187.342 370.246 184.133 370.246 180.45C370.246 176.8 371.021 173.617 372.571 170.9C374.138 168.167 376.296 166.05 379.046 164.55C381.796 163.05 384.963 162.3 388.546 162.3C390.396 162.3 392.163 162.492 393.846 162.875C395.546 163.258 396.996 163.75 398.196 164.35L397.496 170.45C396.246 169.867 394.863 169.392 393.346 169.025C391.846 168.642 390.246 168.45 388.546 168.45C385.946 168.45 383.813 168.975 382.146 170.025C380.479 171.058 379.246 172.475 378.446 174.275C377.646 176.058 377.246 178.083 377.246 180.35C377.246 182.733 377.646 184.842 378.446 186.675C379.263 188.508 380.479 189.95 382.096 191C383.713 192.033 385.729 192.55 388.146 192.55C388.879 192.55 389.646 192.5 390.446 192.4C391.263 192.3 392.096 192.167 392.946 192V185.75H388.146V180.45H399.346V196.05C398.129 196.767 396.513 197.392 394.496 197.925C392.496 198.442 390.296 198.7 387.896 198.7ZM404.257 198V173H410.057L410.207 175.65C410.841 174.95 411.732 174.25 412.882 173.55C414.032 172.85 415.291 172.5 416.657 172.5C417.057 172.5 417.424 172.533 417.757 172.6L417.307 178.7C416.941 178.6 416.574 178.533 416.207 178.5C415.857 178.467 415.507 178.45 415.157 178.45C414.107 178.45 413.149 178.692 412.282 179.175C411.416 179.658 410.807 180.25 410.457 180.95V198H404.257ZM431.672 198.5C428.955 198.5 426.639 197.908 424.722 196.725C422.805 195.542 421.339 193.967 420.322 192C419.322 190.033 418.822 187.883 418.822 185.55C418.822 183.2 419.322 181.033 420.322 179.05C421.339 177.067 422.805 175.483 424.722 174.3C426.639 173.1 428.955 172.5 431.672 172.5C434.389 172.5 436.705 173.1 438.622 174.3C440.539 175.483 441.997 177.067 442.997 179.05C444.014 181.033 444.522 183.2 444.522 185.55C444.522 187.883 444.014 190.033 442.997 192C441.997 193.967 440.539 195.542 438.622 196.725C436.705 197.908 434.389 198.5 431.672 198.5ZM431.672 193.4C433.755 193.4 435.355 192.675 436.472 191.225C437.605 189.758 438.172 187.867 438.172 185.55C438.172 183.2 437.605 181.292 436.472 179.825C435.355 178.342 433.755 177.6 431.672 177.6C429.605 177.6 428.005 178.342 426.872 179.825C425.739 181.292 425.172 183.2 425.172 185.55C425.172 187.867 425.739 189.758 426.872 191.225C428.005 192.675 429.605 193.4 431.672 193.4ZM453.445 198L446.145 173H452.195L456.495 190.45L461.195 173.5H466.395L471.045 190.45L475.395 173H481.445L474.145 198H468.945L463.795 181.7L458.645 198H453.445ZM492.974 198.5C491.407 198.5 490.132 198.183 489.149 197.55C488.165 196.9 487.44 196.075 486.974 195.075C486.507 194.075 486.274 193.033 486.274 191.95V178.1H482.724L483.274 173H486.274V167.5L492.474 166.85V173H497.974V178.1H492.474V189.4C492.474 190.667 492.549 191.583 492.699 192.15C492.849 192.7 493.19 193.05 493.724 193.2C494.257 193.333 495.107 193.4 496.274 193.4H497.974L497.424 198.5H492.974ZM501.961 198V160.5H508.161V176.65L506.761 175.55C507.811 174.817 508.953 174.142 510.186 173.525C511.42 172.908 512.895 172.6 514.611 172.6C516.811 172.6 518.603 173.092 519.986 174.075C521.37 175.042 522.386 176.392 523.036 178.125C523.686 179.842 524.011 181.833 524.011 184.1V198H517.811V184.55C517.811 182.217 517.436 180.492 516.686 179.375C515.936 178.258 514.711 177.7 513.011 177.7C511.561 177.7 510.37 178.042 509.436 178.725C508.52 179.392 507.711 180.3 507.011 181.45L508.161 178.1V198H501.961Z" fill="#181818"/>
<rect x="60" y="48" width="118" height="24" rx="12" fill="#FFCC4A"/>
<path d="M82.328 56.328C82.28 56.408 82.2267 56.4693 82.168 56.512C82.1147 56.5493 82.048 56.568 81.968 56.568C81.8773 56.568 81.7707 56.5227 81.648 56.432C81.5253 56.3413 81.3707 56.2427 81.184 56.136C81.0027 56.024 80.7813 55.9227 80.52 55.832C80.264 55.7413 79.952 55.696 79.584 55.696C79.2373 55.696 78.9307 55.744 78.664 55.84C78.4027 55.9307 78.1813 56.056 78 56.216C77.824 56.376 77.6907 56.5653 77.6 56.784C77.5093 56.9973 77.464 57.2293 77.464 57.48C77.464 57.8 77.5413 58.0667 77.696 58.28C77.856 58.488 78.064 58.6667 78.32 58.816C78.5813 58.9653 78.8747 59.096 79.2 59.208C79.5307 59.3147 79.8667 59.4267 80.208 59.544C80.5547 59.6613 80.8907 59.7947 81.216 59.944C81.5467 60.088 81.84 60.272 82.096 60.496C82.3573 60.72 82.5653 60.9947 82.72 61.32C82.88 61.6453 82.96 62.0453 82.96 62.52C82.96 63.0213 82.8747 63.4933 82.704 63.936C82.5333 64.3733 82.2827 64.7547 81.952 65.08C81.6267 65.4053 81.224 65.6613 80.744 65.848C80.2693 66.0347 79.728 66.128 79.12 66.128C78.3733 66.128 77.696 65.9947 77.088 65.728C76.48 65.456 75.96 65.0907 75.528 64.632L75.976 63.896C76.0187 63.8373 76.0693 63.7893 76.128 63.752C76.192 63.7093 76.2613 63.688 76.336 63.688C76.4053 63.688 76.4827 63.7173 76.568 63.776C76.6587 63.8293 76.76 63.8987 76.872 63.984C76.984 64.0693 77.112 64.1627 77.256 64.264C77.4 64.3653 77.5627 64.4587 77.744 64.544C77.9307 64.6293 78.1413 64.7013 78.376 64.76C78.6107 64.8133 78.8747 64.84 79.168 64.84C79.536 64.84 79.864 64.7893 80.152 64.688C80.44 64.5867 80.6827 64.4453 80.88 64.264C81.0827 64.0773 81.2373 63.856 81.344 63.6C81.4507 63.344 81.504 63.0587 81.504 62.744C81.504 62.3973 81.424 62.1147 81.264 61.896C81.1093 61.672 80.904 61.4853 80.648 61.336C80.392 61.1867 80.0987 61.0613 79.768 60.96C79.4373 60.8533 79.1013 60.7467 78.76 60.64C78.4187 60.528 78.0827 60.4 77.752 60.256C77.4213 60.112 77.128 59.9253 76.872 59.696C76.616 59.4667 76.408 59.1813 76.248 58.84C76.0933 58.4933 76.016 58.0667 76.016 57.56C76.016 57.1547 76.0933 56.7627 76.248 56.384C76.408 56.0053 76.6373 55.6693 76.936 55.376C77.24 55.0827 77.6107 54.848 78.048 54.672C78.4907 54.496 78.9973 54.408 79.568 54.408C80.208 54.408 80.7893 54.5093 81.312 54.712C81.84 54.9147 82.304 55.208 82.704 55.592L82.328 56.328ZM94.5435 64.736L94.5355 66H87.4715V54.536H94.5355V55.8H89.0235V59.608H93.4875V60.824H89.0235V64.736H94.5435ZM102.202 60.088C102.65 60.088 103.045 60.0347 103.386 59.928C103.733 59.816 104.021 59.6613 104.25 59.464C104.485 59.2613 104.661 59.0213 104.778 58.744C104.895 58.4667 104.954 58.16 104.954 57.824C104.954 57.1413 104.73 56.6267 104.282 56.28C103.834 55.9333 103.162 55.76 102.266 55.76H100.57V60.088H102.202ZM107.498 66H106.122C105.839 66 105.631 65.8907 105.498 65.672L102.522 61.576C102.431 61.448 102.333 61.3573 102.226 61.304C102.125 61.2453 101.965 61.216 101.746 61.216H100.57V66H99.0259V54.536H102.266C102.991 54.536 103.618 54.6107 104.146 54.76C104.674 54.904 105.109 55.1147 105.45 55.392C105.797 55.6693 106.053 56.0053 106.218 56.4C106.383 56.7893 106.466 57.2267 106.466 57.712C106.466 58.1173 106.402 58.496 106.274 58.848C106.146 59.2 105.959 59.5173 105.714 59.8C105.474 60.0773 105.178 60.3147 104.826 60.512C104.479 60.7093 104.085 60.8587 103.642 60.96C103.839 61.072 104.01 61.2347 104.154 61.448L107.498 66ZM120.4 54.536L115.728 66H114.336L109.664 54.536H110.904C111.043 54.536 111.155 54.5707 111.24 54.64C111.326 54.7093 111.39 54.7973 111.432 54.904L114.664 62.992C114.734 63.1733 114.8 63.3707 114.864 63.584C114.934 63.7973 114.995 64.0213 115.048 64.256C115.102 64.0213 115.158 63.7973 115.216 63.584C115.275 63.3707 115.339 63.1733 115.408 62.992L118.632 54.904C118.664 54.8133 118.726 54.7307 118.816 54.656C118.912 54.576 119.027 54.536 119.16 54.536H120.4ZM125.78 66H124.228V54.536H125.78V66ZM139.081 63.632C139.166 63.632 139.241 63.6667 139.305 63.736L139.921 64.4C139.451 64.944 138.881 65.368 138.209 65.672C137.542 65.976 136.734 66.128 135.785 66.128C134.963 66.128 134.217 65.9867 133.545 65.704C132.873 65.416 132.299 65.016 131.825 64.504C131.35 63.9867 130.982 63.368 130.721 62.648C130.459 61.928 130.329 61.136 130.329 60.272C130.329 59.408 130.465 58.616 130.737 57.896C131.009 57.176 131.39 56.5573 131.881 56.04C132.377 55.5227 132.969 55.1227 133.657 54.84C134.345 54.552 135.105 54.408 135.937 54.408C136.753 54.408 137.473 54.5387 138.097 54.8C138.721 55.0613 139.27 55.416 139.745 55.864L139.233 56.576C139.201 56.6293 139.158 56.6747 139.105 56.712C139.057 56.744 138.99 56.76 138.905 56.76C138.809 56.76 138.691 56.7093 138.553 56.608C138.414 56.5013 138.233 56.384 138.009 56.256C137.785 56.128 137.505 56.0133 137.169 55.912C136.833 55.8053 136.419 55.752 135.929 55.752C135.337 55.752 134.795 55.856 134.305 56.064C133.814 56.2667 133.39 56.5627 133.033 56.952C132.681 57.3413 132.406 57.816 132.209 58.376C132.011 58.936 131.913 59.568 131.913 60.272C131.913 60.9867 132.014 61.624 132.217 62.184C132.425 62.744 132.705 63.2187 133.057 63.608C133.414 63.992 133.833 64.2853 134.313 64.488C134.798 64.6907 135.321 64.792 135.881 64.792C136.222 64.792 136.529 64.7733 136.801 64.736C137.078 64.6933 137.331 64.6293 137.561 64.544C137.795 64.4587 138.011 64.352 138.209 64.224C138.411 64.0907 138.611 63.9333 138.809 63.752C138.899 63.672 138.99 63.632 139.081 63.632ZM151.112 64.736L151.104 66H144.04V54.536H151.104V55.8H145.592V59.608H150.056V60.824H145.592V64.736H151.112ZM161.459 56.328C161.411 56.408 161.357 56.4693 161.299 56.512C161.245 56.5493 161.179 56.568 161.099 56.568C161.008 56.568 160.901 56.5227 160.779 56.432C160.656 56.3413 160.501 56.2427 160.315 56.136C160.133 56.024 159.912 55.9227 159.651 55.832C159.395 55.7413 159.083 55.696 158.715 55.696C158.368 55.696 158.061 55.744 157.795 55.84C157.533 55.9307 157.312 56.056 157.131 56.216C156.955 56.376 156.821 56.5653 156.731 56.784C156.64 56.9973 156.595 57.2293 156.595 57.48C156.595 57.8 156.672 58.0667 156.827 58.28C156.987 58.488 157.195 58.6667 157.451 58.816C157.712 58.9653 158.005 59.096 158.331 59.208C158.661 59.3147 158.997 59.4267 159.339 59.544C159.685 59.6613 160.021 59.7947 160.347 59.944C160.677 60.088 160.971 60.272 161.227 60.496C161.488 60.72 161.696 60.9947 161.851 61.32C162.011 61.6453 162.091 62.0453 162.091 62.52C162.091 63.0213 162.005 63.4933 161.835 63.936C161.664 64.3733 161.413 64.7547 161.083 65.08C160.757 65.4053 160.355 65.6613 159.875 65.848C159.4 66.0347 158.859 66.128 158.251 66.128C157.504 66.128 156.827 65.9947 156.219 65.728C155.611 65.456 155.091 65.0907 154.659 64.632L155.107 63.896C155.149 63.8373 155.2 63.7893 155.259 63.752C155.323 63.7093 155.392 63.688 155.467 63.688C155.536 63.688 155.613 63.7173 155.699 63.776C155.789 63.8293 155.891 63.8987 156.003 63.984C156.115 64.0693 156.243 64.1627 156.387 64.264C156.531 64.3653 156.693 64.4587 156.875 64.544C157.061 64.6293 157.272 64.7013 157.507 64.76C157.741 64.8133 158.005 64.84 158.299 64.84C158.667 64.84 158.995 64.7893 159.283 64.688C159.571 64.5867 159.813 64.4453 160.011 64.264C160.213 64.0773 160.368 63.856 160.475 63.6C160.581 63.344 160.635 63.0587 160.635 62.744C160.635 62.3973 160.555 62.1147 160.395 61.896C160.24 61.672 160.035 61.4853 159.779 61.336C159.523 61.1867 159.229 61.0613 158.899 60.96C158.568 60.8533 158.232 60.7467 157.891 60.64C157.549 60.528 157.213 60.4 156.883 60.256C156.552 60.112 156.259 59.9253 156.003 59.696C155.747 59.4667 155.539 59.1813 155.379 58.84C155.224 58.4933 155.147 58.0667 155.147 57.56C155.147 57.1547 155.224 56.7627 155.379 56.384C155.539 56.0053 155.768 55.6693 156.067 55.376C156.371 55.0827 156.741 54.848 157.179 54.672C157.621 54.496 158.128 54.408 158.699 54.408C159.339 54.408 159.92 54.5093 160.443 54.712C160.971 54.9147 161.435 55.208 161.835 55.592L161.459 56.328Z" fill="#181818"/>
</g>
<defs>
<filter id="filter0_b_5_7874" x="-11" y="-11" width="810" height="289" filterUnits="userSpaceOnUse" color-interpolation-filters="sRGB">
<feFlood flood-opacity="0" result="BackgroundImageFix"/>
<feGaussianBlur in="BackgroundImageFix" stdDeviation="5.5"/>
<feComposite in2="SourceAlpha" operator="in" result="effect1_backgroundBlur_5_7874"/>
<feBlend mode="normal" in="SourceGraphic" in2="effect1_backgroundBlur_5_7874" result="shape"/>
</filter>
</defs>
</svg>
